{"glyphs":{"0":{"ha":800,"x_min":46,"x_max":917,"o":"m 214 -12 q 161 -8 186 -12 q 46 156 46 7 q 154 478 46 301 q 346 694 221 589 q 588 853 465 797 q 582 864 582 858 q 604 878 582 874 q 661 879 626 882 q 768 893 701 893 q 872 854 872 893 q 844 846 869 835 q 760 861 799 863 q 839 813 803 847 q 917 625 917 739 q 854 406 917 521 q 692 201 794 292 q 214 -12 451 -12 m 178 22 q 626 226 375 6 q 843 640 843 417 q 799 782 843 746 q 671 846 731 835 q 399 669 542 806 q 224 460 293 567 q 110 133 110 283 q 178 22 110 28 z "},"1":{"ha":485,"x_min":-1,"x_max":671,"o":"m 25 -31 q 6 -22 14 -35 q -1 6 -1 -10 q 11 31 -1 26 q 70 54 35 42 q 151 82 106 67 q 295 346 208 188 q 500 717 382 504 q 306 625 424 669 q 285 639 285 617 q 297 657 285 651 q 560 824 392 693 l 568 838 q 631 864 582 864 q 671 843 671 864 q 667 832 671 839 l 219 93 q 418 110 314 110 q 433 94 433 110 q 413 75 433 75 q 214 42 321 75 q 146 17 193 35 q 25 -31 99 -1 z "},"2":{"ha":900,"x_min":0,"x_max":1000,"o":"m 725 -68 q 524 -28 640 -68 l 331 42 q 226 61 265 61 q 159 33 200 49 q 63 -3 118 17 q 33 -7 46 -7 q 0 18 0 -7 q 36 76 0 49 q 103 104 69 99 q 165 111 131 110 q 238 110 199 113 q 663 385 563 306 q 804 517 757 458 q 883 683 869 594 q 885 696 885 690 q 886 707 886 701 q 792 782 886 782 q 563 719 700 782 q 363 596 438 663 q 350 590 357 590 q 336 607 336 590 q 344 624 336 618 q 592 774 440 706 q 872 847 758 847 q 1000 749 1000 847 q 999 734 1000 742 q 997 718 999 726 q 871 510 981 621 q 792 438 840 479 q 678 343 743 396 q 274 93 532 229 q 490 35 335 88 q 733 -15 639 -15 q 835 6 788 -15 q 896 79 896 31 q 811 165 896 135 q 800 176 800 169 q 824 188 800 194 q 939 76 939 154 q 861 -33 939 11 q 725 -68 797 -68 z "},"3":{"ha":997,"x_min":44,"x_max":1042,"o":"m 354 -14 q 135 28 218 -14 q 44 153 44 72 q 71 244 44 196 q 208 351 106 307 q 360 388 296 388 q 376 376 376 388 q 357 363 376 363 q 243 321 313 363 q 151 224 165 272 q 147 199 149 211 q 144 176 144 188 q 310 26 144 56 q 644 76 471 -3 q 907 336 839 167 q 917 383 917 360 q 854 465 917 439 q 721 489 800 489 q 585 468 639 489 q 558 463 572 463 q 533 486 533 463 q 544 515 533 501 q 574 528 556 528 q 797 568 693 528 q 947 717 931 621 q 949 726 949 722 q 949 735 949 731 q 869 794 949 794 q 700 757 800 794 q 546 682 611 724 q 536 678 540 678 q 526 696 526 678 q 553 743 526 738 q 654 818 585 753 q 669 824 663 826 q 676 814 676 821 q 668 797 676 806 q 657 786 664 794 q 906 850 806 850 q 1036 724 1042 850 q 788 528 1029 603 q 997 381 997 506 q 992 342 997 360 q 746 75 950 178 q 354 -14 567 -14 z "},"4":{"ha":789,"x_min":18,"x_max":950,"o":"m 471 -112 q 458 -110 465 -112 q 449 -104 451 -108 q 428 13 425 -51 q 451 140 432 76 q 492 258 471 204 q 397 281 440 274 q 317 289 353 289 q 57 219 225 289 q 29 228 40 214 q 18 263 18 243 q 49 308 18 299 q 81 318 63 314 q 126 328 100 322 q 265 415 192 364 q 413 521 339 467 q 550 615 486 575 q 759 757 681 697 q 864 854 838 817 l 867 858 l 879 878 q 903 888 886 888 q 950 861 950 888 q 947 856 950 858 l 703 504 q 651 424 679 468 q 599 340 622 379 q 564 283 575 301 q 728 250 663 250 q 799 274 767 250 q 839 354 839 307 q 835 383 839 369 q 846 404 831 404 q 865 390 858 404 q 892 306 892 343 q 722 211 892 211 q 542 244 650 211 q 502 147 522 206 q 476 29 482 89 q 490 -75 469 -31 q 493 -87 493 -83 q 471 -112 493 -112 m 511 304 q 564 402 528 340 q 647 537 600 464 q 740 678 693 610 l 772 725 q 631 632 717 692 q 442 497 546 572 q 225 342 339 422 q 283 347 260 346 q 321 349 307 349 q 511 304 394 349 z "},"5":{"ha":919,"x_min":-46,"x_max":1101,"o":"m 428 767 q 415 774 418 760 q 414 813 411 788 q 426 846 417 840 q 497 874 458 869 q 524 876 506 875 q 574 876 543 876 q 655 867 607 876 q 767 840 703 858 q 878 813 831 822 q 960 804 926 804 q 1022 821 988 804 q 1068 878 1068 844 q 1085 899 1068 899 q 1101 863 1101 899 q 1039 788 1101 815 q 951 769 997 769 q 869 774 917 769 q 761 788 822 778 q 653 801 701 797 q 569 806 606 806 q 428 767 479 806 m 214 -11 q 27 22 100 -15 q -46 128 -46 60 q 44 285 -46 199 q 71 299 58 299 q 81 289 81 299 q 67 264 81 278 q 17 167 17 217 q 81 69 17 108 q 231 31 144 31 q 565 149 396 31 q 774 426 742 271 q 776 440 775 433 q 776 454 776 447 q 690 560 776 524 q 553 581 626 583 q 386 540 461 576 l 240 469 q 232 468 238 468 q 219 485 219 468 q 238 514 219 506 l 401 721 q 464 736 414 736 q 492 728 492 736 q 489 722 492 725 l 328 547 q 582 618 506 618 q 879 471 879 618 q 871 421 879 449 q 614 115 814 242 q 214 -11 425 -3 z "},"6":{"ha":850,"x_min":65,"x_max":1035,"o":"m 296 -26 q 119 24 178 -26 q 69 151 65 69 q 185 406 76 269 q 474 643 299 549 q 825 806 689 760 q 813 809 821 807 q 800 811 804 811 q 794 821 793 815 q 810 831 797 826 q 832 835 824 836 l 949 842 q 1011 828 988 844 q 1035 793 1035 813 q 1019 776 1035 779 q 515 593 806 735 q 263 406 382 529 q 118 136 118 258 q 292 10 118 10 q 536 54 388 10 q 667 125 604 75 q 743 246 743 185 q 679 294 743 294 q 478 236 581 294 q 342 67 360 168 q 318 40 338 40 q 306 64 301 40 q 456 272 329 192 q 686 343 567 342 q 825 249 825 344 q 739 106 825 175 q 585 26 671 54 q 296 -26 411 -26 z "},"7":{"ha":686,"x_min":146,"x_max":979,"o":"m 193 -21 q 171 -5 174 -21 q 168 28 168 11 q 353 382 168 175 q 803 803 543 597 q 616 826 689 818 q 510 833 543 833 q 329 808 390 833 q 219 682 250 774 q 182 654 208 654 q 156 665 167 654 q 151 693 146 676 l 153 701 q 156 710 156 710 l 181 760 q 194 810 197 794 q 199 842 193 824 q 208 850 203 851 q 219 807 219 842 q 481 894 318 894 q 661 868 551 894 q 773 844 728 853 q 840 832 818 835 l 911 885 q 951 867 926 896 q 963 828 979 839 q 656 592 797 708 q 400 360 515 475 q 276 201 332 292 q 207 19 207 90 q 208 8 207 14 q 210 -4 208 1 q 193 -21 213 -21 z "},"8":{"ha":844,"x_min":1,"x_max":999,"o":"m 175 -25 q 31 21 71 -25 q 1 100 1 54 q 86 274 1 183 q 460 557 244 446 q 374 658 374 610 q 379 686 374 674 q 518 825 410 769 q 722 875 617 875 q 846 847 797 875 q 883 789 883 825 q 858 724 883 760 l 975 761 q 992 758 986 764 q 997 740 999 751 q 957 708 993 717 q 781 657 872 690 q 588 576 689 624 q 715 514 671 542 q 817 367 817 450 q 703 181 817 278 q 446 32 603 97 q 175 -25 304 -25 m 547 594 q 656 643 589 614 q 813 708 722 672 q 824 733 818 718 q 839 767 831 747 q 815 814 849 801 q 704 833 761 833 q 529 786 606 833 q 463 679 454 740 q 547 594 468 631 m 190 1 q 406 53 281 1 q 738 331 738 189 q 618 475 738 414 l 499 536 q 246 349 376 467 q 79 76 65 182 q 190 1 90 1 z "},"9":{"ha":611,"x_min":103,"x_max":863,"o":"m 224 -211 q 167 -136 168 -204 q 318 256 161 13 q 462 452 383 357 q 631 636 540 547 q 186 435 340 435 q 104 506 103 435 q 253 714 108 622 q 556 835 372 789 q 829 869 714 874 q 838 857 840 869 q 824 826 836 844 q 800 810 811 808 q 392 731 603 825 q 168 518 175 635 q 231 474 167 465 q 349 513 278 479 q 518 608 421 547 q 655 701 590 654 q 779 796 719 749 q 804 801 785 801 q 863 772 863 801 q 850 751 863 763 q 790 699 828 733 q 697 617 751 665 q 225 -142 213 169 q 246 -187 228 -181 q 253 -206 267 -196 q 224 -211 244 -214 z "},"\r":{"ha":275,"x_min":0,"x_max":0,"o":""}," ":{"ha":275,"x_min":0,"x_max":0,"o":""},"A":{"ha":1417,"x_min":-1,"x_max":1581,"o":"m 213 -161 q -1 58 -1 -143 q 74 311 -1 178 q 185 468 118 392 q 333 606 253 544 q 497 704 413 668 q 658 740 581 740 q 796 639 796 740 q 754 488 796 571 q 669 382 713 404 q 660 381 665 381 q 656 383 656 381 l 701 458 q 749 594 749 536 q 726 674 749 636 q 647 711 704 711 q 505 672 578 711 q 364 569 432 633 q 240 428 296 506 q 151 276 185 351 q 81 18 81 117 q 232 -131 81 -131 q 624 56 376 -131 q 770 176 681 99 q 981 365 860 254 q 939 362 964 364 q 881 354 914 360 q 854 349 867 351 q 831 347 842 347 q 807 361 803 350 q 860 413 813 413 q 941 404 903 407 q 1014 401 979 401 q 1158 541 1068 451 q 1371 761 1247 631 q 1565 929 1531 929 q 1581 901 1581 929 q 1578 874 1581 890 q 1569 835 1575 857 q 1540 771 1556 782 q 1469 692 1497 740 q 1411 586 1440 644 q 1358 480 1382 526 q 1314 397 1333 433 l 1449 400 q 1499 393 1499 400 q 1496 389 1499 392 q 1296 361 1472 374 q 1167 17 1167 110 q 1207 -47 1167 -47 q 1246 -28 1222 -47 q 1274 -10 1268 -10 q 1275 -8 1274 -7 q 1274 -10 1276 -10 q 1233 -55 1267 -35 q 1161 -75 1199 -75 q 1115 -53 1126 -75 q 1104 8 1104 -31 q 1211 365 1104 149 l 1044 361 q 671 42 858 179 q 213 -161 372 -175 m 1224 401 q 1290 517 1240 433 q 1425 736 1340 601 l 1069 403 l 1224 401 z "},"Æ":{"ha":1944,"x_min":-1,"x_max":2063,"o":"m 213 -161 q -1 58 -1 -143 q 74 311 -1 178 q 185 468 118 392 q 333 606 253 544 q 497 704 413 668 q 658 740 581 740 q 796 639 796 740 q 754 488 796 571 q 669 382 713 404 q 660 381 665 381 q 656 383 656 381 l 701 458 q 749 594 749 536 q 726 674 749 636 q 647 711 704 711 q 505 672 578 711 q 364 569 432 633 q 240 428 296 506 q 151 276 185 351 q 81 18 81 117 q 232 -131 81 -131 q 624 56 376 -131 q 770 176 681 99 q 981 365 860 254 q 939 362 964 364 q 881 354 914 360 q 831 347 850 347 q 807 361 803 347 q 860 413 813 413 q 941 404 903 407 q 1014 401 979 401 q 1158 541 1068 451 q 1371 761 1247 631 q 1565 929 1531 929 q 1581 900 1581 929 q 1571 842 1581 874 q 1593 853 1582 847 q 1617 864 1604 858 q 1749 907 1682 892 q 1886 922 1817 922 q 2017 894 1972 922 q 2063 817 2063 867 q 2044 753 2063 782 q 1997 707 2025 724 q 1940 690 1969 690 q 1897 711 1897 690 q 1915 724 1897 724 q 1930 722 1921 724 q 1943 719 1939 719 q 1994 750 1972 719 q 2017 811 2017 781 q 1975 875 2017 856 q 1879 894 1933 894 q 1621 810 1747 894 q 1488 613 1488 722 q 1515 538 1488 572 q 1606 559 1564 553 q 1688 565 1649 565 q 1821 514 1821 565 q 1801 473 1821 490 q 1752 447 1782 456 q 1692 438 1722 438 q 1621 446 1660 438 q 1546 468 1582 454 q 1485 500 1510 482 q 1406 470 1444 489 q 1332 433 1368 451 l 1314 397 q 1273 302 1293 354 q 1240 198 1253 250 q 1228 103 1228 146 q 1278 -23 1228 14 q 1401 -60 1329 -60 q 1531 -40 1463 -60 q 1658 11 1599 -19 q 1756 76 1718 42 q 1865 281 1865 174 q 1783 365 1865 365 q 1688 344 1740 365 q 1588 286 1635 322 q 1511 207 1542 250 q 1481 119 1481 164 q 1519 65 1481 75 q 1533 51 1533 60 q 1513 40 1533 40 q 1439 122 1439 40 q 1471 225 1439 176 q 1553 311 1503 274 q 1664 370 1604 349 q 1779 392 1724 392 q 1876 363 1836 392 q 1917 271 1917 333 q 1882 145 1917 207 q 1774 28 1847 83 q 1676 -28 1735 -1 q 1549 -71 1617 -54 q 1415 -87 1482 -87 q 1290 -66 1349 -87 q 1194 7 1232 -44 q 1153 144 1157 58 q 1160 221 1151 178 q 1183 303 1168 264 q 1211 365 1197 343 q 1174 365 1204 365 q 1107 363 1143 364 q 1044 361 1071 361 q 671 42 858 179 q 213 -161 372 -175 m 1224 401 q 1290 517 1240 433 q 1425 736 1340 601 l 1069 403 l 1224 401 m 1360 485 q 1406 503 1382 494 q 1461 522 1431 513 q 1419 603 1428 558 l 1411 586 q 1385 533 1397 558 q 1360 485 1372 507 m 1679 468 q 1754 511 1754 468 q 1679 531 1754 531 q 1610 526 1646 531 q 1539 515 1575 522 q 1679 468 1599 468 z "},"Ǽ":{"ha":1944,"x_min":-1,"x_max":2063,"o":"m 213 -161 q -1 58 -1 -143 q 74 311 -1 178 q 185 468 118 392 q 333 606 253 544 q 497 704 413 668 q 658 740 581 740 q 796 639 796 740 q 754 488 796 571 q 669 382 713 404 q 660 381 665 381 q 656 383 656 381 l 701 458 q 749 594 749 536 q 726 674 749 636 q 647 711 704 711 q 505 672 578 711 q 364 569 432 633 q 240 428 296 506 q 151 276 185 351 q 81 18 81 117 q 232 -131 81 -131 q 624 56 376 -131 q 770 176 681 99 q 981 365 860 254 q 939 362 964 364 q 881 354 914 360 q 831 347 850 347 q 807 361 803 347 q 860 413 813 413 q 941 404 903 407 q 1014 401 979 401 q 1158 541 1068 451 q 1371 761 1247 631 q 1565 929 1531 929 q 1581 900 1581 929 q 1571 842 1581 874 q 1593 853 1582 847 q 1617 864 1604 858 q 1749 907 1682 892 q 1886 922 1817 922 q 2017 894 1972 922 q 2063 817 2063 867 q 2044 753 2063 782 q 1997 707 2025 724 q 1940 690 1969 690 q 1897 711 1897 690 q 1915 724 1897 724 q 1930 722 1921 724 q 1943 719 1939 719 q 1994 750 1972 719 q 2017 811 2017 781 q 1975 875 2017 856 q 1879 894 1933 894 q 1621 810 1747 894 q 1488 613 1488 722 q 1515 538 1488 572 q 1606 559 1564 553 q 1688 565 1649 565 q 1821 514 1821 565 q 1801 473 1821 490 q 1752 447 1782 456 q 1692 438 1722 438 q 1621 446 1660 438 q 1546 468 1582 454 q 1485 500 1510 482 q 1406 470 1444 489 q 1332 433 1368 451 l 1314 397 q 1273 302 1293 354 q 1240 198 1253 250 q 1228 103 1228 146 q 1278 -23 1228 14 q 1401 -60 1329 -60 q 1531 -40 1463 -60 q 1658 11 1599 -19 q 1756 76 1718 42 q 1865 281 1865 174 q 1783 365 1865 365 q 1688 344 1740 365 q 1588 286 1635 322 q 1511 207 1542 250 q 1481 119 1481 164 q 1519 65 1481 75 q 1533 51 1533 60 q 1513 40 1533 40 q 1439 122 1439 40 q 1471 225 1439 176 q 1553 311 1503 274 q 1664 370 1604 349 q 1779 392 1724 392 q 1876 363 1836 392 q 1917 271 1917 333 q 1882 145 1917 207 q 1774 28 1847 83 q 1676 -28 1735 -1 q 1549 -71 1617 -54 q 1415 -87 1482 -87 q 1290 -66 1349 -87 q 1194 7 1232 -44 q 1153 144 1157 58 q 1160 221 1151 178 q 1183 303 1168 264 q 1211 365 1197 343 q 1174 365 1204 365 q 1107 363 1143 364 q 1044 361 1071 361 q 671 42 858 179 q 213 -161 372 -175 m 1224 401 q 1290 517 1240 433 q 1425 736 1340 601 l 1069 403 l 1224 401 m 1360 485 q 1406 503 1382 494 q 1461 522 1431 513 q 1419 603 1428 558 l 1411 586 q 1385 533 1397 558 q 1360 485 1372 507 m 1679 468 q 1754 511 1754 468 q 1679 531 1754 531 q 1610 526 1646 531 q 1539 515 1575 522 q 1679 468 1599 468 m 1689 990 q 1678 999 1678 990 q 1692 1011 1678 1006 q 1768 1044 1732 1028 q 1833 1075 1804 1061 q 1854 1083 1846 1082 q 1867 1085 1863 1085 q 1882 1073 1875 1085 q 1889 1050 1889 1061 q 1880 1035 1889 1040 q 1864 1026 1871 1029 q 1833 1015 1854 1022 q 1778 1001 1813 1008 q 1689 990 1726 990 z "},"Á":{"ha":1417,"x_min":-1,"x_max":1754,"o":"m 213 -161 q -1 58 -1 -143 q 74 311 -1 178 q 185 468 118 392 q 333 606 253 544 q 497 704 413 668 q 658 740 581 740 q 796 639 796 740 q 754 488 796 571 q 669 382 713 404 q 660 381 665 381 q 656 383 656 381 l 701 458 q 749 594 749 536 q 726 674 749 636 q 647 711 704 711 q 505 672 578 711 q 364 569 432 633 q 240 428 296 506 q 151 276 185 351 q 81 18 81 117 q 232 -131 81 -131 q 624 56 376 -131 q 770 176 681 99 q 981 365 860 254 q 939 362 964 364 q 881 354 914 360 q 854 349 867 351 q 831 347 842 347 q 807 361 803 350 q 860 413 813 413 q 941 404 903 407 q 1014 401 979 401 q 1158 541 1068 451 q 1371 761 1247 631 q 1565 929 1531 929 q 1581 901 1581 929 q 1578 874 1581 890 q 1569 835 1575 857 q 1540 771 1556 782 q 1469 692 1497 740 q 1411 586 1440 644 q 1358 480 1382 526 q 1314 397 1333 433 l 1449 400 q 1499 393 1499 400 q 1496 389 1499 392 q 1296 361 1472 374 q 1167 17 1167 110 q 1207 -47 1167 -47 q 1246 -28 1222 -47 q 1274 -10 1268 -10 q 1275 -8 1274 -7 q 1274 -10 1276 -10 q 1233 -55 1267 -35 q 1161 -75 1199 -75 q 1115 -53 1126 -75 q 1104 8 1104 -31 q 1211 365 1104 149 l 1044 361 q 671 42 858 179 q 213 -161 372 -175 m 1224 401 q 1290 517 1240 433 q 1425 736 1340 601 l 1069 403 l 1224 401 m 1554 990 q 1543 999 1543 990 q 1557 1011 1543 1006 q 1633 1044 1597 1028 q 1699 1075 1669 1061 q 1719 1083 1711 1082 q 1732 1085 1728 1085 q 1747 1073 1740 1085 q 1754 1050 1754 1061 q 1745 1035 1754 1040 q 1729 1026 1736 1029 q 1699 1015 1719 1022 q 1643 1001 1678 1008 q 1554 990 1592 990 z "},"Ă":{"ha":1417,"x_min":-1,"x_max":1742,"o":"m 213 -161 q -1 58 -1 -143 q 74 311 -1 178 q 185 468 118 392 q 333 606 253 544 q 497 704 413 668 q 658 740 581 740 q 796 639 796 740 q 754 488 796 571 q 669 382 713 404 q 660 381 665 381 q 656 383 656 381 l 701 458 q 749 594 749 536 q 726 674 749 636 q 647 711 704 711 q 505 672 578 711 q 364 569 432 633 q 240 428 296 506 q 151 276 185 351 q 81 18 81 117 q 232 -131 81 -131 q 624 56 376 -131 q 770 176 681 99 q 981 365 860 254 q 939 362 964 364 q 881 354 914 360 q 854 349 867 351 q 831 347 842 347 q 807 361 803 350 q 860 413 813 413 q 941 404 903 407 q 1014 401 979 401 q 1158 541 1068 451 q 1371 761 1247 631 q 1565 929 1531 929 q 1581 901 1581 929 q 1578 874 1581 890 q 1569 835 1575 857 q 1540 771 1556 782 q 1469 692 1497 740 q 1411 586 1440 644 q 1358 480 1382 526 q 1314 397 1333 433 l 1449 400 q 1499 393 1499 400 q 1496 389 1499 392 q 1296 361 1472 374 q 1167 17 1167 110 q 1207 -47 1167 -47 q 1246 -28 1222 -47 q 1274 -10 1268 -10 q 1275 -8 1274 -7 q 1274 -10 1276 -10 q 1233 -55 1267 -35 q 1161 -75 1199 -75 q 1115 -53 1126 -75 q 1104 8 1104 -31 q 1211 365 1104 149 l 1044 361 q 671 42 858 179 q 213 -161 372 -175 m 1224 401 q 1290 517 1240 433 q 1425 736 1340 601 l 1069 403 l 1224 401 m 1590 994 q 1544 1009 1564 994 q 1525 1060 1525 1024 q 1526 1072 1525 1061 q 1531 1094 1526 1083 q 1546 1104 1536 1104 q 1556 1097 1553 1104 q 1561 1078 1558 1089 q 1574 1055 1565 1061 q 1607 1049 1582 1049 q 1651 1056 1631 1049 q 1703 1088 1672 1063 q 1726 1106 1710 1094 q 1742 1106 1742 1117 q 1726 1069 1742 1090 q 1666 1017 1704 1039 q 1590 994 1628 994 z "},"Ắ":{"ha":1417,"x_min":-1,"x_max":1801,"o":"m 213 -161 q -1 58 -1 -143 q 74 311 -1 178 q 185 468 118 392 q 333 606 253 544 q 497 704 413 668 q 658 740 581 740 q 796 639 796 740 q 754 488 796 571 q 669 382 713 404 q 660 381 665 381 q 656 383 656 381 l 701 458 q 749 594 749 536 q 726 674 749 636 q 647 711 704 711 q 505 672 578 711 q 364 569 432 633 q 240 428 296 506 q 151 276 185 351 q 81 18 81 117 q 232 -131 81 -131 q 624 56 376 -131 q 770 176 681 99 q 981 365 860 254 q 939 362 964 364 q 881 354 914 360 q 854 349 867 351 q 831 347 842 347 q 807 361 803 350 q 860 413 813 413 q 941 404 903 407 q 1014 401 979 401 q 1158 541 1068 451 q 1371 761 1247 631 q 1565 929 1531 929 q 1581 901 1581 929 q 1578 874 1581 890 q 1569 835 1575 857 q 1540 771 1556 782 q 1469 692 1497 740 q 1411 586 1440 644 q 1358 480 1382 526 q 1314 397 1333 433 l 1449 400 q 1499 393 1499 400 q 1496 389 1499 392 q 1296 361 1472 374 q 1167 17 1167 110 q 1207 -47 1167 -47 q 1246 -28 1222 -47 q 1274 -10 1268 -10 q 1275 -8 1274 -7 q 1274 -10 1276 -10 q 1233 -55 1267 -35 q 1161 -75 1199 -75 q 1115 -53 1126 -75 q 1104 8 1104 -31 q 1211 365 1104 149 l 1044 361 q 671 42 858 179 q 213 -161 372 -175 m 1224 401 q 1290 517 1240 433 q 1425 736 1340 601 l 1069 403 l 1224 401 m 1590 994 q 1544 1009 1564 994 q 1525 1060 1525 1024 q 1526 1072 1525 1061 q 1531 1094 1526 1083 q 1546 1104 1536 1104 q 1556 1097 1553 1104 q 1561 1078 1558 1089 q 1574 1055 1565 1061 q 1607 1049 1582 1049 q 1651 1056 1631 1049 q 1703 1088 1672 1063 q 1726 1106 1710 1094 q 1742 1106 1742 1117 q 1726 1069 1742 1090 q 1666 1017 1704 1039 q 1590 994 1628 994 m 1601 1129 q 1590 1138 1590 1129 q 1604 1150 1590 1144 q 1681 1183 1644 1167 q 1746 1214 1717 1200 q 1767 1222 1758 1221 q 1779 1224 1775 1224 q 1794 1212 1788 1224 q 1801 1189 1801 1200 q 1792 1174 1801 1179 q 1776 1165 1783 1168 q 1746 1154 1767 1161 q 1690 1140 1725 1147 q 1601 1129 1639 1129 z "},"Ặ":{"ha":1417,"x_min":-1,"x_max":1742,"o":"m 213 -161 q -1 58 -1 -143 q 74 311 -1 178 q 185 468 118 392 q 333 606 253 544 q 497 704 413 668 q 658 740 581 740 q 796 639 796 740 q 754 488 796 571 q 669 382 713 404 q 660 381 665 381 q 656 383 656 381 l 701 458 q 749 594 749 536 q 726 674 749 636 q 647 711 704 711 q 505 672 578 711 q 364 569 432 633 q 240 428 296 506 q 151 276 185 351 q 81 18 81 117 q 232 -131 81 -131 q 624 56 376 -131 q 770 176 681 99 q 981 365 860 254 q 939 362 964 364 q 881 354 914 360 q 854 349 867 351 q 831 347 842 347 q 807 361 803 350 q 860 413 813 413 q 941 404 903 407 q 1014 401 979 401 q 1158 541 1068 451 q 1371 761 1247 631 q 1565 929 1531 929 q 1581 901 1581 929 q 1578 874 1581 890 q 1569 835 1575 857 q 1540 771 1556 782 q 1469 692 1497 740 q 1411 586 1440 644 q 1358 480 1382 526 q 1314 397 1333 433 l 1449 400 q 1499 393 1499 400 q 1496 389 1499 392 q 1296 361 1472 374 q 1167 17 1167 110 q 1207 -47 1167 -47 q 1246 -28 1222 -47 q 1274 -10 1268 -10 q 1275 -8 1274 -7 q 1274 -10 1276 -10 q 1233 -55 1267 -35 q 1161 -75 1199 -75 q 1115 -53 1126 -75 q 1104 8 1104 -31 q 1211 365 1104 149 l 1044 361 q 671 42 858 179 q 213 -161 372 -175 m 1224 401 q 1290 517 1240 433 q 1425 736 1340 601 l 1069 403 l 1224 401 m 764 -193 q 744 -178 754 -193 q 735 -153 735 -164 q 775 -103 735 -132 q 817 -87 803 -86 q 824 -100 831 -89 l 801 -156 q 764 -193 785 -193 m 1590 994 q 1544 1009 1564 994 q 1525 1060 1525 1024 q 1526 1072 1525 1061 q 1531 1094 1526 1083 q 1546 1104 1536 1104 q 1556 1097 1553 1104 q 1561 1078 1558 1089 q 1574 1055 1565 1061 q 1607 1049 1582 1049 q 1651 1056 1631 1049 q 1703 1088 1672 1063 q 1726 1106 1710 1094 q 1742 1106 1742 1117 q 1726 1069 1742 1090 q 1666 1017 1704 1039 q 1590 994 1628 994 z "},"Ằ":{"ha":1417,"x_min":-1,"x_max":1742,"o":"m 213 -161 q -1 58 -1 -143 q 74 311 -1 178 q 185 468 118 392 q 333 606 253 544 q 497 704 413 668 q 658 740 581 740 q 796 639 796 740 q 754 488 796 571 q 669 382 713 404 q 660 381 665 381 q 656 383 656 381 l 701 458 q 749 594 749 536 q 726 674 749 636 q 647 711 704 711 q 505 672 578 711 q 364 569 432 633 q 240 428 296 506 q 151 276 185 351 q 81 18 81 117 q 232 -131 81 -131 q 624 56 376 -131 q 770 176 681 99 q 981 365 860 254 q 939 362 964 364 q 881 354 914 360 q 854 349 867 351 q 831 347 842 347 q 807 361 803 350 q 860 413 813 413 q 941 404 903 407 q 1014 401 979 401 q 1158 541 1068 451 q 1371 761 1247 631 q 1565 929 1531 929 q 1581 901 1581 929 q 1578 874 1581 890 q 1569 835 1575 857 q 1540 771 1556 782 q 1469 692 1497 740 q 1411 586 1440 644 q 1358 480 1382 526 q 1314 397 1333 433 l 1449 400 q 1499 393 1499 400 q 1496 389 1499 392 q 1296 361 1472 374 q 1167 17 1167 110 q 1207 -47 1167 -47 q 1246 -28 1222 -47 q 1274 -10 1268 -10 q 1275 -8 1274 -7 q 1274 -10 1276 -10 q 1233 -55 1267 -35 q 1161 -75 1199 -75 q 1115 -53 1126 -75 q 1104 8 1104 -31 q 1211 365 1104 149 l 1044 361 q 671 42 858 179 q 213 -161 372 -175 m 1224 401 q 1290 517 1240 433 q 1425 736 1340 601 l 1069 403 l 1224 401 m 1590 994 q 1544 1009 1564 994 q 1525 1060 1525 1024 q 1526 1072 1525 1061 q 1531 1094 1526 1083 q 1546 1104 1536 1104 q 1556 1097 1553 1104 q 1561 1078 1558 1089 q 1574 1055 1565 1061 q 1607 1049 1582 1049 q 1651 1056 1631 1049 q 1703 1088 1672 1063 q 1726 1106 1710 1094 q 1742 1106 1742 1117 q 1726 1069 1742 1090 q 1666 1017 1704 1039 q 1590 994 1628 994 m 1731 1129 q 1642 1140 1693 1129 q 1586 1154 1607 1147 q 1556 1165 1565 1161 q 1540 1174 1549 1168 q 1531 1189 1531 1179 q 1538 1212 1531 1200 q 1553 1224 1544 1224 q 1565 1222 1557 1224 q 1586 1214 1574 1221 q 1651 1183 1615 1200 q 1728 1150 1688 1167 q 1742 1138 1742 1144 q 1731 1129 1742 1129 z "},"Ẳ":{"ha":1417,"x_min":-1,"x_max":1742,"o":"m 213 -161 q -1 58 -1 -143 q 74 311 -1 178 q 185 468 118 392 q 333 606 253 544 q 497 704 413 668 q 658 740 581 740 q 796 639 796 740 q 754 488 796 571 q 669 382 713 404 q 660 381 665 381 q 656 383 656 381 l 701 458 q 749 594 749 536 q 726 674 749 636 q 647 711 704 711 q 505 672 578 711 q 364 569 432 633 q 240 428 296 506 q 151 276 185 351 q 81 18 81 117 q 232 -131 81 -131 q 624 56 376 -131 q 770 176 681 99 q 981 365 860 254 q 939 362 964 364 q 881 354 914 360 q 854 349 867 351 q 831 347 842 347 q 807 361 803 350 q 860 413 813 413 q 941 404 903 407 q 1014 401 979 401 q 1158 541 1068 451 q 1371 761 1247 631 q 1565 929 1531 929 q 1581 901 1581 929 q 1578 874 1581 890 q 1569 835 1575 857 q 1540 771 1556 782 q 1469 692 1497 740 q 1411 586 1440 644 q 1358 480 1382 526 q 1314 397 1333 433 l 1449 400 q 1499 393 1499 400 q 1496 389 1499 392 q 1296 361 1472 374 q 1167 17 1167 110 q 1207 -47 1167 -47 q 1246 -28 1222 -47 q 1274 -10 1268 -10 q 1275 -8 1274 -7 q 1274 -10 1276 -10 q 1233 -55 1267 -35 q 1161 -75 1199 -75 q 1115 -53 1126 -75 q 1104 8 1104 -31 q 1211 365 1104 149 l 1044 361 q 671 42 858 179 q 213 -161 372 -175 m 1224 401 q 1290 517 1240 433 q 1425 736 1340 601 l 1069 403 l 1224 401 m 1590 994 q 1544 1009 1564 994 q 1525 1060 1525 1024 q 1526 1072 1525 1061 q 1531 1094 1526 1083 q 1546 1104 1536 1104 q 1556 1097 1553 1104 q 1561 1078 1558 1089 q 1574 1055 1565 1061 q 1607 1049 1582 1049 q 1651 1056 1631 1049 q 1703 1088 1672 1063 q 1726 1106 1710 1094 q 1742 1106 1742 1117 q 1726 1069 1742 1090 q 1666 1017 1704 1039 q 1590 994 1628 994 m 1625 1089 q 1618 1093 1619 1089 q 1619 1099 1617 1097 q 1669 1134 1647 1118 q 1692 1172 1692 1150 q 1668 1193 1692 1193 q 1634 1185 1654 1193 q 1599 1161 1614 1176 q 1598 1160 1599 1161 q 1596 1160 1597 1160 q 1593 1163 1594 1160 q 1593 1168 1592 1165 q 1633 1217 1604 1200 q 1697 1231 1661 1233 q 1725 1216 1715 1229 q 1735 1188 1735 1203 q 1724 1151 1735 1167 q 1696 1125 1714 1136 q 1653 1099 1669 1108 q 1629 1089 1636 1089 l 1625 1089 z "},"Ẵ":{"ha":1417,"x_min":-1,"x_max":1742,"o":"m 213 -161 q -1 58 -1 -143 q 74 311 -1 178 q 185 468 118 392 q 333 606 253 544 q 497 704 413 668 q 658 740 581 740 q 796 639 796 740 q 754 488 796 571 q 669 382 713 404 q 660 381 665 381 q 656 383 656 381 l 701 458 q 749 594 749 536 q 726 674 749 636 q 647 711 704 711 q 505 672 578 711 q 364 569 432 633 q 240 428 296 506 q 151 276 185 351 q 81 18 81 117 q 232 -131 81 -131 q 624 56 376 -131 q 770 176 681 99 q 981 365 860 254 q 939 362 964 364 q 881 354 914 360 q 854 349 867 351 q 831 347 842 347 q 807 361 803 350 q 860 413 813 413 q 941 404 903 407 q 1014 401 979 401 q 1158 541 1068 451 q 1371 761 1247 631 q 1565 929 1531 929 q 1581 901 1581 929 q 1578 874 1581 890 q 1569 835 1575 857 q 1540 771 1556 782 q 1469 692 1497 740 q 1411 586 1440 644 q 1358 480 1382 526 q 1314 397 1333 433 l 1449 400 q 1499 393 1499 400 q 1496 389 1499 392 q 1296 361 1472 374 q 1167 17 1167 110 q 1207 -47 1167 -47 q 1246 -28 1222 -47 q 1274 -10 1268 -10 q 1275 -8 1274 -7 q 1274 -10 1276 -10 q 1233 -55 1267 -35 q 1161 -75 1199 -75 q 1115 -53 1126 -75 q 1104 8 1104 -31 q 1211 365 1104 149 l 1044 361 q 671 42 858 179 q 213 -161 372 -175 m 1224 401 q 1290 517 1240 433 q 1425 736 1340 601 l 1069 403 l 1224 401 m 1590 994 q 1544 1009 1564 994 q 1525 1060 1525 1024 q 1526 1072 1525 1061 q 1531 1094 1526 1083 q 1546 1104 1536 1104 q 1556 1097 1553 1104 q 1561 1078 1558 1089 q 1574 1055 1565 1061 q 1607 1049 1582 1049 q 1651 1056 1631 1049 q 1703 1088 1672 1063 q 1726 1106 1710 1094 q 1742 1106 1742 1117 q 1726 1069 1742 1090 q 1666 1017 1704 1039 q 1590 994 1628 994 m 1618 1122 q 1590 1127 1607 1122 q 1551 1142 1574 1132 q 1489 1163 1510 1163 q 1467 1158 1479 1163 q 1444 1143 1456 1154 q 1417 1124 1425 1124 q 1415 1126 1415 1125 q 1472 1189 1415 1150 q 1519 1204 1492 1204 q 1582 1188 1540 1204 q 1618 1176 1603 1179 q 1643 1172 1633 1172 q 1699 1204 1674 1172 q 1706 1199 1706 1204 q 1654 1135 1706 1174 q 1618 1122 1638 1122 z "},"Ǎ":{"ha":1417,"x_min":-1,"x_max":1772,"o":"m 213 -161 q -1 58 -1 -143 q 74 311 -1 178 q 185 468 118 392 q 333 606 253 544 q 497 704 413 668 q 658 740 581 740 q 796 639 796 740 q 754 488 796 571 q 669 382 713 404 q 660 381 665 381 q 656 383 656 381 l 701 458 q 749 594 749 536 q 726 674 749 636 q 647 711 704 711 q 505 672 578 711 q 364 569 432 633 q 240 428 296 506 q 151 276 185 351 q 81 18 81 117 q 232 -131 81 -131 q 624 56 376 -131 q 770 176 681 99 q 981 365 860 254 q 939 362 964 364 q 881 354 914 360 q 854 349 867 351 q 831 347 842 347 q 807 361 803 350 q 860 413 813 413 q 941 404 903 407 q 1014 401 979 401 q 1158 541 1068 451 q 1371 761 1247 631 q 1565 929 1531 929 q 1581 901 1581 929 q 1578 874 1581 890 q 1569 835 1575 857 q 1540 771 1556 782 q 1469 692 1497 740 q 1411 586 1440 644 q 1358 480 1382 526 q 1314 397 1333 433 l 1449 400 q 1499 393 1499 400 q 1496 389 1499 392 q 1296 361 1472 374 q 1167 17 1167 110 q 1207 -47 1167 -47 q 1246 -28 1222 -47 q 1274 -10 1268 -10 q 1275 -8 1274 -7 q 1274 -10 1276 -10 q 1233 -55 1267 -35 q 1161 -75 1199 -75 q 1115 -53 1126 -75 q 1104 8 1104 -31 q 1211 365 1104 149 l 1044 361 q 671 42 858 179 q 213 -161 372 -175 m 1224 401 q 1290 517 1240 433 q 1425 736 1340 601 l 1069 403 l 1224 401 m 1525 1117 q 1541 1103 1532 1117 q 1565 1068 1550 1089 q 1575 1052 1572 1061 q 1582 1035 1578 1043 q 1642 1066 1606 1046 q 1700 1096 1678 1086 q 1730 1109 1711 1101 q 1758 1117 1749 1117 q 1772 1108 1772 1117 q 1763 1093 1772 1103 q 1746 1078 1754 1083 q 1676 1043 1715 1064 q 1606 1006 1638 1022 q 1564 990 1574 990 q 1535 1007 1547 990 q 1513 1047 1524 1024 q 1507 1066 1510 1057 q 1504 1085 1504 1075 q 1525 1117 1504 1117 z "},"Â":{"ha":1417,"x_min":-1,"x_max":1749,"o":"m 213 -161 q -1 58 -1 -143 q 74 311 -1 178 q 185 468 118 392 q 333 606 253 544 q 497 704 413 668 q 658 740 581 740 q 796 639 796 740 q 754 488 796 571 q 669 382 713 404 q 660 381 665 381 q 656 383 656 381 l 701 458 q 749 594 749 536 q 726 674 749 636 q 647 711 704 711 q 505 672 578 711 q 364 569 432 633 q 240 428 296 506 q 151 276 185 351 q 81 18 81 117 q 232 -131 81 -131 q 624 56 376 -131 q 770 176 681 99 q 981 365 860 254 q 939 362 964 364 q 881 354 914 360 q 854 349 867 351 q 831 347 842 347 q 807 361 803 350 q 860 413 813 413 q 941 404 903 407 q 1014 401 979 401 q 1158 541 1068 451 q 1371 761 1247 631 q 1565 929 1531 929 q 1581 901 1581 929 q 1578 874 1581 890 q 1569 835 1575 857 q 1540 771 1556 782 q 1469 692 1497 740 q 1411 586 1440 644 q 1358 480 1382 526 q 1314 397 1333 433 l 1449 400 q 1499 393 1499 400 q 1496 389 1499 392 q 1296 361 1472 374 q 1167 17 1167 110 q 1207 -47 1167 -47 q 1246 -28 1222 -47 q 1274 -10 1268 -10 q 1275 -8 1274 -7 q 1274 -10 1276 -10 q 1233 -55 1267 -35 q 1161 -75 1199 -75 q 1115 -53 1126 -75 q 1104 8 1104 -31 q 1211 365 1104 149 l 1044 361 q 671 42 858 179 q 213 -161 372 -175 m 1224 401 q 1290 517 1240 433 q 1425 736 1340 601 l 1069 403 l 1224 401 m 1504 971 q 1499 979 1501 971 q 1501 990 1496 988 q 1525 1008 1508 996 q 1564 1035 1542 1019 q 1616 1069 1596 1054 q 1650 1083 1636 1083 q 1671 1075 1663 1083 q 1689 1056 1679 1067 q 1709 1035 1700 1044 q 1728 1017 1718 1026 q 1742 1001 1735 1010 q 1749 985 1749 993 q 1742 973 1749 979 q 1722 965 1736 967 q 1703 972 1713 965 q 1683 989 1694 979 q 1660 1014 1672 1000 q 1638 1039 1647 1028 q 1574 1004 1617 1028 q 1533 981 1550 990 q 1504 971 1515 971 z "},"Ấ":{"ha":1417,"x_min":-1,"x_max":1763,"o":"m 213 -161 q -1 58 -1 -143 q 74 311 -1 178 q 185 468 118 392 q 333 606 253 544 q 497 704 413 668 q 658 740 581 740 q 796 639 796 740 q 754 488 796 571 q 669 382 713 404 q 660 381 665 381 q 656 383 656 381 l 701 458 q 749 594 749 536 q 726 674 749 636 q 647 711 704 711 q 505 672 578 711 q 364 569 432 633 q 240 428 296 506 q 151 276 185 351 q 81 18 81 117 q 232 -131 81 -131 q 624 56 376 -131 q 770 176 681 99 q 981 365 860 254 q 939 362 964 364 q 881 354 914 360 q 854 349 867 351 q 831 347 842 347 q 807 361 803 350 q 860 413 813 413 q 941 404 903 407 q 1014 401 979 401 q 1158 541 1068 451 q 1371 761 1247 631 q 1565 929 1531 929 q 1581 901 1581 929 q 1578 874 1581 890 q 1569 835 1575 857 q 1540 771 1556 782 q 1469 692 1497 740 q 1411 586 1440 644 q 1358 480 1382 526 q 1314 397 1333 433 l 1449 400 q 1499 393 1499 400 q 1496 389 1499 392 q 1296 361 1472 374 q 1167 17 1167 110 q 1207 -47 1167 -47 q 1246 -28 1222 -47 q 1274 -10 1268 -10 q 1275 -8 1274 -7 q 1274 -10 1276 -10 q 1233 -55 1267 -35 q 1161 -75 1199 -75 q 1115 -53 1126 -75 q 1104 8 1104 -31 q 1211 365 1104 149 l 1044 361 q 671 42 858 179 q 213 -161 372 -175 m 1224 401 q 1290 517 1240 433 q 1425 736 1340 601 l 1069 403 l 1224 401 m 1504 971 q 1499 979 1501 971 q 1501 990 1496 988 q 1525 1008 1508 996 q 1564 1035 1542 1019 q 1616 1069 1596 1054 q 1650 1083 1636 1083 q 1671 1075 1663 1083 q 1689 1056 1679 1067 q 1709 1035 1700 1044 q 1728 1017 1718 1026 q 1742 1001 1735 1010 q 1749 985 1749 993 q 1742 973 1749 979 q 1722 965 1736 967 q 1703 972 1713 965 q 1683 989 1694 979 q 1660 1014 1672 1000 q 1638 1039 1647 1028 q 1574 1004 1617 1028 q 1533 981 1550 990 q 1504 971 1515 971 m 1563 1111 q 1551 1119 1551 1111 q 1565 1132 1551 1126 q 1642 1165 1606 1149 q 1707 1196 1678 1182 q 1728 1204 1719 1203 q 1740 1206 1736 1206 q 1756 1194 1749 1206 q 1763 1171 1763 1182 q 1753 1156 1763 1161 q 1738 1147 1744 1150 q 1707 1136 1728 1143 q 1651 1122 1686 1129 q 1563 1111 1600 1111 z "},"Ậ":{"ha":1417,"x_min":-1,"x_max":1749,"o":"m 213 -161 q -1 58 -1 -143 q 74 311 -1 178 q 185 468 118 392 q 333 606 253 544 q 497 704 413 668 q 658 740 581 740 q 796 639 796 740 q 754 488 796 571 q 669 382 713 404 q 660 381 665 381 q 656 383 656 381 l 701 458 q 749 594 749 536 q 726 674 749 636 q 647 711 704 711 q 505 672 578 711 q 364 569 432 633 q 240 428 296 506 q 151 276 185 351 q 81 18 81 117 q 232 -131 81 -131 q 624 56 376 -131 q 770 176 681 99 q 981 365 860 254 q 939 362 964 364 q 881 354 914 360 q 854 349 867 351 q 831 347 842 347 q 807 361 803 350 q 860 413 813 413 q 941 404 903 407 q 1014 401 979 401 q 1158 541 1068 451 q 1371 761 1247 631 q 1565 929 1531 929 q 1581 901 1581 929 q 1578 874 1581 890 q 1569 835 1575 857 q 1540 771 1556 782 q 1469 692 1497 740 q 1411 586 1440 644 q 1358 480 1382 526 q 1314 397 1333 433 l 1449 400 q 1499 393 1499 400 q 1496 389 1499 392 q 1296 361 1472 374 q 1167 17 1167 110 q 1207 -47 1167 -47 q 1246 -28 1222 -47 q 1274 -10 1268 -10 q 1275 -8 1274 -7 q 1274 -10 1276 -10 q 1233 -55 1267 -35 q 1161 -75 1199 -75 q 1115 -53 1126 -75 q 1104 8 1104 -31 q 1211 365 1104 149 l 1044 361 q 671 42 858 179 q 213 -161 372 -175 m 1224 401 q 1290 517 1240 433 q 1425 736 1340 601 l 1069 403 l 1224 401 m 764 -193 q 744 -178 754 -193 q 735 -153 735 -164 q 775 -103 735 -132 q 817 -87 803 -86 q 824 -100 831 -89 l 801 -156 q 764 -193 785 -193 m 1504 971 q 1499 979 1501 971 q 1501 990 1496 988 q 1525 1008 1508 996 q 1564 1035 1542 1019 q 1616 1069 1596 1054 q 1650 1083 1636 1083 q 1671 1075 1663 1083 q 1689 1056 1679 1067 q 1709 1035 1700 1044 q 1728 1017 1718 1026 q 1742 1001 1735 1010 q 1749 985 1749 993 q 1742 973 1749 979 q 1722 965 1736 967 q 1703 972 1713 965 q 1683 989 1694 979 q 1660 1014 1672 1000 q 1638 1039 1647 1028 q 1574 1004 1617 1028 q 1533 981 1550 990 q 1504 971 1515 971 z "},"Ầ":{"ha":1417,"x_min":-1,"x_max":1779,"o":"m 213 -161 q -1 58 -1 -143 q 74 311 -1 178 q 185 468 118 392 q 333 606 253 544 q 497 704 413 668 q 658 740 581 740 q 796 639 796 740 q 754 488 796 571 q 669 382 713 404 q 660 381 665 381 q 656 383 656 381 l 701 458 q 749 594 749 536 q 726 674 749 636 q 647 711 704 711 q 505 672 578 711 q 364 569 432 633 q 240 428 296 506 q 151 276 185 351 q 81 18 81 117 q 232 -131 81 -131 q 624 56 376 -131 q 770 176 681 99 q 981 365 860 254 q 939 362 964 364 q 881 354 914 360 q 854 349 867 351 q 831 347 842 347 q 807 361 803 350 q 860 413 813 413 q 941 404 903 407 q 1014 401 979 401 q 1158 541 1068 451 q 1371 761 1247 631 q 1565 929 1531 929 q 1581 901 1581 929 q 1578 874 1581 890 q 1569 835 1575 857 q 1540 771 1556 782 q 1469 692 1497 740 q 1411 586 1440 644 q 1358 480 1382 526 q 1314 397 1333 433 l 1449 400 q 1499 393 1499 400 q 1496 389 1499 392 q 1296 361 1472 374 q 1167 17 1167 110 q 1207 -47 1167 -47 q 1246 -28 1222 -47 q 1274 -10 1268 -10 q 1275 -8 1274 -7 q 1274 -10 1276 -10 q 1233 -55 1267 -35 q 1161 -75 1199 -75 q 1115 -53 1126 -75 q 1104 8 1104 -31 q 1211 365 1104 149 l 1044 361 q 671 42 858 179 q 213 -161 372 -175 m 1224 401 q 1290 517 1240 433 q 1425 736 1340 601 l 1069 403 l 1224 401 m 1504 971 q 1499 979 1501 971 q 1501 990 1496 988 q 1525 1008 1508 996 q 1564 1035 1542 1019 q 1616 1069 1596 1054 q 1650 1083 1636 1083 q 1671 1075 1663 1083 q 1689 1056 1679 1067 q 1709 1035 1700 1044 q 1728 1017 1718 1026 q 1742 1001 1735 1010 q 1749 985 1749 993 q 1742 973 1749 979 q 1722 965 1736 967 q 1703 972 1713 965 q 1683 989 1694 979 q 1660 1014 1672 1000 q 1638 1039 1647 1028 q 1574 1004 1617 1028 q 1533 981 1550 990 q 1504 971 1515 971 m 1768 1122 q 1679 1133 1731 1122 q 1624 1147 1644 1140 q 1593 1158 1603 1154 q 1577 1167 1586 1161 q 1568 1182 1568 1172 q 1575 1205 1568 1193 q 1590 1217 1582 1217 q 1603 1215 1594 1217 q 1624 1207 1611 1214 q 1689 1176 1653 1193 q 1765 1143 1725 1160 q 1779 1131 1779 1138 q 1768 1122 1779 1122 z "},"Ẩ":{"ha":1417,"x_min":-1,"x_max":1929,"o":"m 213 -161 q -1 58 -1 -143 q 74 311 -1 178 q 185 468 118 392 q 333 606 253 544 q 497 704 413 668 q 658 740 581 740 q 796 639 796 740 q 754 488 796 571 q 669 382 713 404 q 660 381 665 381 q 656 383 656 381 l 701 458 q 749 594 749 536 q 726 674 749 636 q 647 711 704 711 q 505 672 578 711 q 364 569 432 633 q 240 428 296 506 q 151 276 185 351 q 81 18 81 117 q 232 -131 81 -131 q 624 56 376 -131 q 770 176 681 99 q 981 365 860 254 q 939 362 964 364 q 881 354 914 360 q 854 349 867 351 q 831 347 842 347 q 807 361 803 350 q 860 413 813 413 q 941 404 903 407 q 1014 401 979 401 q 1158 541 1068 451 q 1371 761 1247 631 q 1565 929 1531 929 q 1581 901 1581 929 q 1578 874 1581 890 q 1569 835 1575 857 q 1540 771 1556 782 q 1469 692 1497 740 q 1411 586 1440 644 q 1358 480 1382 526 q 1314 397 1333 433 l 1449 400 q 1499 393 1499 400 q 1496 389 1499 392 q 1296 361 1472 374 q 1167 17 1167 110 q 1207 -47 1167 -47 q 1246 -28 1222 -47 q 1274 -10 1268 -10 q 1275 -8 1274 -7 q 1274 -10 1276 -10 q 1233 -55 1267 -35 q 1161 -75 1199 -75 q 1115 -53 1126 -75 q 1104 8 1104 -31 q 1211 365 1104 149 l 1044 361 q 671 42 858 179 q 213 -161 372 -175 m 1224 401 q 1290 517 1240 433 q 1425 736 1340 601 l 1069 403 l 1224 401 m 1504 971 q 1499 979 1501 971 q 1501 990 1496 988 q 1525 1008 1508 996 q 1564 1035 1542 1019 q 1616 1069 1596 1054 q 1650 1083 1636 1083 q 1671 1075 1663 1083 q 1689 1056 1679 1067 q 1709 1035 1700 1044 q 1728 1017 1718 1026 q 1742 1001 1735 1010 q 1749 985 1749 993 q 1742 973 1749 979 q 1722 965 1736 967 q 1703 972 1713 965 q 1683 989 1694 979 q 1660 1014 1672 1000 q 1638 1039 1647 1028 q 1574 1004 1617 1028 q 1533 981 1550 990 q 1504 971 1515 971 m 1819 1069 q 1813 1074 1814 1069 q 1814 1079 1811 1078 q 1864 1115 1842 1099 q 1886 1153 1886 1131 q 1863 1174 1886 1174 q 1828 1165 1849 1174 q 1793 1142 1808 1157 q 1792 1141 1793 1142 q 1790 1140 1792 1140 q 1788 1143 1789 1140 q 1788 1149 1786 1146 q 1827 1197 1799 1181 q 1892 1211 1856 1214 q 1919 1197 1910 1210 q 1929 1168 1929 1183 q 1919 1132 1929 1147 q 1890 1106 1908 1117 q 1847 1079 1864 1089 q 1824 1069 1831 1069 l 1819 1069 z "},"Ẫ":{"ha":1417,"x_min":-1,"x_max":1821,"o":"m 213 -161 q -1 58 -1 -143 q 74 311 -1 178 q 185 468 118 392 q 333 606 253 544 q 497 704 413 668 q 658 740 581 740 q 796 639 796 740 q 754 488 796 571 q 669 382 713 404 q 660 381 665 381 q 656 383 656 381 l 701 458 q 749 594 749 536 q 726 674 749 636 q 647 711 704 711 q 505 672 578 711 q 364 569 432 633 q 240 428 296 506 q 151 276 185 351 q 81 18 81 117 q 232 -131 81 -131 q 624 56 376 -131 q 770 176 681 99 q 981 365 860 254 q 939 362 964 364 q 881 354 914 360 q 854 349 867 351 q 831 347 842 347 q 807 361 803 350 q 860 413 813 413 q 941 404 903 407 q 1014 401 979 401 q 1158 541 1068 451 q 1371 761 1247 631 q 1565 929 1531 929 q 1581 901 1581 929 q 1578 874 1581 890 q 1569 835 1575 857 q 1540 771 1556 782 q 1469 692 1497 740 q 1411 586 1440 644 q 1358 480 1382 526 q 1314 397 1333 433 l 1449 400 q 1499 393 1499 400 q 1496 389 1499 392 q 1296 361 1472 374 q 1167 17 1167 110 q 1207 -47 1167 -47 q 1246 -28 1222 -47 q 1274 -10 1268 -10 q 1275 -8 1274 -7 q 1274 -10 1276 -10 q 1233 -55 1267 -35 q 1161 -75 1199 -75 q 1115 -53 1126 -75 q 1104 8 1104 -31 q 1211 365 1104 149 l 1044 361 q 671 42 858 179 q 213 -161 372 -175 m 1224 401 q 1290 517 1240 433 q 1425 736 1340 601 l 1069 403 l 1224 401 m 1504 971 q 1499 979 1501 971 q 1501 990 1496 988 q 1525 1008 1508 996 q 1564 1035 1542 1019 q 1616 1069 1596 1054 q 1650 1083 1636 1083 q 1671 1075 1663 1083 q 1689 1056 1679 1067 q 1709 1035 1700 1044 q 1728 1017 1718 1026 q 1742 1001 1735 1010 q 1749 985 1749 993 q 1742 973 1749 979 q 1722 965 1736 967 q 1703 972 1713 965 q 1683 989 1694 979 q 1660 1014 1672 1000 q 1638 1039 1647 1028 q 1574 1004 1617 1028 q 1533 981 1550 990 q 1504 971 1515 971 m 1733 1114 q 1706 1119 1722 1114 q 1667 1133 1689 1124 q 1604 1154 1625 1154 q 1583 1150 1594 1154 q 1560 1135 1571 1146 q 1532 1115 1540 1115 q 1531 1118 1531 1117 q 1588 1181 1531 1142 q 1635 1196 1607 1196 q 1697 1179 1656 1196 q 1733 1167 1718 1171 q 1758 1164 1749 1164 q 1814 1196 1789 1164 q 1821 1190 1821 1196 q 1769 1126 1821 1165 q 1733 1114 1753 1114 z "},"Ȁ":{"ha":1417,"x_min":-1,"x_max":1740,"o":"m 213 -161 q -1 58 -1 -143 q 74 311 -1 178 q 185 468 118 392 q 333 606 253 544 q 497 704 413 668 q 658 740 581 740 q 796 639 796 740 q 754 488 796 571 q 669 382 713 404 q 660 381 665 381 q 656 383 656 381 l 701 458 q 749 594 749 536 q 726 674 749 636 q 647 711 704 711 q 505 672 578 711 q 364 569 432 633 q 240 428 296 506 q 151 276 185 351 q 81 18 81 117 q 232 -131 81 -131 q 624 56 376 -131 q 770 176 681 99 q 981 365 860 254 q 939 362 964 364 q 881 354 914 360 q 854 349 867 351 q 831 347 842 347 q 807 361 803 350 q 860 413 813 413 q 941 404 903 407 q 1014 401 979 401 q 1158 541 1068 451 q 1371 761 1247 631 q 1565 929 1531 929 q 1581 901 1581 929 q 1578 874 1581 890 q 1569 835 1575 857 q 1540 771 1556 782 q 1469 692 1497 740 q 1411 586 1440 644 q 1358 480 1382 526 q 1314 397 1333 433 l 1449 400 q 1499 393 1499 400 q 1496 389 1499 392 q 1296 361 1472 374 q 1167 17 1167 110 q 1207 -47 1167 -47 q 1246 -28 1222 -47 q 1274 -10 1268 -10 q 1275 -8 1274 -7 q 1274 -10 1276 -10 q 1233 -55 1267 -35 q 1161 -75 1199 -75 q 1115 -53 1126 -75 q 1104 8 1104 -31 q 1211 365 1104 149 l 1044 361 q 671 42 858 179 q 213 -161 372 -175 m 1224 401 q 1290 517 1240 433 q 1425 736 1340 601 l 1069 403 l 1224 401 m 1729 983 q 1702 997 1721 986 q 1649 1032 1683 1008 q 1605 1068 1621 1053 q 1582 1093 1589 1083 q 1573 1106 1578 1099 q 1569 1121 1568 1114 q 1583 1140 1571 1131 q 1601 1147 1596 1149 q 1622 1131 1610 1146 l 1736 1000 q 1740 990 1740 997 q 1729 983 1738 979 m 1590 983 q 1561 993 1582 986 q 1503 1018 1540 1000 q 1453 1046 1472 1033 q 1426 1065 1433 1058 q 1415 1077 1421 1071 q 1408 1092 1408 1083 q 1419 1112 1408 1101 q 1436 1122 1431 1122 q 1460 1110 1446 1122 l 1594 1001 q 1600 992 1600 997 q 1590 983 1600 981 z "},"Ä":{"ha":1417,"x_min":-1,"x_max":1768,"o":"m 1521 1024 q 1501 1038 1511 1024 q 1492 1064 1492 1053 q 1532 1114 1492 1085 q 1596 1143 1574 1143 q 1598 1142 1597 1143 q 1600 1142 1599 1142 q 1581 1117 1599 1142 l 1558 1061 q 1521 1024 1542 1024 m 1689 1024 q 1669 1038 1679 1024 q 1660 1064 1660 1053 q 1700 1114 1660 1085 q 1764 1143 1742 1143 q 1766 1142 1765 1143 q 1768 1142 1767 1142 q 1749 1117 1767 1142 l 1726 1061 q 1689 1024 1710 1024 m 213 -161 q -1 58 -1 -143 q 74 311 -1 178 q 349 617 174 489 q 658 740 521 740 q 796 639 796 740 q 754 488 796 571 q 669 382 713 404 q 660 381 665 381 q 656 383 656 381 l 701 458 q 749 594 749 532 q 726 674 749 636 q 647 711 704 711 q 394 596 539 711 q 151 276 238 469 q 81 18 81 117 q 232 -131 81 -131 q 624 56 376 -131 q 770 176 681 99 q 981 365 860 254 q 939 362 964 364 q 881 354 914 360 q 854 349 867 351 q 831 347 842 347 q 807 361 803 350 q 860 413 813 413 q 941 404 903 407 q 1014 401 979 401 q 1158 541 1068 451 q 1371 761 1247 631 q 1565 929 1531 929 q 1581 901 1581 929 q 1578 874 1581 890 q 1569 835 1575 857 q 1540 771 1556 782 q 1472 700 1508 749 q 1411 586 1453 672 q 1358 480 1382 526 q 1314 397 1333 433 l 1449 400 q 1499 393 1499 400 q 1496 389 1499 392 q 1296 361 1472 374 q 1167 17 1167 110 q 1207 -47 1167 -47 q 1246 -28 1222 -47 q 1274 -10 1268 -10 q 1278 -17 1278 -10 q 1235 -58 1271 -42 q 1161 -75 1199 -75 q 1149 -74 1156 -75 q 1138 -72 1143 -74 q 1104 8 1104 -60 q 1211 365 1104 149 q 1174 365 1197 365 q 1119 363 1151 364 q 1069 361 1088 361 q 1044 361 1050 361 q 671 42 858 179 q 213 -161 372 -175 m 1224 401 q 1290 517 1240 433 q 1425 736 1340 601 l 1069 403 l 1151 403 q 1192 401 1174 401 q 1224 401 1210 401 z "},"Ạ":{"ha":1417,"x_min":-1,"x_max":1581,"o":"m 213 -161 q -1 58 -1 -143 q 74 311 -1 178 q 185 468 118 392 q 333 606 253 544 q 497 704 413 668 q 658 740 581 740 q 796 639 796 740 q 754 488 796 571 q 669 382 713 404 q 660 381 665 381 q 656 383 656 381 l 701 458 q 749 594 749 536 q 726 674 749 636 q 647 711 704 711 q 505 672 578 711 q 364 569 432 633 q 240 428 296 506 q 151 276 185 351 q 81 18 81 117 q 232 -131 81 -131 q 624 56 376 -131 q 770 176 681 99 q 981 365 860 254 q 939 362 964 364 q 881 354 914 360 q 854 349 867 351 q 831 347 842 347 q 807 361 803 350 q 860 413 813 413 q 941 404 903 407 q 1014 401 979 401 q 1158 541 1068 451 q 1371 761 1247 631 q 1565 929 1531 929 q 1581 901 1581 929 q 1578 874 1581 890 q 1569 835 1575 857 q 1540 771 1556 782 q 1469 692 1497 740 q 1411 586 1440 644 q 1358 480 1382 526 q 1314 397 1333 433 l 1449 400 q 1499 393 1499 400 q 1496 389 1499 392 q 1296 361 1472 374 q 1167 17 1167 110 q 1207 -47 1167 -47 q 1246 -28 1222 -47 q 1274 -10 1268 -10 q 1275 -8 1274 -7 q 1274 -10 1276 -10 q 1233 -55 1267 -35 q 1161 -75 1199 -75 q 1115 -53 1126 -75 q 1104 8 1104 -31 q 1211 365 1104 149 l 1044 361 q 671 42 858 179 q 213 -161 372 -175 m 1224 401 q 1290 517 1240 433 q 1425 736 1340 601 l 1069 403 l 1224 401 m 764 -193 q 744 -178 754 -193 q 735 -153 735 -164 q 775 -103 735 -132 q 817 -87 803 -86 q 824 -100 831 -89 l 801 -156 q 764 -193 785 -193 z "},"À":{"ha":1417,"x_min":-1,"x_max":1694,"o":"m 213 -161 q -1 58 -1 -143 q 74 311 -1 178 q 185 468 118 392 q 333 606 253 544 q 497 704 413 668 q 658 740 581 740 q 796 639 796 740 q 754 488 796 571 q 669 382 713 404 q 660 381 665 381 q 656 383 656 381 l 701 458 q 749 594 749 536 q 726 674 749 636 q 647 711 704 711 q 505 672 578 711 q 364 569 432 633 q 240 428 296 506 q 151 276 185 351 q 81 18 81 117 q 232 -131 81 -131 q 624 56 376 -131 q 770 176 681 99 q 981 365 860 254 q 939 362 964 364 q 881 354 914 360 q 854 349 867 351 q 831 347 842 347 q 807 361 803 350 q 860 413 813 413 q 941 404 903 407 q 1014 401 979 401 q 1158 541 1068 451 q 1371 761 1247 631 q 1565 929 1531 929 q 1581 901 1581 929 q 1578 874 1581 890 q 1569 835 1575 857 q 1540 771 1556 782 q 1469 692 1497 740 q 1411 586 1440 644 q 1358 480 1382 526 q 1314 397 1333 433 l 1449 400 q 1499 393 1499 400 q 1496 389 1499 392 q 1296 361 1472 374 q 1167 17 1167 110 q 1207 -47 1167 -47 q 1246 -28 1222 -47 q 1274 -10 1268 -10 q 1275 -8 1274 -7 q 1274 -10 1276 -10 q 1233 -55 1267 -35 q 1161 -75 1199 -75 q 1115 -53 1126 -75 q 1104 8 1104 -31 q 1211 365 1104 149 l 1044 361 q 671 42 858 179 q 213 -161 372 -175 m 1224 401 q 1290 517 1240 433 q 1425 736 1340 601 l 1069 403 l 1224 401 m 1683 990 q 1594 1001 1646 990 q 1539 1015 1560 1008 q 1508 1026 1518 1022 q 1492 1035 1501 1029 q 1483 1050 1483 1040 q 1490 1073 1483 1061 q 1506 1085 1497 1085 q 1518 1083 1510 1085 q 1539 1075 1526 1082 q 1604 1044 1568 1061 q 1681 1011 1640 1028 q 1694 999 1694 1006 q 1683 990 1694 990 z "},"Ả":{"ha":1417,"x_min":-1,"x_max":1688,"o":"m 213 -161 q -1 58 -1 -143 q 74 311 -1 178 q 185 468 118 392 q 333 606 253 544 q 497 704 413 668 q 658 740 581 740 q 796 639 796 740 q 754 488 796 571 q 669 382 713 404 q 660 381 665 381 q 656 383 656 381 l 701 458 q 749 594 749 536 q 726 674 749 636 q 647 711 704 711 q 505 672 578 711 q 364 569 432 633 q 240 428 296 506 q 151 276 185 351 q 81 18 81 117 q 232 -131 81 -131 q 624 56 376 -131 q 770 176 681 99 q 981 365 860 254 q 939 362 964 364 q 881 354 914 360 q 854 349 867 351 q 831 347 842 347 q 807 361 803 350 q 860 413 813 413 q 941 404 903 407 q 1014 401 979 401 q 1158 541 1068 451 q 1371 761 1247 631 q 1565 929 1531 929 q 1581 901 1581 929 q 1578 874 1581 890 q 1569 835 1575 857 q 1540 771 1556 782 q 1469 692 1497 740 q 1411 586 1440 644 q 1358 480 1382 526 q 1314 397 1333 433 l 1449 400 q 1499 393 1499 400 q 1496 389 1499 392 q 1296 361 1472 374 q 1167 17 1167 110 q 1207 -47 1167 -47 q 1246 -28 1222 -47 q 1274 -10 1268 -10 q 1275 -8 1274 -7 q 1274 -10 1276 -10 q 1233 -55 1267 -35 q 1161 -75 1199 -75 q 1115 -53 1126 -75 q 1104 8 1104 -31 q 1211 365 1104 149 l 1044 361 q 671 42 858 179 q 213 -161 372 -175 m 1224 401 q 1290 517 1240 433 q 1425 736 1340 601 l 1069 403 l 1224 401 m 1578 988 q 1571 992 1572 988 q 1572 997 1569 996 q 1622 1033 1600 1017 q 1644 1071 1644 1049 q 1621 1092 1644 1092 q 1587 1083 1607 1092 q 1551 1060 1567 1075 q 1551 1059 1551 1060 q 1549 1058 1550 1058 q 1546 1061 1547 1058 q 1546 1067 1544 1064 q 1585 1115 1557 1099 q 1650 1129 1614 1132 q 1678 1115 1668 1128 q 1688 1086 1688 1101 q 1677 1050 1688 1065 q 1649 1024 1667 1035 q 1606 997 1622 1007 q 1582 988 1589 988 l 1578 988 z "},"Ȃ":{"ha":1417,"x_min":-1,"x_max":1774,"o":"m 213 -161 q -1 58 -1 -143 q 74 311 -1 178 q 185 468 118 392 q 333 606 253 544 q 497 704 413 668 q 658 740 581 740 q 796 639 796 740 q 754 488 796 571 q 669 382 713 404 q 660 381 665 381 q 656 383 656 381 l 701 458 q 749 594 749 536 q 726 674 749 636 q 647 711 704 711 q 505 672 578 711 q 364 569 432 633 q 240 428 296 506 q 151 276 185 351 q 81 18 81 117 q 232 -131 81 -131 q 624 56 376 -131 q 770 176 681 99 q 981 365 860 254 q 939 362 964 364 q 881 354 914 360 q 854 349 867 351 q 831 347 842 347 q 807 361 803 350 q 860 413 813 413 q 941 404 903 407 q 1014 401 979 401 q 1158 541 1068 451 q 1371 761 1247 631 q 1565 929 1531 929 q 1581 901 1581 929 q 1578 874 1581 890 q 1569 835 1575 857 q 1540 771 1556 782 q 1469 692 1497 740 q 1411 586 1440 644 q 1358 480 1382 526 q 1314 397 1333 433 l 1449 400 q 1499 393 1499 400 q 1496 389 1499 392 q 1296 361 1472 374 q 1167 17 1167 110 q 1207 -47 1167 -47 q 1246 -28 1222 -47 q 1274 -10 1268 -10 q 1275 -8 1274 -7 q 1274 -10 1276 -10 q 1233 -55 1267 -35 q 1161 -75 1199 -75 q 1115 -53 1126 -75 q 1104 8 1104 -31 q 1211 365 1104 149 l 1044 361 q 671 42 858 179 q 213 -161 372 -175 m 1224 401 q 1290 517 1240 433 q 1425 736 1340 601 l 1069 403 l 1224 401 m 1696 1150 q 1755 1127 1736 1150 q 1771 1065 1774 1104 q 1764 1031 1769 1049 q 1744 1014 1758 1014 q 1732 1023 1735 1014 q 1729 1040 1729 1032 q 1671 1096 1725 1096 q 1597 1081 1635 1096 q 1526 1038 1560 1065 q 1489 1014 1497 1014 q 1482 1019 1482 1014 q 1490 1033 1482 1022 q 1521 1065 1499 1043 q 1601 1124 1554 1099 q 1696 1150 1647 1150 z "},"Ā":{"ha":1417,"x_min":-1,"x_max":1746,"o":"m 213 -161 q -1 58 -1 -143 q 74 311 -1 178 q 185 468 118 392 q 333 606 253 544 q 497 704 413 668 q 658 740 581 740 q 796 639 796 740 q 754 488 796 571 q 669 382 713 404 q 660 381 665 381 q 656 383 656 381 l 701 458 q 749 594 749 536 q 726 674 749 636 q 647 711 704 711 q 505 672 578 711 q 364 569 432 633 q 240 428 296 506 q 151 276 185 351 q 81 18 81 117 q 232 -131 81 -131 q 624 56 376 -131 q 770 176 681 99 q 981 365 860 254 q 939 362 964 364 q 881 354 914 360 q 854 349 867 351 q 831 347 842 347 q 807 361 803 350 q 860 413 813 413 q 941 404 903 407 q 1014 401 979 401 q 1158 541 1068 451 q 1371 761 1247 631 q 1565 929 1531 929 q 1581 901 1581 929 q 1578 874 1581 890 q 1569 835 1575 857 q 1540 771 1556 782 q 1469 692 1497 740 q 1411 586 1440 644 q 1358 480 1382 526 q 1314 397 1333 433 l 1449 400 q 1499 393 1499 400 q 1496 389 1499 392 q 1296 361 1472 374 q 1167 17 1167 110 q 1207 -47 1167 -47 q 1246 -28 1222 -47 q 1274 -10 1268 -10 q 1275 -8 1274 -7 q 1274 -10 1276 -10 q 1233 -55 1267 -35 q 1161 -75 1199 -75 q 1115 -53 1126 -75 q 1104 8 1104 -31 q 1211 365 1104 149 l 1044 361 q 671 42 858 179 q 213 -161 372 -175 m 1224 401 q 1290 517 1240 433 q 1425 736 1340 601 l 1069 403 l 1224 401 m 1486 997 q 1469 1013 1479 997 q 1457 1038 1458 1029 l 1460 1039 q 1508 1047 1474 1046 q 1594 1049 1542 1049 q 1742 1032 1708 1049 q 1746 1028 1746 1031 q 1744 1019 1746 1025 q 1738 1014 1742 1014 q 1611 1006 1694 1014 q 1486 997 1528 997 z "},"Ą":{"ha":1417,"x_min":-1,"x_max":1581,"o":"m 213 -161 q -1 58 -1 -143 q 74 311 -1 178 q 185 468 118 392 q 333 606 253 544 q 497 704 413 668 q 658 740 581 740 q 796 639 796 740 q 754 488 796 571 q 669 382 713 404 q 660 381 665 381 q 656 383 656 381 l 701 458 q 749 594 749 536 q 726 674 749 636 q 647 711 704 711 q 505 672 578 711 q 364 569 432 633 q 240 428 296 506 q 151 276 185 351 q 81 18 81 117 q 232 -131 81 -131 q 624 56 376 -131 q 770 176 681 99 q 981 365 860 254 q 939 362 964 364 q 881 354 914 360 q 854 349 867 351 q 831 347 842 347 q 807 361 803 350 q 860 413 813 413 q 941 404 903 407 q 1014 401 979 401 q 1158 541 1068 451 q 1371 761 1247 631 q 1565 929 1531 929 q 1581 901 1581 929 q 1578 874 1581 890 q 1569 835 1575 857 q 1540 771 1556 782 q 1469 692 1497 740 q 1411 586 1440 644 q 1358 480 1382 526 q 1314 397 1333 433 l 1449 400 q 1499 393 1499 400 q 1496 389 1499 392 q 1296 361 1472 374 q 1167 17 1167 110 q 1207 -47 1167 -47 q 1246 -28 1222 -47 q 1274 -10 1268 -10 q 1275 -8 1274 -7 q 1274 -10 1276 -10 q 1233 -55 1267 -35 q 1161 -75 1199 -75 q 1115 -53 1126 -75 q 1104 8 1104 -31 q 1211 365 1104 149 l 1044 361 q 671 42 858 179 q 213 -161 372 -175 m 1224 401 q 1290 517 1240 433 q 1425 736 1340 601 l 1069 403 l 1224 401 m 1294 -215 q 1228 -278 1294 -256 q 1179 -290 1200 -287 q 1144 -293 1158 -293 q 1068 -235 1068 -293 q 1094 -139 1068 -197 q 1156 -71 1125 -72 l 1160 -75 q 1113 -197 1113 -140 q 1175 -254 1113 -254 q 1244 -239 1207 -254 q 1294 -215 1281 -224 z "},"Å":{"ha":1417,"x_min":-1,"x_max":1704,"o":"m 213 -161 q -1 58 -1 -143 q 74 311 -1 178 q 349 617 174 489 q 658 740 521 740 q 796 639 796 740 q 754 488 796 571 q 669 382 713 404 q 660 381 665 381 q 656 383 656 381 l 701 458 q 749 594 749 532 q 726 674 749 636 q 647 711 704 711 q 394 596 539 711 q 151 276 238 469 q 81 18 81 117 q 232 -131 81 -131 q 624 56 376 -131 q 770 176 681 99 q 981 365 860 254 q 939 362 964 364 q 881 354 914 360 q 854 349 867 351 q 831 347 842 347 q 807 361 803 350 q 860 413 813 413 q 941 404 903 407 q 1014 401 979 401 q 1158 541 1068 451 q 1371 761 1247 631 q 1542 919 1492 889 q 1519 965 1519 932 q 1533 1026 1519 997 q 1574 1071 1550 1064 q 1644 1115 1597 1115 q 1688 1094 1671 1115 q 1704 1043 1704 1072 q 1665 953 1704 993 q 1579 913 1625 913 q 1581 901 1581 908 q 1578 874 1581 890 q 1569 835 1575 857 q 1540 771 1556 782 q 1472 700 1508 749 q 1411 586 1453 672 q 1358 480 1382 526 q 1314 397 1333 433 l 1449 400 q 1499 393 1499 400 q 1496 389 1499 392 q 1296 361 1472 374 q 1167 17 1167 110 q 1207 -47 1167 -47 q 1246 -28 1222 -47 q 1274 -10 1268 -10 q 1278 -17 1278 -10 q 1235 -58 1271 -42 q 1161 -75 1199 -75 q 1149 -74 1156 -75 q 1138 -72 1143 -74 q 1104 8 1104 -60 q 1211 365 1104 149 q 1174 365 1197 365 q 1119 363 1151 364 q 1069 361 1088 361 q 1044 361 1050 361 q 671 42 858 179 q 213 -161 372 -175 m 1592 939 q 1648 972 1625 939 q 1671 1040 1671 1006 q 1640 1090 1671 1090 q 1600 1072 1624 1090 l 1615 1064 q 1606 1048 1614 1058 q 1588 1019 1599 1038 q 1571 967 1571 994 q 1592 939 1571 939 m 1224 401 q 1290 517 1240 433 q 1425 736 1340 601 l 1069 403 l 1151 403 q 1192 401 1174 401 q 1224 401 1210 401 z "},"Ǻ":{"ha":1417,"x_min":-1,"x_max":1803,"o":"m 213 -161 q -1 58 -1 -143 q 74 311 -1 178 q 185 468 118 392 q 333 606 253 544 q 497 704 413 668 q 658 740 581 740 q 796 639 796 740 q 754 488 796 571 q 669 382 713 404 q 660 381 665 381 q 656 383 656 381 l 701 458 q 749 594 749 536 q 726 674 749 636 q 647 711 704 711 q 505 672 578 711 q 364 569 432 633 q 240 428 296 506 q 151 276 185 351 q 81 18 81 117 q 232 -131 81 -131 q 624 56 376 -131 q 770 176 681 99 q 981 365 860 254 q 939 362 964 364 q 881 354 914 360 q 854 349 867 351 q 831 347 842 347 q 807 361 803 350 q 860 413 813 413 q 941 404 903 407 q 1014 401 979 401 q 1158 541 1068 451 q 1371 761 1247 631 q 1565 929 1531 929 q 1581 901 1581 929 q 1578 874 1581 890 q 1569 835 1575 857 q 1540 771 1556 782 q 1469 692 1497 740 q 1411 586 1440 644 q 1358 480 1382 526 q 1314 397 1333 433 l 1449 400 q 1499 393 1499 400 q 1496 389 1499 392 q 1296 361 1472 374 q 1167 17 1167 110 q 1207 -47 1167 -47 q 1246 -28 1222 -47 q 1274 -10 1268 -10 q 1275 -8 1274 -7 q 1274 -10 1276 -10 q 1233 -55 1267 -35 q 1161 -75 1199 -75 q 1115 -53 1126 -75 q 1104 8 1104 -31 q 1211 365 1104 149 l 1044 361 q 671 42 858 179 q 213 -161 372 -175 m 1224 401 q 1290 517 1240 433 q 1425 736 1340 601 l 1069 403 l 1224 401 m 1588 985 q 1531 1038 1531 985 q 1544 1099 1531 1069 q 1585 1143 1561 1136 q 1656 1188 1608 1188 q 1699 1166 1682 1188 q 1715 1115 1715 1144 q 1676 1025 1715 1065 q 1588 985 1636 985 m 1603 1011 q 1659 1044 1636 1011 q 1682 1113 1682 1078 q 1651 1163 1682 1163 q 1611 1144 1635 1163 l 1626 1136 q 1617 1120 1625 1131 q 1599 1092 1610 1110 q 1582 1039 1582 1067 q 1603 1011 1582 1011 m 1603 1242 q 1592 1250 1592 1242 q 1606 1263 1592 1257 q 1682 1296 1646 1279 q 1747 1326 1718 1313 q 1768 1335 1760 1333 q 1781 1336 1776 1336 q 1796 1324 1789 1336 q 1803 1301 1803 1313 q 1794 1286 1803 1292 q 1778 1278 1785 1281 q 1747 1267 1768 1274 q 1692 1253 1726 1260 q 1603 1242 1640 1242 z "},"Ã":{"ha":1417,"x_min":-1,"x_max":1768,"o":"m 213 -161 q -1 58 -1 -143 q 74 311 -1 178 q 185 468 118 392 q 333 606 253 544 q 497 704 413 668 q 658 740 581 740 q 796 639 796 740 q 754 488 796 571 q 669 382 713 404 q 660 381 665 381 q 656 383 656 381 l 701 458 q 749 594 749 536 q 726 674 749 636 q 647 711 704 711 q 505 672 578 711 q 364 569 432 633 q 240 428 296 506 q 151 276 185 351 q 81 18 81 117 q 232 -131 81 -131 q 624 56 376 -131 q 770 176 681 99 q 981 365 860 254 q 939 362 964 364 q 881 354 914 360 q 854 349 867 351 q 831 347 842 347 q 807 361 803 350 q 860 413 813 413 q 941 404 903 407 q 1014 401 979 401 q 1158 541 1068 451 q 1371 761 1247 631 q 1565 929 1531 929 q 1581 901 1581 929 q 1578 874 1581 890 q 1569 835 1575 857 q 1540 771 1556 782 q 1469 692 1497 740 q 1411 586 1440 644 q 1358 480 1382 526 q 1314 397 1333 433 l 1449 400 q 1499 393 1499 400 q 1496 389 1499 392 q 1296 361 1472 374 q 1167 17 1167 110 q 1207 -47 1167 -47 q 1246 -28 1222 -47 q 1274 -10 1268 -10 q 1275 -8 1274 -7 q 1274 -10 1276 -10 q 1233 -55 1267 -35 q 1161 -75 1199 -75 q 1115 -53 1126 -75 q 1104 8 1104 -31 q 1211 365 1104 149 l 1044 361 q 671 42 858 179 q 213 -161 372 -175 m 1224 401 q 1290 517 1240 433 q 1425 736 1340 601 l 1069 403 l 1224 401 m 1681 994 q 1653 999 1669 994 q 1614 1014 1636 1004 q 1551 1035 1572 1035 q 1530 1031 1542 1035 q 1507 1015 1518 1026 q 1479 996 1488 996 q 1478 999 1478 997 q 1535 1061 1478 1022 q 1582 1076 1554 1076 q 1644 1060 1603 1076 q 1681 1048 1665 1051 q 1706 1044 1696 1044 q 1761 1076 1736 1044 q 1768 1071 1768 1076 q 1717 1007 1768 1046 q 1681 994 1700 994 z "},"B":{"ha":1138,"x_min":25,"x_max":1242,"o":"m 589 -65 q 290 85 369 -65 q 86 -35 147 -35 q 41 -7 57 -35 q 25 56 25 21 q 89 250 25 139 q 150 339 117 299 q 225 379 183 379 q 286 313 265 379 l 328 179 q 377 237 350 203 q 438 317 404 271 l 561 483 q 860 807 789 779 q 910 817 885 817 q 955 805 938 817 q 972 778 972 793 q 932 749 972 753 q 769 608 890 725 q 680 519 714 554 q 633 465 646 483 q 346 132 478 249 q 600 -36 431 -36 q 730 -9 664 -36 q 852 63 796 18 q 943 162 908 107 q 978 271 978 217 q 938 374 978 328 q 839 439 897 419 q 818 442 839 439 q 754 450 797 444 q 689 476 689 458 q 705 499 689 489 q 738 508 721 508 q 767 503 750 508 q 797 492 783 497 q 810 488 810 488 q 835 485 821 486 q 863 485 849 485 q 1029 514 954 485 q 1135 594 1101 543 q 1168 714 1168 646 q 1124 824 1168 783 q 1009 881 1081 864 q 854 899 938 899 q 545 851 692 899 q 292 694 399 804 q 210 553 210 610 q 231 485 210 513 q 243 471 236 478 q 260 457 250 464 q 251 453 267 453 q 165 568 165 472 q 263 749 165 664 q 434 854 338 814 q 638 913 531 894 q 851 931 746 931 q 996 919 926 931 q 1121 883 1065 908 q 1209 815 1176 857 q 1242 713 1242 774 q 1196 575 1242 626 q 1072 496 1150 524 q 875 463 981 464 q 977 432 933 460 q 1045 360 1021 404 q 1069 263 1069 315 q 1027 131 1069 192 q 914 27 985 71 q 758 -41 843 -17 q 589 -65 674 -65 m 104 -3 q 275 124 149 -3 l 271 129 q 182 314 215 314 q 175 311 181 314 q 72 72 72 163 q 80 25 72 53 q 104 -3 88 -3 z "},"C":{"ha":1008,"x_min":43,"x_max":1107,"o":"m 365 -90 q 127 -8 211 -90 q 43 204 43 74 q 102 438 43 324 q 251 647 161 551 q 420 782 325 725 q 620 871 515 839 q 825 903 725 903 q 968 881 904 903 q 1069 814 1032 860 q 1107 694 1107 768 q 1076 573 1107 629 q 992 475 1044 517 q 878 410 940 433 q 751 386 815 386 q 611 424 668 386 q 554 521 554 463 q 650 668 554 596 q 676 681 667 681 q 683 675 683 681 q 661 653 683 661 q 583 526 583 590 q 625 449 583 481 q 729 418 667 418 q 841 442 785 418 q 944 506 897 465 q 1020 597 992 546 q 1049 703 1049 647 q 988 835 1049 793 q 832 876 926 876 q 620 836 725 876 q 424 725 515 796 q 260 563 332 654 q 115 221 115 381 q 154 77 115 136 q 262 -12 193 18 q 419 -43 331 -43 q 675 15 551 -43 q 886 169 799 72 q 921 194 910 194 q 929 182 929 194 q 914 150 929 165 q 801 57 867 100 q 662 -19 736 14 q 511 -72 588 -53 q 365 -90 435 -90 z "},"Ć":{"ha":1008,"x_min":43,"x_max":1107,"o":"m 365 -90 q 127 -8 211 -90 q 43 204 43 74 q 102 438 43 324 q 251 647 161 551 q 420 782 325 725 q 620 871 515 839 q 825 903 725 903 q 968 881 904 903 q 1069 814 1032 860 q 1107 694 1107 768 q 1076 573 1107 629 q 992 475 1044 517 q 878 410 940 433 q 751 386 815 386 q 611 424 668 386 q 554 521 554 463 q 650 668 554 596 q 676 681 667 681 q 683 675 683 681 q 661 653 683 661 q 583 526 583 590 q 625 449 583 481 q 729 418 667 418 q 841 442 785 418 q 944 506 897 465 q 1020 597 992 546 q 1049 703 1049 647 q 988 835 1049 793 q 832 876 926 876 q 620 836 725 876 q 424 725 515 796 q 260 563 332 654 q 115 221 115 381 q 154 77 115 136 q 262 -12 193 18 q 419 -43 331 -43 q 675 15 551 -43 q 886 169 799 72 q 921 194 910 194 q 929 182 929 194 q 914 150 929 165 q 801 57 867 100 q 662 -19 736 14 q 511 -72 588 -53 q 365 -90 435 -90 m 814 964 q 804 972 804 961 q 810 982 804 978 l 944 1090 q 968 1103 960 1103 q 985 1094 975 1103 q 996 1075 996 1085 q 990 1059 996 1065 q 978 1047 985 1053 q 950 1030 969 1042 q 894 1000 931 1018 q 842 976 863 985 q 814 964 822 967 z "},"Č":{"ha":1008,"x_min":43,"x_max":1107,"o":"m 365 -90 q 127 -8 211 -90 q 43 204 43 74 q 102 438 43 324 q 251 647 161 551 q 420 782 325 725 q 620 871 515 839 q 825 903 725 903 q 968 881 904 903 q 1069 814 1032 860 q 1107 694 1107 768 q 1076 573 1107 629 q 992 475 1044 517 q 878 410 940 433 q 751 386 815 386 q 611 424 668 386 q 554 521 554 463 q 650 668 554 596 q 676 681 667 681 q 683 675 683 681 q 661 653 683 661 q 583 526 583 590 q 625 449 583 481 q 729 418 667 418 q 841 442 785 418 q 944 506 897 465 q 1020 597 992 546 q 1049 703 1049 647 q 988 835 1049 793 q 832 876 926 876 q 620 836 725 876 q 424 725 515 796 q 260 563 332 654 q 115 221 115 381 q 154 77 115 136 q 262 -12 193 18 q 419 -43 331 -43 q 675 15 551 -43 q 886 169 799 72 q 921 194 910 194 q 929 182 929 194 q 914 150 929 165 q 801 57 867 100 q 662 -19 736 14 q 511 -72 588 -53 q 365 -90 435 -90 m 775 1090 q 791 1076 782 1090 q 815 1042 800 1063 q 825 1026 822 1035 q 832 1008 828 1017 q 892 1040 856 1019 q 950 1069 928 1060 q 980 1083 961 1075 q 1008 1090 999 1090 q 1022 1082 1022 1090 q 1013 1067 1022 1076 q 996 1051 1004 1057 q 926 1017 965 1038 q 856 980 888 996 q 814 964 824 964 q 785 981 797 964 q 763 1021 774 997 q 757 1040 760 1031 q 754 1058 754 1049 q 775 1090 754 1090 z "},"Ç":{"ha":1008,"x_min":43,"x_max":1107,"o":"m 365 -90 q 127 -8 211 -90 q 43 204 43 74 q 102 438 43 324 q 251 647 161 551 q 420 782 325 725 q 620 871 515 839 q 825 903 725 903 q 968 881 904 903 q 1069 814 1032 860 q 1107 694 1107 768 q 1076 573 1107 629 q 992 475 1044 517 q 878 410 940 433 q 751 386 815 386 q 611 424 668 386 q 554 521 554 463 q 650 668 554 596 q 676 681 667 681 q 683 675 683 681 q 661 653 683 661 q 583 526 583 590 q 625 449 583 481 q 729 418 667 418 q 841 442 785 418 q 944 506 897 465 q 1020 597 992 546 q 1049 703 1049 647 q 988 835 1049 793 q 832 876 926 876 q 620 836 725 876 q 424 725 515 796 q 260 563 332 654 q 115 221 115 381 q 154 77 115 136 q 262 -12 193 18 q 419 -43 331 -43 q 675 15 551 -43 q 886 169 799 72 q 921 194 910 194 q 929 182 929 194 q 914 150 929 165 q 801 57 867 100 q 662 -19 736 14 q 511 -72 588 -53 q 365 -90 435 -90 m 356 -82 q 341 -102 346 -93 q 336 -126 336 -111 q 378 -187 336 -139 q 419 -268 419 -235 q 343 -362 419 -326 q 207 -390 281 -390 q 193 -378 193 -390 q 207 -368 193 -369 q 258 -360 232 -364 q 310 -354 283 -357 q 360 -282 360 -342 q 350 -257 360 -272 q 322 -219 340 -242 q 285 -149 285 -174 q 301 -96 285 -121 q 343 -71 317 -71 q 354 -75 353 -71 q 356 -82 356 -79 z "},"Ĉ":{"ha":1008,"x_min":43,"x_max":1107,"o":"m 365 -90 q 127 -8 211 -90 q 43 204 43 74 q 102 438 43 324 q 251 647 161 551 q 420 782 325 725 q 620 871 515 839 q 825 903 725 903 q 968 881 904 903 q 1069 814 1032 860 q 1107 694 1107 768 q 1076 573 1107 629 q 992 475 1044 517 q 878 410 940 433 q 751 386 815 386 q 611 424 668 386 q 554 521 554 463 q 650 668 554 596 q 676 681 667 681 q 683 675 683 681 q 661 653 683 661 q 583 526 583 590 q 625 449 583 481 q 729 418 667 418 q 841 442 785 418 q 944 506 897 465 q 1020 597 992 546 q 1049 703 1049 647 q 988 835 1049 793 q 832 876 926 876 q 620 836 725 876 q 424 725 515 796 q 260 563 332 654 q 115 221 115 381 q 154 77 115 136 q 262 -12 193 18 q 419 -43 331 -43 q 675 15 551 -43 q 886 169 799 72 q 921 194 910 194 q 929 182 929 194 q 914 150 929 165 q 801 57 867 100 q 662 -19 736 14 q 511 -72 588 -53 q 365 -90 435 -90 m 754 944 q 749 953 751 944 q 751 964 746 961 q 775 981 758 969 q 814 1008 792 993 q 866 1042 846 1028 q 900 1057 886 1057 q 921 1049 913 1057 q 939 1029 929 1040 q 959 1009 950 1018 q 978 990 968 1000 q 992 975 985 983 q 999 958 999 967 q 992 947 999 953 q 972 939 986 940 q 953 946 963 939 q 933 963 944 953 q 910 988 922 974 q 888 1013 897 1001 q 824 978 867 1001 q 783 954 800 964 q 754 944 765 944 z "},"Ċ":{"ha":1008,"x_min":43,"x_max":1107,"o":"m 365 -90 q 127 -8 211 -90 q 43 204 43 74 q 102 438 43 324 q 251 647 161 551 q 420 782 325 725 q 620 871 515 839 q 825 903 725 903 q 968 881 904 903 q 1069 814 1032 860 q 1107 694 1107 768 q 1076 573 1107 629 q 992 475 1044 517 q 878 410 940 433 q 751 386 815 386 q 611 424 668 386 q 554 521 554 463 q 650 668 554 596 q 676 681 667 681 q 683 675 683 681 q 661 653 683 661 q 583 526 583 590 q 625 449 583 481 q 729 418 667 418 q 841 442 785 418 q 944 506 897 465 q 1020 597 992 546 q 1049 703 1049 647 q 988 835 1049 793 q 832 876 926 876 q 620 836 725 876 q 424 725 515 796 q 260 563 332 654 q 115 221 115 381 q 154 77 115 136 q 262 -12 193 18 q 419 -43 331 -43 q 675 15 551 -43 q 886 169 799 72 q 921 194 910 194 q 929 182 929 194 q 914 150 929 165 q 801 57 867 100 q 662 -19 736 14 q 511 -72 588 -53 q 365 -90 435 -90 m 835 961 q 815 976 825 961 q 806 1001 806 990 q 847 1051 806 1022 q 911 1081 889 1081 q 915 1079 914 1081 q 896 1054 914 1079 l 872 999 q 835 961 856 961 z "},"D":{"ha":1279,"x_min":21,"x_max":1286,"o":"m 593 -81 q 260 35 361 -92 q 81 -60 138 -60 q 35 -30 50 -60 q 21 35 21 0 q 72 226 21 101 q 185 368 133 368 q 225 285 211 368 q 268 113 249 160 q 383 244 314 161 q 542 446 451 328 q 840 769 767 742 q 890 779 865 779 q 935 767 918 779 q 953 740 953 756 q 913 713 953 717 q 841 660 883 697 q 752 574 799 622 q 665 480 706 526 q 600 400 625 433 q 303 69 451 193 l 294 63 q 401 -28 339 -3 q 540 -53 464 -53 q 781 -15 667 -53 q 988 99 896 24 q 1140 285 1081 175 q 1206 513 1206 404 q 1174 652 1206 586 q 1088 765 1142 718 q 969 826 1035 813 q 810 843 893 843 q 415 744 596 843 q 225 511 225 640 q 246 451 225 476 q 269 429 263 432 l 261 429 q 194 468 222 436 q 167 539 167 500 q 212 672 167 611 q 343 782 257 732 q 750 881 515 881 q 856 875 803 881 q 960 858 908 869 q 1124 785 1050 839 q 1242 653 1197 731 q 1286 485 1286 575 q 1225 269 1286 381 q 1067 81 1164 157 q 850 -34 971 6 q 593 -81 729 -74 m 88 -35 q 232 75 147 -8 q 179 188 192 142 q 167 281 171 218 q 71 40 71 143 q 88 -35 71 -3 z "},"Ď":{"ha":1279,"x_min":21,"x_max":1286,"o":"m 593 -81 q 260 35 361 -92 q 81 -60 138 -60 q 35 -30 50 -60 q 21 35 21 0 q 72 226 21 101 q 185 368 133 368 q 225 285 211 368 q 268 113 249 160 q 383 244 314 161 q 542 446 451 328 q 840 769 767 742 q 890 779 865 779 q 935 767 918 779 q 953 740 953 756 q 913 713 953 717 q 841 660 883 697 q 752 574 799 622 q 665 480 706 526 q 600 400 625 433 q 303 69 451 193 l 294 63 q 401 -28 339 -3 q 540 -53 464 -53 q 781 -15 667 -53 q 988 99 896 24 q 1140 285 1081 175 q 1206 513 1206 404 q 1174 652 1206 586 q 1088 765 1142 718 q 969 826 1035 813 q 810 843 893 843 q 415 744 596 843 q 225 511 225 640 q 246 451 225 476 q 269 429 263 432 l 261 429 q 194 468 222 436 q 167 539 167 500 q 212 672 167 611 q 343 782 257 732 q 750 881 515 881 q 856 875 803 881 q 960 858 908 869 q 1124 785 1050 839 q 1242 653 1197 731 q 1286 485 1286 575 q 1225 269 1286 381 q 1067 81 1164 157 q 850 -34 971 6 q 593 -81 729 -74 m 88 -35 q 232 75 147 -8 q 179 188 192 142 q 167 281 171 218 q 71 40 71 143 q 88 -35 71 -3 m 868 1046 q 884 1032 875 1046 q 908 997 893 1018 q 918 981 915 990 q 925 964 921 972 q 985 995 949 975 q 1043 1025 1021 1015 q 1073 1038 1054 1031 q 1101 1046 1092 1046 q 1115 1038 1115 1046 q 1106 1022 1115 1032 q 1089 1007 1097 1013 q 1019 972 1058 993 q 949 935 981 951 q 907 919 917 919 q 878 936 890 919 q 856 976 867 953 q 850 995 853 986 q 847 1014 847 1004 q 868 1046 847 1046 z "},"Đ":{"ha":1279,"x_min":21,"x_max":1286,"o":"m 593 -81 q 260 35 361 -92 q 81 -60 138 -60 q 33 -26 50 -60 q 21 35 21 1 q 72 226 21 101 q 185 368 133 368 q 225 285 211 368 q 268 113 249 160 q 344 198 300 146 q 442 318 388 250 q 404 322 425 318 q 360 351 360 331 q 372 376 360 367 q 394 385 385 385 q 399 385 396 385 q 408 386 403 385 l 444 386 q 469 387 456 386 q 496 386 482 388 l 542 446 q 840 769 767 742 q 890 779 865 779 q 935 767 918 779 q 953 740 953 756 q 913 713 953 717 q 763 585 864 686 q 670 487 711 533 q 600 400 629 440 l 589 385 q 729 389 682 385 q 621 344 740 365 l 551 335 q 427 188 490 254 q 303 69 364 121 l 294 63 q 539 -53 372 -53 q 566 -52 553 -53 q 593 -50 579 -51 q 1140 285 979 -14 q 1206 513 1206 404 q 1121 731 1206 638 q 969 826 1053 807 q 810 843 893 843 q 415 744 596 843 q 225 524 235 646 q 246 451 221 481 q 269 429 263 432 l 261 429 q 197 465 225 436 q 167 544 165 503 q 343 782 174 685 q 750 881 515 881 q 856 875 803 881 q 960 858 908 869 q 1179 736 1086 831 q 1286 485 1286 625 q 1225 269 1286 381 q 910 -11 1119 78 q 593 -81 764 -72 m 88 -35 q 232 75 147 -8 q 179 188 192 142 q 167 281 171 218 q 71 40 71 143 q 88 -35 71 -3 z "},"∆":{"ha":628,"x_min":35,"x_max":594,"o":"m 35 -3 q 92 99 60 43 q 160 215 125 156 q 229 328 196 274 l 419 638 q 431 660 422 643 q 452 696 440 676 q 474 729 464 715 q 490 743 485 743 q 496 733 496 743 q 510 564 500 660 q 533 365 519 468 q 562 167 546 263 q 594 -3 578 71 q 555 -2 594 -3 q 448 -1 515 -1 q 297 0 381 0 q 168 0 235 0 q 35 -3 101 0 m 319 42 q 461 44 399 42 q 533 46 524 46 q 526 115 532 64 q 513 236 521 167 q 496 380 504 306 q 479 517 488 454 q 465 620 471 581 q 457 660 460 660 q 450 653 453 660 q 363 510 410 588 q 267 354 315 433 q 176 201 219 275 q 101 64 133 126 q 99 58 100 61 q 97 51 97 54 q 123 45 97 47 q 186 42 149 43 q 260 42 224 42 q 319 42 297 42 z "},"ǅ":{"ha":1815,"x_min":21,"x_max":1839,"o":"m 593 -81 q 260 35 361 -92 q 81 -60 138 -60 q 35 -30 50 -60 q 21 35 21 0 q 72 226 21 101 q 185 368 133 368 q 225 285 211 368 q 268 113 249 160 q 383 244 314 161 q 542 446 451 328 q 840 769 767 742 q 890 779 865 779 q 935 767 918 779 q 953 740 953 756 q 913 713 953 717 q 841 660 883 697 q 752 574 799 622 q 665 480 706 526 q 600 400 625 433 q 303 69 451 193 l 294 63 q 401 -28 339 -3 q 540 -53 464 -53 q 781 -15 667 -53 q 988 99 896 24 q 1140 285 1081 175 q 1206 513 1206 404 q 1174 652 1206 586 q 1088 765 1142 718 q 969 826 1035 813 q 810 843 893 843 q 415 744 596 843 q 225 511 225 640 q 246 451 225 476 q 269 429 263 432 l 261 429 q 194 468 222 436 q 167 539 167 500 q 212 672 167 611 q 343 782 257 732 q 750 881 515 881 q 856 875 803 881 q 960 858 908 869 q 1124 785 1050 839 q 1242 653 1197 731 q 1286 485 1286 575 q 1225 269 1286 381 q 1067 81 1164 157 q 850 -34 971 6 q 593 -81 729 -74 m 88 -35 q 232 75 147 -8 q 179 188 192 142 q 167 281 171 218 q 71 40 71 143 q 88 -35 71 -3 m 1600 -31 q 1520 -22 1560 -31 q 1449 4 1481 -14 q 1420 22 1439 10 q 1372 57 1401 35 q 1331 30 1350 42 q 1293 18 1311 18 q 1261 53 1261 18 q 1269 83 1261 64 q 1286 101 1276 101 q 1293 92 1293 101 q 1292 81 1293 85 q 1291 77 1292 79 q 1290 74 1290 75 q 1304 60 1290 60 q 1344 76 1322 60 l 1292 117 q 1289 124 1289 119 q 1303 147 1289 133 q 1328 160 1317 160 q 1392 113 1332 160 q 1507 236 1447 175 q 1585 317 1551 283 q 1644 368 1619 350 q 1482 401 1535 401 q 1428 387 1449 401 q 1407 350 1407 372 q 1426 317 1407 332 q 1438 303 1438 308 q 1431 294 1438 294 q 1393 322 1417 294 q 1371 379 1371 350 q 1392 424 1371 408 q 1446 444 1414 439 q 1508 450 1478 450 q 1606 433 1553 450 q 1710 400 1658 417 q 1751 411 1729 411 q 1810 376 1810 411 q 1792 351 1810 363 q 1750 339 1775 339 q 1703 349 1724 339 q 1419 90 1572 268 l 1469 51 q 1540 20 1501 28 q 1615 13 1578 13 q 1719 35 1676 13 q 1763 101 1763 57 q 1757 132 1763 119 q 1754 142 1754 140 q 1768 151 1754 151 q 1778 144 1775 151 q 1789 97 1789 119 q 1737 6 1789 42 q 1600 -31 1685 -31 m 1592 632 q 1608 618 1599 632 q 1632 583 1617 604 q 1642 567 1639 576 q 1649 550 1644 558 q 1708 581 1672 561 q 1767 611 1744 601 q 1797 624 1778 617 q 1825 632 1815 632 q 1839 624 1839 632 q 1830 608 1839 618 q 1813 593 1821 599 q 1743 558 1782 579 q 1672 522 1704 538 q 1631 506 1640 506 q 1602 522 1614 506 q 1579 563 1590 539 q 1574 581 1576 572 q 1571 600 1571 590 q 1592 632 1571 632 z "},"E":{"ha":960,"x_min":4,"x_max":1078,"o":"m 356 -111 q 183 -87 263 -111 q 53 -15 103 -64 q 4 107 4 33 q 40 221 4 164 q 476 522 168 424 q 431 642 431 575 q 460 735 431 696 q 632 864 517 813 q 765 907 697 892 q 901 922 832 922 q 1033 894 988 922 q 1078 817 1078 867 q 1059 753 1078 782 q 1013 708 1040 725 q 956 690 985 690 q 913 711 913 690 q 931 724 913 724 q 945 722 936 724 q 958 719 954 719 q 1010 750 988 719 q 1032 811 1032 781 q 990 875 1032 856 q 894 894 947 894 q 636 810 763 894 q 503 613 503 722 q 531 538 503 572 q 622 559 579 553 q 703 565 664 565 q 836 514 836 565 q 817 473 836 490 q 767 447 797 456 q 707 438 738 438 q 636 446 675 438 q 561 468 597 454 q 500 500 525 482 q 269 384 369 463 q 119 208 168 306 q 93 106 93 156 q 128 6 93 44 q 220 -51 163 -33 q 347 -69 278 -69 q 576 -33 463 -69 q 771 76 690 4 q 881 281 881 174 q 799 365 881 365 q 703 344 756 365 q 603 286 650 322 q 526 207 557 250 q 496 119 496 164 q 535 65 496 75 q 549 51 549 60 q 528 40 549 40 q 454 122 454 40 q 486 225 454 176 q 569 311 518 274 q 679 370 619 349 q 794 392 739 392 q 896 363 860 392 q 932 271 932 335 q 789 28 932 142 q 589 -78 699 -46 q 356 -111 479 -111 m 694 468 q 769 511 769 468 q 694 531 769 531 q 626 526 661 531 q 554 515 590 522 q 694 468 614 468 z "},"É":{"ha":960,"x_min":4,"x_max":1078,"o":"m 356 -111 q 183 -87 263 -111 q 53 -15 103 -64 q 4 107 4 33 q 40 221 4 164 q 476 522 168 424 q 431 642 431 575 q 460 735 431 696 q 632 864 517 813 q 765 907 697 892 q 901 922 832 922 q 1033 894 988 922 q 1078 817 1078 867 q 1059 753 1078 782 q 1013 708 1040 725 q 956 690 985 690 q 913 711 913 690 q 931 724 913 724 q 945 722 936 724 q 958 719 954 719 q 1010 750 988 719 q 1032 811 1032 781 q 990 875 1032 856 q 894 894 947 894 q 636 810 763 894 q 503 613 503 722 q 531 538 503 572 q 622 559 579 553 q 703 565 664 565 q 836 514 836 565 q 817 473 836 490 q 767 447 797 456 q 707 438 738 438 q 636 446 675 438 q 561 468 597 454 q 500 500 525 482 q 269 384 369 463 q 119 208 168 306 q 93 106 93 156 q 128 6 93 44 q 220 -51 163 -33 q 347 -69 278 -69 q 576 -33 463 -69 q 771 76 690 4 q 881 281 881 174 q 799 365 881 365 q 703 344 756 365 q 603 286 650 322 q 526 207 557 250 q 496 119 496 164 q 535 65 496 75 q 549 51 549 60 q 528 40 549 40 q 454 122 454 40 q 486 225 454 176 q 569 311 518 274 q 679 370 619 349 q 794 392 739 392 q 896 363 860 392 q 932 271 932 335 q 789 28 932 142 q 589 -78 699 -46 q 356 -111 479 -111 m 694 468 q 769 511 769 468 q 694 531 769 531 q 626 526 661 531 q 554 515 590 522 q 694 468 614 468 m 846 992 q 835 1000 835 992 q 849 1013 835 1007 q 925 1046 889 1029 q 990 1076 961 1063 q 1011 1085 1003 1083 q 1024 1086 1019 1086 q 1039 1074 1032 1086 q 1046 1051 1046 1063 q 1037 1036 1046 1042 q 1021 1028 1028 1031 q 990 1017 1011 1024 q 935 1003 969 1010 q 846 992 883 992 z "},"Ĕ":{"ha":960,"x_min":4,"x_max":1078,"o":"m 356 -111 q 183 -87 263 -111 q 53 -15 103 -64 q 4 107 4 33 q 40 221 4 164 q 476 522 168 424 q 431 642 431 575 q 460 735 431 696 q 632 864 517 813 q 765 907 697 892 q 901 922 832 922 q 1033 894 988 922 q 1078 817 1078 867 q 1059 753 1078 782 q 1013 708 1040 725 q 956 690 985 690 q 913 711 913 690 q 931 724 913 724 q 945 722 936 724 q 958 719 954 719 q 1010 750 988 719 q 1032 811 1032 781 q 990 875 1032 856 q 894 894 947 894 q 636 810 763 894 q 503 613 503 722 q 531 538 503 572 q 622 559 579 553 q 703 565 664 565 q 836 514 836 565 q 817 473 836 490 q 767 447 797 456 q 707 438 738 438 q 636 446 675 438 q 561 468 597 454 q 500 500 525 482 q 269 384 369 463 q 119 208 168 306 q 93 106 93 156 q 128 6 93 44 q 220 -51 163 -33 q 347 -69 278 -69 q 576 -33 463 -69 q 771 76 690 4 q 881 281 881 174 q 799 365 881 365 q 703 344 756 365 q 603 286 650 322 q 526 207 557 250 q 496 119 496 164 q 535 65 496 75 q 549 51 549 60 q 528 40 549 40 q 454 122 454 40 q 486 225 454 176 q 569 311 518 274 q 679 370 619 349 q 794 392 739 392 q 896 363 860 392 q 932 271 932 335 q 789 28 932 142 q 589 -78 699 -46 q 356 -111 479 -111 m 694 468 q 769 511 769 468 q 694 531 769 531 q 626 526 661 531 q 554 515 590 522 q 694 468 614 468 m 882 996 q 836 1010 856 996 q 817 1061 817 1025 q 817 1074 817 1063 q 823 1095 818 1085 q 838 1106 828 1106 q 847 1098 844 1106 q 853 1079 850 1090 q 865 1056 857 1063 q 899 1050 874 1050 q 943 1057 922 1050 q 994 1089 964 1064 q 1017 1107 1001 1096 q 1033 1107 1033 1118 q 1018 1071 1033 1092 q 958 1018 996 1040 q 882 996 919 996 z "},"Ě":{"ha":960,"x_min":4,"x_max":1078,"o":"m 356 -111 q 183 -87 263 -111 q 53 -15 103 -64 q 4 107 4 33 q 40 221 4 164 q 476 522 168 424 q 431 642 431 575 q 460 735 431 696 q 632 864 517 813 q 765 907 697 892 q 901 922 832 922 q 1033 894 988 922 q 1078 817 1078 867 q 1059 753 1078 782 q 1013 708 1040 725 q 956 690 985 690 q 913 711 913 690 q 931 724 913 724 q 945 722 936 724 q 958 719 954 719 q 1010 750 988 719 q 1032 811 1032 781 q 990 875 1032 856 q 894 894 947 894 q 636 810 763 894 q 503 613 503 722 q 531 538 503 572 q 622 559 579 553 q 703 565 664 565 q 836 514 836 565 q 817 473 836 490 q 767 447 797 456 q 707 438 738 438 q 636 446 675 438 q 561 468 597 454 q 500 500 525 482 q 269 384 369 463 q 119 208 168 306 q 93 106 93 156 q 128 6 93 44 q 220 -51 163 -33 q 347 -69 278 -69 q 576 -33 463 -69 q 771 76 690 4 q 881 281 881 174 q 799 365 881 365 q 703 344 756 365 q 603 286 650 322 q 526 207 557 250 q 496 119 496 164 q 535 65 496 75 q 549 51 549 60 q 528 40 549 40 q 454 122 454 40 q 486 225 454 176 q 569 311 518 274 q 679 370 619 349 q 794 392 739 392 q 896 363 860 392 q 932 271 932 335 q 789 28 932 142 q 589 -78 699 -46 q 356 -111 479 -111 m 694 468 q 769 511 769 468 q 694 531 769 531 q 626 526 661 531 q 554 515 590 522 q 694 468 614 468 m 817 1118 q 833 1104 824 1118 q 857 1069 842 1090 q 867 1053 864 1063 q 874 1036 869 1044 q 933 1067 897 1047 q 992 1097 969 1088 q 1022 1110 1003 1103 q 1050 1118 1040 1118 q 1064 1110 1064 1118 q 1055 1094 1064 1104 q 1038 1079 1046 1085 q 968 1044 1007 1065 q 897 1008 929 1024 q 856 992 865 992 q 827 1008 839 992 q 804 1049 815 1025 q 799 1067 801 1058 q 796 1086 796 1076 q 817 1118 796 1118 z "},"Ê":{"ha":960,"x_min":4,"x_max":1078,"o":"m 356 -111 q 183 -87 263 -111 q 53 -15 103 -64 q 4 107 4 33 q 40 221 4 164 q 476 522 168 424 q 431 642 431 575 q 460 735 431 696 q 632 864 517 813 q 765 907 697 892 q 901 922 832 922 q 1033 894 988 922 q 1078 817 1078 867 q 1059 753 1078 782 q 1013 708 1040 725 q 956 690 985 690 q 913 711 913 690 q 931 724 913 724 q 945 722 936 724 q 958 719 954 719 q 1010 750 988 719 q 1032 811 1032 781 q 990 875 1032 856 q 894 894 947 894 q 636 810 763 894 q 503 613 503 722 q 531 538 503 572 q 622 559 579 553 q 703 565 664 565 q 836 514 836 565 q 817 473 836 490 q 767 447 797 456 q 707 438 738 438 q 636 446 675 438 q 561 468 597 454 q 500 500 525 482 q 269 384 369 463 q 119 208 168 306 q 93 106 93 156 q 128 6 93 44 q 220 -51 163 -33 q 347 -69 278 -69 q 576 -33 463 -69 q 771 76 690 4 q 881 281 881 174 q 799 365 881 365 q 703 344 756 365 q 603 286 650 322 q 526 207 557 250 q 496 119 496 164 q 535 65 496 75 q 549 51 549 60 q 528 40 549 40 q 454 122 454 40 q 486 225 454 176 q 569 311 518 274 q 679 370 619 349 q 794 392 739 392 q 896 363 860 392 q 932 271 932 335 q 789 28 932 142 q 589 -78 699 -46 q 356 -111 479 -111 m 694 468 q 769 511 769 468 q 694 531 769 531 q 626 526 661 531 q 554 515 590 522 q 694 468 614 468 m 796 972 q 790 981 793 972 q 793 992 788 989 q 817 1009 800 997 q 856 1036 833 1021 q 908 1070 888 1056 q 942 1085 928 1085 q 963 1076 954 1085 q 981 1057 971 1068 q 1001 1037 992 1046 q 1019 1018 1010 1028 q 1033 1003 1026 1011 q 1040 986 1040 994 q 1034 974 1040 981 q 1014 967 1028 968 q 995 974 1004 967 q 975 990 986 981 q 951 1015 964 1001 q 929 1040 939 1029 q 865 1006 908 1029 q 824 982 842 992 q 796 972 807 972 z "},"Ế":{"ha":960,"x_min":4,"x_max":1078,"o":"m 356 -111 q 183 -87 263 -111 q 53 -15 103 -64 q 4 107 4 33 q 40 221 4 164 q 476 522 168 424 q 431 642 431 575 q 460 735 431 696 q 632 864 517 813 q 765 907 697 892 q 901 922 832 922 q 1033 894 988 922 q 1078 817 1078 867 q 1059 753 1078 782 q 1013 708 1040 725 q 956 690 985 690 q 913 711 913 690 q 931 724 913 724 q 945 722 936 724 q 958 719 954 719 q 1010 750 988 719 q 1032 811 1032 781 q 990 875 1032 856 q 894 894 947 894 q 636 810 763 894 q 503 613 503 722 q 531 538 503 572 q 622 559 579 553 q 703 565 664 565 q 836 514 836 565 q 817 473 836 490 q 767 447 797 456 q 707 438 738 438 q 636 446 675 438 q 561 468 597 454 q 500 500 525 482 q 269 384 369 463 q 119 208 168 306 q 93 106 93 156 q 128 6 93 44 q 220 -51 163 -33 q 347 -69 278 -69 q 576 -33 463 -69 q 771 76 690 4 q 881 281 881 174 q 799 365 881 365 q 703 344 756 365 q 603 286 650 322 q 526 207 557 250 q 496 119 496 164 q 535 65 496 75 q 549 51 549 60 q 528 40 549 40 q 454 122 454 40 q 486 225 454 176 q 569 311 518 274 q 679 370 619 349 q 794 392 739 392 q 896 363 860 392 q 932 271 932 335 q 789 28 932 142 q 589 -78 699 -46 q 356 -111 479 -111 m 694 468 q 769 511 769 468 q 694 531 769 531 q 626 526 661 531 q 554 515 590 522 q 694 468 614 468 m 796 972 q 790 981 793 972 q 793 992 788 989 q 817 1009 800 997 q 856 1036 833 1021 q 908 1070 888 1056 q 942 1085 928 1085 q 963 1076 954 1085 q 981 1057 971 1068 q 1001 1037 992 1046 q 1019 1018 1010 1028 q 1033 1003 1026 1011 q 1040 986 1040 994 q 1034 974 1040 981 q 1014 967 1028 968 q 995 974 1004 967 q 975 990 986 981 q 951 1015 964 1001 q 929 1040 939 1029 q 865 1006 908 1029 q 824 982 842 992 q 796 972 807 972 m 854 1113 q 843 1121 843 1113 q 857 1133 843 1128 q 933 1167 897 1150 q 999 1197 969 1183 q 1019 1206 1011 1204 q 1032 1207 1028 1207 q 1047 1195 1040 1207 q 1054 1172 1054 1183 q 1045 1157 1054 1163 q 1029 1149 1036 1151 q 999 1138 1019 1144 q 943 1124 978 1131 q 854 1113 892 1113 z "},"Ệ":{"ha":960,"x_min":4,"x_max":1078,"o":"m 356 -111 q 183 -87 263 -111 q 53 -15 103 -64 q 4 107 4 33 q 40 221 4 164 q 476 522 168 424 q 431 642 431 575 q 460 735 431 696 q 632 864 517 813 q 765 907 697 892 q 901 922 832 922 q 1033 894 988 922 q 1078 817 1078 867 q 1059 753 1078 782 q 1013 708 1040 725 q 956 690 985 690 q 913 711 913 690 q 931 724 913 724 q 945 722 936 724 q 958 719 954 719 q 1010 750 988 719 q 1032 811 1032 781 q 990 875 1032 856 q 894 894 947 894 q 636 810 763 894 q 503 613 503 722 q 531 538 503 572 q 622 559 579 553 q 703 565 664 565 q 836 514 836 565 q 817 473 836 490 q 767 447 797 456 q 707 438 738 438 q 636 446 675 438 q 561 468 597 454 q 500 500 525 482 q 269 384 369 463 q 119 208 168 306 q 93 106 93 156 q 128 6 93 44 q 220 -51 163 -33 q 347 -69 278 -69 q 576 -33 463 -69 q 771 76 690 4 q 881 281 881 174 q 799 365 881 365 q 703 344 756 365 q 603 286 650 322 q 526 207 557 250 q 496 119 496 164 q 535 65 496 75 q 549 51 549 60 q 528 40 549 40 q 454 122 454 40 q 486 225 454 176 q 569 311 518 274 q 679 370 619 349 q 794 392 739 392 q 896 363 860 392 q 932 271 932 335 q 789 28 932 142 q 589 -78 699 -46 q 356 -111 479 -111 m 694 468 q 769 511 769 468 q 694 531 769 531 q 626 526 661 531 q 554 515 590 522 q 694 468 614 468 m 239 -276 q 219 -262 229 -276 q 210 -236 210 -247 q 250 -186 210 -215 q 292 -171 278 -169 q 299 -183 306 -172 l 276 -239 q 239 -276 260 -276 m 796 972 q 790 981 793 972 q 793 992 788 989 q 817 1009 800 997 q 856 1036 833 1021 q 908 1070 888 1056 q 942 1085 928 1085 q 963 1076 954 1085 q 981 1057 971 1068 q 1001 1037 992 1046 q 1019 1018 1010 1028 q 1033 1003 1026 1011 q 1040 986 1040 994 q 1034 974 1040 981 q 1014 967 1028 968 q 995 974 1004 967 q 975 990 986 981 q 951 1015 964 1001 q 929 1040 939 1029 q 865 1006 908 1029 q 824 982 842 992 q 796 972 807 972 z "},"Ề":{"ha":960,"x_min":4,"x_max":1078,"o":"m 356 -111 q 183 -87 263 -111 q 53 -15 103 -64 q 4 107 4 33 q 40 221 4 164 q 476 522 168 424 q 431 642 431 575 q 460 735 431 696 q 632 864 517 813 q 765 907 697 892 q 901 922 832 922 q 1033 894 988 922 q 1078 817 1078 867 q 1059 753 1078 782 q 1013 708 1040 725 q 956 690 985 690 q 913 711 913 690 q 931 724 913 724 q 945 722 936 724 q 958 719 954 719 q 1010 750 988 719 q 1032 811 1032 781 q 990 875 1032 856 q 894 894 947 894 q 636 810 763 894 q 503 613 503 722 q 531 538 503 572 q 622 559 579 553 q 703 565 664 565 q 836 514 836 565 q 817 473 836 490 q 767 447 797 456 q 707 438 738 438 q 636 446 675 438 q 561 468 597 454 q 500 500 525 482 q 269 384 369 463 q 119 208 168 306 q 93 106 93 156 q 128 6 93 44 q 220 -51 163 -33 q 347 -69 278 -69 q 576 -33 463 -69 q 771 76 690 4 q 881 281 881 174 q 799 365 881 365 q 703 344 756 365 q 603 286 650 322 q 526 207 557 250 q 496 119 496 164 q 535 65 496 75 q 549 51 549 60 q 528 40 549 40 q 454 122 454 40 q 486 225 454 176 q 569 311 518 274 q 679 370 619 349 q 794 392 739 392 q 896 363 860 392 q 932 271 932 335 q 789 28 932 142 q 589 -78 699 -46 q 356 -111 479 -111 m 694 468 q 769 511 769 468 q 694 531 769 531 q 626 526 661 531 q 554 515 590 522 q 694 468 614 468 m 796 972 q 790 981 793 972 q 793 992 788 989 q 817 1009 800 997 q 856 1036 833 1021 q 908 1070 888 1056 q 942 1085 928 1085 q 963 1076 954 1085 q 981 1057 971 1068 q 1001 1037 992 1046 q 1019 1018 1010 1028 q 1033 1003 1026 1011 q 1040 986 1040 994 q 1034 974 1040 981 q 1014 967 1028 968 q 995 974 1004 967 q 975 990 986 981 q 951 1015 964 1001 q 929 1040 939 1029 q 865 1006 908 1029 q 824 982 842 992 q 796 972 807 972 m 1060 1124 q 971 1135 1022 1124 q 915 1149 936 1142 q 885 1160 894 1156 q 869 1168 878 1163 q 860 1183 860 1174 q 867 1206 860 1194 q 882 1218 874 1218 q 894 1217 886 1218 q 915 1208 903 1215 q 981 1178 944 1194 q 1057 1144 1017 1161 q 1071 1132 1071 1139 q 1060 1124 1071 1124 z "},"Ể":{"ha":960,"x_min":4,"x_max":1221,"o":"m 356 -111 q 183 -87 263 -111 q 53 -15 103 -64 q 4 107 4 33 q 40 221 4 164 q 476 522 168 424 q 431 642 431 575 q 460 735 431 696 q 632 864 517 813 q 765 907 697 892 q 901 922 832 922 q 1033 894 988 922 q 1078 817 1078 867 q 1059 753 1078 782 q 1013 708 1040 725 q 956 690 985 690 q 913 711 913 690 q 931 724 913 724 q 945 722 936 724 q 958 719 954 719 q 1010 750 988 719 q 1032 811 1032 781 q 990 875 1032 856 q 894 894 947 894 q 636 810 763 894 q 503 613 503 722 q 531 538 503 572 q 622 559 579 553 q 703 565 664 565 q 836 514 836 565 q 817 473 836 490 q 767 447 797 456 q 707 438 738 438 q 636 446 675 438 q 561 468 597 454 q 500 500 525 482 q 269 384 369 463 q 119 208 168 306 q 93 106 93 156 q 128 6 93 44 q 220 -51 163 -33 q 347 -69 278 -69 q 576 -33 463 -69 q 771 76 690 4 q 881 281 881 174 q 799 365 881 365 q 703 344 756 365 q 603 286 650 322 q 526 207 557 250 q 496 119 496 164 q 535 65 496 75 q 549 51 549 60 q 528 40 549 40 q 454 122 454 40 q 486 225 454 176 q 569 311 518 274 q 679 370 619 349 q 794 392 739 392 q 896 363 860 392 q 932 271 932 335 q 789 28 932 142 q 589 -78 699 -46 q 356 -111 479 -111 m 694 468 q 769 511 769 468 q 694 531 769 531 q 626 526 661 531 q 554 515 590 522 q 694 468 614 468 m 796 972 q 790 981 793 972 q 793 992 788 989 q 817 1009 800 997 q 856 1036 833 1021 q 908 1070 888 1056 q 942 1085 928 1085 q 963 1076 954 1085 q 981 1057 971 1068 q 1001 1037 992 1046 q 1019 1018 1010 1028 q 1033 1003 1026 1011 q 1040 986 1040 994 q 1034 974 1040 981 q 1014 967 1028 968 q 995 974 1004 967 q 975 990 986 981 q 951 1015 964 1001 q 929 1040 939 1029 q 865 1006 908 1029 q 824 982 842 992 q 796 972 807 972 m 1111 1071 q 1104 1075 1106 1071 q 1106 1081 1103 1079 q 1156 1116 1133 1100 q 1178 1154 1178 1132 q 1154 1175 1178 1175 q 1120 1167 1140 1175 q 1085 1143 1100 1158 q 1084 1142 1085 1143 q 1082 1142 1083 1142 q 1079 1144 1081 1142 q 1079 1150 1078 1147 q 1119 1199 1090 1182 q 1183 1213 1147 1215 q 1211 1198 1201 1211 q 1221 1169 1221 1185 q 1210 1133 1221 1149 q 1182 1107 1200 1118 q 1139 1081 1156 1090 q 1115 1071 1122 1071 l 1111 1071 z "},"Ễ":{"ha":960,"x_min":4,"x_max":1113,"o":"m 356 -111 q 183 -87 263 -111 q 53 -15 103 -64 q 4 107 4 33 q 40 221 4 164 q 476 522 168 424 q 431 642 431 575 q 460 735 431 696 q 632 864 517 813 q 765 907 697 892 q 901 922 832 922 q 1033 894 988 922 q 1078 817 1078 867 q 1059 753 1078 782 q 1013 708 1040 725 q 956 690 985 690 q 913 711 913 690 q 931 724 913 724 q 945 722 936 724 q 958 719 954 719 q 1010 750 988 719 q 1032 811 1032 781 q 990 875 1032 856 q 894 894 947 894 q 636 810 763 894 q 503 613 503 722 q 531 538 503 572 q 622 559 579 553 q 703 565 664 565 q 836 514 836 565 q 817 473 836 490 q 767 447 797 456 q 707 438 738 438 q 636 446 675 438 q 561 468 597 454 q 500 500 525 482 q 269 384 369 463 q 119 208 168 306 q 93 106 93 156 q 128 6 93 44 q 220 -51 163 -33 q 347 -69 278 -69 q 576 -33 463 -69 q 771 76 690 4 q 881 281 881 174 q 799 365 881 365 q 703 344 756 365 q 603 286 650 322 q 526 207 557 250 q 496 119 496 164 q 535 65 496 75 q 549 51 549 60 q 528 40 549 40 q 454 122 454 40 q 486 225 454 176 q 569 311 518 274 q 679 370 619 349 q 794 392 739 392 q 896 363 860 392 q 932 271 932 335 q 789 28 932 142 q 589 -78 699 -46 q 356 -111 479 -111 m 694 468 q 769 511 769 468 q 694 531 769 531 q 626 526 661 531 q 554 515 590 522 q 694 468 614 468 m 796 972 q 790 981 793 972 q 793 992 788 989 q 817 1009 800 997 q 856 1036 833 1021 q 908 1070 888 1056 q 942 1085 928 1085 q 963 1076 954 1085 q 981 1057 971 1068 q 1001 1037 992 1046 q 1019 1018 1010 1028 q 1033 1003 1026 1011 q 1040 986 1040 994 q 1034 974 1040 981 q 1014 967 1028 968 q 995 974 1004 967 q 975 990 986 981 q 951 1015 964 1001 q 929 1040 939 1029 q 865 1006 908 1029 q 824 982 842 992 q 796 972 807 972 m 1025 1115 q 997 1120 1014 1115 q 958 1135 981 1125 q 896 1156 917 1156 q 874 1151 886 1156 q 851 1136 863 1147 q 824 1117 832 1117 q 822 1119 822 1118 q 879 1182 822 1143 q 926 1197 899 1197 q 989 1181 947 1197 q 1025 1169 1010 1172 q 1050 1165 1040 1165 q 1106 1197 1081 1165 q 1113 1192 1113 1197 q 1061 1128 1113 1167 q 1025 1115 1044 1115 z "},"Ȅ":{"ha":960,"x_min":4,"x_max":1078,"o":"m 356 -111 q 183 -87 263 -111 q 53 -15 103 -64 q 4 107 4 33 q 40 221 4 164 q 476 522 168 424 q 431 642 431 575 q 460 735 431 696 q 632 864 517 813 q 765 907 697 892 q 901 922 832 922 q 1033 894 988 922 q 1078 817 1078 867 q 1059 753 1078 782 q 1013 708 1040 725 q 956 690 985 690 q 913 711 913 690 q 931 724 913 724 q 945 722 936 724 q 958 719 954 719 q 1010 750 988 719 q 1032 811 1032 781 q 990 875 1032 856 q 894 894 947 894 q 636 810 763 894 q 503 613 503 722 q 531 538 503 572 q 622 559 579 553 q 703 565 664 565 q 836 514 836 565 q 817 473 836 490 q 767 447 797 456 q 707 438 738 438 q 636 446 675 438 q 561 468 597 454 q 500 500 525 482 q 269 384 369 463 q 119 208 168 306 q 93 106 93 156 q 128 6 93 44 q 220 -51 163 -33 q 347 -69 278 -69 q 576 -33 463 -69 q 771 76 690 4 q 881 281 881 174 q 799 365 881 365 q 703 344 756 365 q 603 286 650 322 q 526 207 557 250 q 496 119 496 164 q 535 65 496 75 q 549 51 549 60 q 528 40 549 40 q 454 122 454 40 q 486 225 454 176 q 569 311 518 274 q 679 370 619 349 q 794 392 739 392 q 896 363 860 392 q 932 271 932 335 q 789 28 932 142 q 589 -78 699 -46 q 356 -111 479 -111 m 694 468 q 769 511 769 468 q 694 531 769 531 q 626 526 661 531 q 554 515 590 522 q 694 468 614 468 m 1021 985 q 994 999 1013 988 q 940 1033 975 1010 q 897 1069 913 1054 q 874 1094 881 1085 q 865 1108 869 1100 q 861 1122 860 1115 q 875 1141 863 1132 q 893 1149 888 1150 q 914 1132 901 1147 l 1028 1001 q 1032 992 1032 999 q 1021 985 1029 981 m 882 985 q 853 994 874 988 q 794 1019 832 1001 q 744 1047 764 1035 q 718 1067 725 1060 q 706 1078 713 1072 q 700 1093 700 1085 q 711 1113 700 1103 q 728 1124 722 1124 q 751 1111 738 1124 l 886 1003 q 892 993 892 999 q 882 985 892 982 z "},"Ë":{"ha":960,"x_min":4,"x_max":1138,"o":"m 890 983 q 871 998 881 983 q 861 1024 861 1013 q 901 1074 861 1044 q 965 1103 943 1103 q 967 1102 967 1103 q 969 1101 968 1101 q 950 1076 968 1101 l 928 1021 q 890 983 911 983 m 1058 983 q 1039 998 1049 983 q 1029 1024 1029 1013 q 1069 1074 1029 1044 q 1133 1103 1111 1103 q 1135 1102 1135 1103 q 1138 1101 1136 1101 q 1118 1076 1136 1101 l 1096 1021 q 1058 983 1079 983 m 407 -110 q 99 -51 207 -119 q 4 107 4 10 q 40 221 4 164 q 476 522 168 424 q 431 642 431 575 q 460 735 431 696 q 632 864 517 813 q 863 921 744 913 q 1026 898 972 928 q 1078 810 1081 868 q 1038 726 1075 761 q 956 690 999 690 q 913 711 913 690 q 931 724 913 724 q 945 722 936 724 q 958 719 954 719 q 1010 750 988 719 q 1032 811 1032 781 q 978 881 1032 858 q 869 893 935 897 q 636 810 751 888 q 503 613 503 722 q 531 538 503 572 q 628 560 582 553 q 714 565 674 567 q 836 514 836 564 q 828 489 836 504 q 707 438 794 438 q 588 458 650 438 q 500 500 532 478 q 269 384 369 463 q 119 208 168 306 q 93 106 93 156 q 154 -18 93 28 q 347 -69 222 -69 q 419 -65 382 -69 q 771 76 640 -42 q 881 281 881 174 q 799 365 881 365 q 572 260 700 365 q 518 193 540 233 q 496 119 496 153 q 535 65 496 75 q 549 51 549 60 q 521 40 549 38 q 454 122 454 43 q 542 289 454 214 q 794 392 661 392 q 921 329 894 392 q 932 271 932 300 q 789 28 932 142 q 407 -110 633 -99 m 694 468 q 769 511 769 468 q 694 531 769 531 q 626 526 661 531 q 554 515 590 522 q 611 483 582 493 q 694 468 653 468 z "},"Ė":{"ha":960,"x_min":4,"x_max":1078,"o":"m 356 -111 q 183 -87 263 -111 q 53 -15 103 -64 q 4 107 4 33 q 40 221 4 164 q 476 522 168 424 q 431 642 431 575 q 460 735 431 696 q 632 864 517 813 q 765 907 697 892 q 901 922 832 922 q 1033 894 988 922 q 1078 817 1078 867 q 1059 753 1078 782 q 1013 708 1040 725 q 956 690 985 690 q 913 711 913 690 q 931 724 913 724 q 945 722 936 724 q 958 719 954 719 q 1010 750 988 719 q 1032 811 1032 781 q 990 875 1032 856 q 894 894 947 894 q 636 810 763 894 q 503 613 503 722 q 531 538 503 572 q 622 559 579 553 q 703 565 664 565 q 836 514 836 565 q 817 473 836 490 q 767 447 797 456 q 707 438 738 438 q 636 446 675 438 q 561 468 597 454 q 500 500 525 482 q 269 384 369 463 q 119 208 168 306 q 93 106 93 156 q 128 6 93 44 q 220 -51 163 -33 q 347 -69 278 -69 q 576 -33 463 -69 q 771 76 690 4 q 881 281 881 174 q 799 365 881 365 q 703 344 756 365 q 603 286 650 322 q 526 207 557 250 q 496 119 496 164 q 535 65 496 75 q 549 51 549 60 q 528 40 549 40 q 454 122 454 40 q 486 225 454 176 q 569 311 518 274 q 679 370 619 349 q 794 392 739 392 q 896 363 860 392 q 932 271 932 335 q 789 28 932 142 q 589 -78 699 -46 q 356 -111 479 -111 m 694 468 q 769 511 769 468 q 694 531 769 531 q 626 526 661 531 q 554 515 590 522 q 694 468 614 468 m 876 989 q 857 1003 867 989 q 847 1029 847 1018 q 889 1079 847 1050 q 953 1108 931 1108 q 957 1107 956 1108 q 938 1082 956 1107 l 914 1026 q 876 989 897 989 z "},"Ẹ":{"ha":960,"x_min":4,"x_max":1078,"o":"m 356 -111 q 183 -87 263 -111 q 53 -15 103 -64 q 4 107 4 33 q 40 221 4 164 q 476 522 168 424 q 431 642 431 575 q 460 735 431 696 q 632 864 517 813 q 765 907 697 892 q 901 922 832 922 q 1033 894 988 922 q 1078 817 1078 867 q 1059 753 1078 782 q 1013 708 1040 725 q 956 690 985 690 q 913 711 913 690 q 931 724 913 724 q 945 722 936 724 q 958 719 954 719 q 1010 750 988 719 q 1032 811 1032 781 q 990 875 1032 856 q 894 894 947 894 q 636 810 763 894 q 503 613 503 722 q 531 538 503 572 q 622 559 579 553 q 703 565 664 565 q 836 514 836 565 q 817 473 836 490 q 767 447 797 456 q 707 438 738 438 q 636 446 675 438 q 561 468 597 454 q 500 500 525 482 q 269 384 369 463 q 119 208 168 306 q 93 106 93 156 q 128 6 93 44 q 220 -51 163 -33 q 347 -69 278 -69 q 576 -33 463 -69 q 771 76 690 4 q 881 281 881 174 q 799 365 881 365 q 703 344 756 365 q 603 286 650 322 q 526 207 557 250 q 496 119 496 164 q 535 65 496 75 q 549 51 549 60 q 528 40 549 40 q 454 122 454 40 q 486 225 454 176 q 569 311 518 274 q 679 370 619 349 q 794 392 739 392 q 896 363 860 392 q 932 271 932 335 q 789 28 932 142 q 589 -78 699 -46 q 356 -111 479 -111 m 694 468 q 769 511 769 468 q 694 531 769 531 q 626 526 661 531 q 554 515 590 522 q 694 468 614 468 m 239 -276 q 219 -262 229 -276 q 210 -236 210 -247 q 250 -186 210 -215 q 292 -171 278 -169 q 299 -183 306 -172 l 276 -239 q 239 -276 260 -276 z "},"È":{"ha":960,"x_min":4,"x_max":1078,"o":"m 356 -111 q 183 -87 263 -111 q 53 -15 103 -64 q 4 107 4 33 q 40 221 4 164 q 476 522 168 424 q 431 642 431 575 q 460 735 431 696 q 632 864 517 813 q 765 907 697 892 q 901 922 832 922 q 1033 894 988 922 q 1078 817 1078 867 q 1059 753 1078 782 q 1013 708 1040 725 q 956 690 985 690 q 913 711 913 690 q 931 724 913 724 q 945 722 936 724 q 958 719 954 719 q 1010 750 988 719 q 1032 811 1032 781 q 990 875 1032 856 q 894 894 947 894 q 636 810 763 894 q 503 613 503 722 q 531 538 503 572 q 622 559 579 553 q 703 565 664 565 q 836 514 836 565 q 817 473 836 490 q 767 447 797 456 q 707 438 738 438 q 636 446 675 438 q 561 468 597 454 q 500 500 525 482 q 269 384 369 463 q 119 208 168 306 q 93 106 93 156 q 128 6 93 44 q 220 -51 163 -33 q 347 -69 278 -69 q 576 -33 463 -69 q 771 76 690 4 q 881 281 881 174 q 799 365 881 365 q 703 344 756 365 q 603 286 650 322 q 526 207 557 250 q 496 119 496 164 q 535 65 496 75 q 549 51 549 60 q 528 40 549 40 q 454 122 454 40 q 486 225 454 176 q 569 311 518 274 q 679 370 619 349 q 794 392 739 392 q 896 363 860 392 q 932 271 932 335 q 789 28 932 142 q 589 -78 699 -46 q 356 -111 479 -111 m 694 468 q 769 511 769 468 q 694 531 769 531 q 626 526 661 531 q 554 515 590 522 q 694 468 614 468 m 975 992 q 886 1003 938 992 q 831 1017 851 1010 q 800 1028 810 1024 q 784 1036 793 1031 q 775 1051 775 1042 q 782 1074 775 1063 q 797 1086 789 1086 q 810 1085 801 1086 q 831 1076 818 1083 q 896 1046 860 1063 q 972 1013 932 1029 q 986 1000 986 1007 q 975 992 986 992 z "},"Ẻ":{"ha":960,"x_min":4,"x_max":1078,"o":"m 356 -111 q 183 -87 263 -111 q 53 -15 103 -64 q 4 107 4 33 q 40 221 4 164 q 476 522 168 424 q 431 642 431 575 q 460 735 431 696 q 632 864 517 813 q 765 907 697 892 q 901 922 832 922 q 1033 894 988 922 q 1078 817 1078 867 q 1059 753 1078 782 q 1013 708 1040 725 q 956 690 985 690 q 913 711 913 690 q 931 724 913 724 q 945 722 936 724 q 958 719 954 719 q 1010 750 988 719 q 1032 811 1032 781 q 990 875 1032 856 q 894 894 947 894 q 636 810 763 894 q 503 613 503 722 q 531 538 503 572 q 622 559 579 553 q 703 565 664 565 q 836 514 836 565 q 817 473 836 490 q 767 447 797 456 q 707 438 738 438 q 636 446 675 438 q 561 468 597 454 q 500 500 525 482 q 269 384 369 463 q 119 208 168 306 q 93 106 93 156 q 128 6 93 44 q 220 -51 163 -33 q 347 -69 278 -69 q 576 -33 463 -69 q 771 76 690 4 q 881 281 881 174 q 799 365 881 365 q 703 344 756 365 q 603 286 650 322 q 526 207 557 250 q 496 119 496 164 q 535 65 496 75 q 549 51 549 60 q 528 40 549 40 q 454 122 454 40 q 486 225 454 176 q 569 311 518 274 q 679 370 619 349 q 794 392 739 392 q 896 363 860 392 q 932 271 932 335 q 789 28 932 142 q 589 -78 699 -46 q 356 -111 479 -111 m 694 468 q 769 511 769 468 q 694 531 769 531 q 626 526 661 531 q 554 515 590 522 q 694 468 614 468 m 869 989 q 863 993 864 989 q 864 999 861 997 q 914 1034 892 1018 q 936 1072 936 1050 q 913 1093 936 1093 q 878 1085 899 1093 q 843 1061 858 1076 q 842 1060 843 1061 q 840 1060 842 1060 q 838 1063 839 1060 q 838 1068 836 1065 q 877 1117 849 1100 q 942 1131 906 1133 q 969 1116 960 1129 q 979 1088 979 1103 q 969 1051 979 1067 q 940 1025 958 1036 q 897 999 914 1008 q 874 989 881 989 l 869 989 z "},"Ȇ":{"ha":960,"x_min":4,"x_max":1078,"o":"m 356 -111 q 183 -87 263 -111 q 53 -15 103 -64 q 4 107 4 33 q 40 221 4 164 q 476 522 168 424 q 431 642 431 575 q 460 735 431 696 q 632 864 517 813 q 765 907 697 892 q 901 922 832 922 q 1033 894 988 922 q 1078 817 1078 867 q 1059 753 1078 782 q 1013 708 1040 725 q 956 690 985 690 q 913 711 913 690 q 931 724 913 724 q 945 722 936 724 q 958 719 954 719 q 1010 750 988 719 q 1032 811 1032 781 q 990 875 1032 856 q 894 894 947 894 q 636 810 763 894 q 503 613 503 722 q 531 538 503 572 q 622 559 579 553 q 703 565 664 565 q 836 514 836 565 q 817 473 836 490 q 767 447 797 456 q 707 438 738 438 q 636 446 675 438 q 561 468 597 454 q 500 500 525 482 q 269 384 369 463 q 119 208 168 306 q 93 106 93 156 q 128 6 93 44 q 220 -51 163 -33 q 347 -69 278 -69 q 576 -33 463 -69 q 771 76 690 4 q 881 281 881 174 q 799 365 881 365 q 703 344 756 365 q 603 286 650 322 q 526 207 557 250 q 496 119 496 164 q 535 65 496 75 q 549 51 549 60 q 528 40 549 40 q 454 122 454 40 q 486 225 454 176 q 569 311 518 274 q 679 370 619 349 q 794 392 739 392 q 896 363 860 392 q 932 271 932 335 q 789 28 932 142 q 589 -78 699 -46 q 356 -111 479 -111 m 694 468 q 769 511 769 468 q 694 531 769 531 q 626 526 661 531 q 554 515 590 522 q 694 468 614 468 m 988 1151 q 1047 1128 1028 1151 q 1063 1067 1065 1106 q 1056 1033 1061 1050 q 1036 1015 1050 1015 q 1024 1024 1026 1015 q 1021 1042 1021 1033 q 963 1097 1017 1097 q 889 1082 926 1097 q 818 1039 851 1067 q 781 1015 789 1015 q 774 1021 774 1015 q 782 1034 774 1024 q 813 1067 790 1044 q 892 1126 846 1100 q 988 1151 939 1151 z "},"Ē":{"ha":960,"x_min":4,"x_max":1078,"o":"m 356 -111 q 183 -87 263 -111 q 53 -15 103 -64 q 4 107 4 33 q 40 221 4 164 q 476 522 168 424 q 431 642 431 575 q 460 735 431 696 q 632 864 517 813 q 765 907 697 892 q 901 922 832 922 q 1033 894 988 922 q 1078 817 1078 867 q 1059 753 1078 782 q 1013 708 1040 725 q 956 690 985 690 q 913 711 913 690 q 931 724 913 724 q 945 722 936 724 q 958 719 954 719 q 1010 750 988 719 q 1032 811 1032 781 q 990 875 1032 856 q 894 894 947 894 q 636 810 763 894 q 503 613 503 722 q 531 538 503 572 q 622 559 579 553 q 703 565 664 565 q 836 514 836 565 q 817 473 836 490 q 767 447 797 456 q 707 438 738 438 q 636 446 675 438 q 561 468 597 454 q 500 500 525 482 q 269 384 369 463 q 119 208 168 306 q 93 106 93 156 q 128 6 93 44 q 220 -51 163 -33 q 347 -69 278 -69 q 576 -33 463 -69 q 771 76 690 4 q 881 281 881 174 q 799 365 881 365 q 703 344 756 365 q 603 286 650 322 q 526 207 557 250 q 496 119 496 164 q 535 65 496 75 q 549 51 549 60 q 528 40 549 40 q 454 122 454 40 q 486 225 454 176 q 569 311 518 274 q 679 370 619 349 q 794 392 739 392 q 896 363 860 392 q 932 271 932 335 q 789 28 932 142 q 589 -78 699 -46 q 356 -111 479 -111 m 694 468 q 769 511 769 468 q 694 531 769 531 q 626 526 661 531 q 554 515 590 522 q 694 468 614 468 m 778 999 q 760 1015 771 999 q 749 1039 750 1031 l 751 1040 q 799 1049 765 1047 q 886 1050 833 1050 q 1033 1033 1000 1050 q 1038 1029 1038 1032 q 1035 1021 1038 1026 q 1029 1015 1033 1015 q 903 1007 986 1015 q 778 999 819 999 z "},"Ŋ":{"ha":1285,"x_min":3,"x_max":1536,"o":"m 490 -399 q 482 -340 481 -367 q 482 -304 483 -314 q 489 -299 485 -299 q 513 -320 500 -299 q 539 -379 526 -342 q 583 -464 558 -440 q 635 -483 608 -487 q 690 -454 663 -478 q 744 -397 718 -431 q 792 -329 769 -364 q 833 -259 806 -308 q 896 -143 860 -210 q 970 -5 932 -76 q 1043 133 1008 67 q 1103 250 1078 200 q 1169 372 1128 299 q 1261 527 1210 444 q 1368 688 1313 610 q 890 396 1183 671 q 697 206 775 286 q 574 51 619 126 q 547 8 560 28 q 517 -32 533 -12 q 494 -44 508 -40 q 467 -49 481 -49 q 434 -40 442 -49 q 431 -24 426 -31 q 468 38 438 -8 q 542 147 499 83 q 660 325 614 251 q 728 438 706 399 q 822 706 822 607 q 807 778 822 744 q 693 828 785 828 q 342 676 528 828 q 217 559 272 619 q 124 435 163 499 q 54 224 54 317 q 178 88 54 90 q 438 203 350 83 q 471 289 471 249 q 456 321 471 313 q 454 325 454 322 q 463 331 454 331 q 499 283 499 331 q 475 210 499 254 q 379 115 443 154 q 201 65 299 65 q 57 119 111 65 q 3 265 3 174 q 300 721 3 482 q 494 821 375 781 q 714 861 615 861 q 856 821 811 861 q 892 722 892 788 q 811 461 892 624 q 765 378 793 425 q 700 274 738 331 q 840 411 743 328 q 1164 653 1015 558 q 1435 793 1313 749 q 1463 799 1447 799 q 1529 739 1515 799 q 1463 640 1536 715 q 1351 508 1404 582 q 1249 354 1297 433 q 1158 201 1201 275 q 1138 163 1157 197 q 1089 73 1118 128 q 1026 -47 1060 18 q 958 -174 992 -111 q 896 -290 924 -237 q 852 -372 868 -342 q 838 -399 836 -401 q 766 -483 807 -456 q 681 -513 725 -510 q 597 -502 638 -517 q 528 -460 557 -487 q 490 -399 500 -432 z "},"Ę":{"ha":960,"x_min":4,"x_max":1078,"o":"m 356 -111 q 183 -87 263 -111 q 53 -15 103 -64 q 4 107 4 33 q 40 221 4 164 q 476 522 168 424 q 431 642 431 575 q 460 735 431 696 q 632 864 517 813 q 765 907 697 892 q 901 922 832 922 q 1033 894 988 922 q 1078 817 1078 867 q 1059 753 1078 782 q 1013 708 1040 725 q 956 690 985 690 q 913 711 913 690 q 931 724 913 724 q 945 722 936 724 q 958 719 954 719 q 1010 750 988 719 q 1032 811 1032 781 q 990 875 1032 856 q 894 894 947 894 q 636 810 763 894 q 503 613 503 722 q 531 538 503 572 q 622 559 579 553 q 703 565 664 565 q 836 514 836 565 q 817 473 836 490 q 767 447 797 456 q 707 438 738 438 q 636 446 675 438 q 561 468 597 454 q 500 500 525 482 q 269 384 369 463 q 119 208 168 306 q 93 106 93 156 q 128 6 93 44 q 220 -51 163 -33 q 347 -69 278 -69 q 576 -33 463 -69 q 771 76 690 4 q 881 281 881 174 q 799 365 881 365 q 703 344 756 365 q 603 286 650 322 q 526 207 557 250 q 496 119 496 164 q 535 65 496 75 q 549 51 549 60 q 528 40 549 40 q 454 122 454 40 q 486 225 454 176 q 569 311 518 274 q 679 370 619 349 q 794 392 739 392 q 896 363 860 392 q 932 271 932 335 q 789 28 932 142 q 589 -78 699 -46 q 356 -111 479 -111 m 694 468 q 769 511 769 468 q 694 531 769 531 q 626 526 661 531 q 554 515 590 522 q 694 468 614 468 m 468 -256 q 401 -318 468 -296 q 353 -331 374 -328 q 318 -333 332 -333 q 242 -275 242 -333 q 268 -179 242 -237 q 329 -111 299 -112 l 333 -115 q 286 -237 286 -181 q 349 -294 286 -294 q 417 -279 381 -294 q 468 -256 454 -264 z "},"Ð":{"ha":1279,"x_min":21,"x_max":1286,"o":"m 593 -81 q 260 35 361 -92 q 81 -60 138 -60 q 33 -26 50 -60 q 21 35 21 1 q 72 226 21 101 q 185 368 133 368 q 225 285 211 368 q 268 113 249 160 q 344 198 300 146 q 442 318 388 250 q 404 322 425 318 q 360 351 360 331 q 372 376 360 367 q 394 385 385 385 q 399 385 396 385 q 408 386 403 385 l 444 386 q 469 387 456 386 q 496 386 482 388 l 542 446 q 840 769 767 742 q 890 779 865 779 q 935 767 918 779 q 953 740 953 756 q 913 713 953 717 q 763 585 864 686 q 670 487 711 533 q 600 400 629 440 l 589 385 q 729 389 682 385 q 621 344 740 365 l 551 335 q 427 188 490 254 q 303 69 364 121 l 294 63 q 539 -53 372 -53 q 566 -52 553 -53 q 593 -50 579 -51 q 1140 285 979 -14 q 1206 513 1206 404 q 1121 731 1206 638 q 969 826 1053 807 q 810 843 893 843 q 415 744 596 843 q 225 524 235 646 q 246 451 221 481 q 269 429 263 432 l 261 429 q 197 465 225 436 q 167 544 165 503 q 343 782 174 685 q 750 881 515 881 q 856 875 803 881 q 960 858 908 869 q 1179 736 1086 831 q 1286 485 1286 625 q 1225 269 1286 381 q 910 -11 1119 78 q 593 -81 764 -72 m 88 -35 q 232 75 147 -8 q 179 188 192 142 q 167 281 171 218 q 71 40 71 143 q 88 -35 71 -3 z "},"Ẽ":{"ha":960,"x_min":4,"x_max":1078,"o":"m 356 -111 q 183 -87 263 -111 q 53 -15 103 -64 q 4 107 4 33 q 40 221 4 164 q 476 522 168 424 q 431 642 431 575 q 460 735 431 696 q 632 864 517 813 q 765 907 697 892 q 901 922 832 922 q 1033 894 988 922 q 1078 817 1078 867 q 1059 753 1078 782 q 1013 708 1040 725 q 956 690 985 690 q 913 711 913 690 q 931 724 913 724 q 945 722 936 724 q 958 719 954 719 q 1010 750 988 719 q 1032 811 1032 781 q 990 875 1032 856 q 894 894 947 894 q 636 810 763 894 q 503 613 503 722 q 531 538 503 572 q 622 559 579 553 q 703 565 664 565 q 836 514 836 565 q 817 473 836 490 q 767 447 797 456 q 707 438 738 438 q 636 446 675 438 q 561 468 597 454 q 500 500 525 482 q 269 384 369 463 q 119 208 168 306 q 93 106 93 156 q 128 6 93 44 q 220 -51 163 -33 q 347 -69 278 -69 q 576 -33 463 -69 q 771 76 690 4 q 881 281 881 174 q 799 365 881 365 q 703 344 756 365 q 603 286 650 322 q 526 207 557 250 q 496 119 496 164 q 535 65 496 75 q 549 51 549 60 q 528 40 549 40 q 454 122 454 40 q 486 225 454 176 q 569 311 518 274 q 679 370 619 349 q 794 392 739 392 q 896 363 860 392 q 932 271 932 335 q 789 28 932 142 q 589 -78 699 -46 q 356 -111 479 -111 m 694 468 q 769 511 769 468 q 694 531 769 531 q 626 526 661 531 q 554 515 590 522 q 694 468 614 468 m 972 996 q 944 1001 961 996 q 906 1015 928 1006 q 843 1036 864 1036 q 822 1032 833 1036 q 799 1017 810 1028 q 771 997 779 997 q 769 1000 769 999 q 826 1063 769 1024 q 874 1078 846 1078 q 936 1061 894 1078 q 972 1049 957 1053 q 997 1046 988 1046 q 1053 1078 1028 1046 q 1060 1072 1060 1078 q 1008 1008 1060 1047 q 972 996 992 996 z "},"F":{"ha":878,"x_min":-17,"x_max":1011,"o":"m 353 -124 q 326 -108 326 -124 q 425 63 326 -78 q 520 188 469 124 q 626 319 571 253 q 536 306 575 310 q 474 301 497 301 q 468 308 468 303 q 485 332 468 318 q 513 346 501 346 q 533 346 515 346 q 581 347 550 346 l 651 347 q 724 449 672 375 q 861 642 776 522 q 928 800 928 738 q 783 897 928 897 q 598 865 696 897 q 406 780 500 833 q 239 664 313 726 q 96 501 149 588 q 43 346 43 414 q 197 238 43 228 q 363 339 282 244 q 432 497 440 432 q 468 454 468 490 q 393 317 468 394 q 278 235 342 265 q 146 204 215 204 q 26 245 68 204 q -17 354 -17 286 q 183 685 -17 518 q 372 810 271 757 q 581 894 474 864 q 790 924 688 924 q 951 890 892 924 q 1011 790 1011 856 q 957 653 1011 731 q 883 549 939 625 q 733 349 828 472 l 814 346 q 864 344 846 344 q 885 344 882 343 l 893 344 q 918 335 918 344 q 864 315 918 315 q 849 315 863 315 q 813 317 836 315 q 775 318 792 318 q 746 318 758 318 q 703 311 710 315 q 635 224 672 272 q 557 117 599 175 q 447 -61 447 -35 q 458 -64 447 -69 q 472 -56 468 -58 q 488 -60 488 -56 q 457 -81 488 -67 l 418 -101 q 353 -124 392 -124 z "},"G":{"ha":1150,"x_min":-21,"x_max":1317,"o":"m 707 -214 q 696 -196 696 -214 q 716 -124 696 -171 q 774 -8 736 -78 l 871 174 q 651 36 782 97 q 475 -29 568 -4 q 296 -54 382 -54 q 63 15 146 -54 q -21 199 -21 85 q 236 631 -21 411 q 378 731 299 683 q 544 813 457 778 q 719 869 632 849 q 885 889 807 889 q 1008 871 950 889 q 1102 819 1065 853 q 1139 735 1139 785 q 1111 653 1139 693 q 1040 581 1083 613 q 945 529 996 549 q 847 510 894 510 q 718 646 721 510 q 742 715 715 715 q 760 656 765 715 q 856 542 746 542 q 936 556 893 542 q 1016 594 979 569 q 1076 650 1053 619 q 1100 714 1100 681 q 1070 781 1100 756 q 994 819 1040 807 q 894 832 947 832 q 668 797 782 832 q 449 698 554 761 q 257 551 343 635 q 58 194 58 357 q 131 40 58 97 q 322 -18 204 -18 q 515 18 417 -18 q 703 106 614 54 q 974 321 883 207 l 1014 381 q 944 376 996 381 q 803 365 892 372 q 656 352 710 358 q 589 343 603 346 q 556 339 572 339 q 510 361 510 339 q 632 422 510 396 q 765 437 675 432 q 993 442 856 442 q 1304 422 1224 442 q 1317 415 1317 421 q 1221 393 1317 401 l 1153 388 q 1099 383 1114 383 q 732 -192 957 199 q 707 -214 719 -214 z "},"Ğ":{"ha":1150,"x_min":-21,"x_max":1317,"o":"m 707 -214 q 696 -196 696 -214 q 716 -124 696 -171 q 774 -8 736 -78 l 871 174 q 651 36 782 97 q 475 -29 568 -4 q 296 -54 382 -54 q 63 15 146 -54 q -21 199 -21 85 q 236 631 -21 411 q 378 731 299 683 q 544 813 457 778 q 719 869 632 849 q 885 889 807 889 q 1008 871 950 889 q 1102 819 1065 853 q 1139 735 1139 785 q 1111 653 1139 693 q 1040 581 1083 613 q 945 529 996 549 q 847 510 894 510 q 718 646 721 510 q 742 715 715 715 q 760 656 765 715 q 856 542 746 542 q 936 556 893 542 q 1016 594 979 569 q 1076 650 1053 619 q 1100 714 1100 681 q 1070 781 1100 756 q 994 819 1040 807 q 894 832 947 832 q 668 797 782 832 q 449 698 554 761 q 257 551 343 635 q 58 194 58 357 q 131 40 58 97 q 322 -18 204 -18 q 515 18 417 -18 q 703 106 614 54 q 974 321 883 207 l 1014 381 q 944 376 996 381 q 803 365 892 372 q 656 352 710 358 q 589 343 603 346 q 556 339 572 339 q 510 361 510 339 q 632 422 510 396 q 765 437 675 432 q 993 442 856 442 q 1304 422 1224 442 q 1317 415 1317 421 q 1221 393 1317 401 l 1153 388 q 1099 383 1114 383 q 732 -192 957 199 q 707 -214 719 -214 m 899 971 q 839 993 860 971 q 818 1053 818 1015 q 823 1087 818 1069 q 842 1104 828 1104 q 855 1095 853 1104 q 858 1078 857 1086 q 921 1025 867 1025 q 990 1042 953 1025 q 1071 1104 1028 1060 q 1096 1123 1082 1115 q 1110 1122 1110 1131 q 1099 1101 1110 1117 q 998 1004 1050 1038 q 899 971 946 971 z "},"Ǧ":{"ha":1150,"x_min":-21,"x_max":1317,"o":"m 707 -214 q 696 -196 696 -214 q 716 -124 696 -171 q 774 -8 736 -78 l 871 174 q 651 36 782 97 q 475 -29 568 -4 q 296 -54 382 -54 q 63 15 146 -54 q -21 199 -21 85 q 236 631 -21 411 q 378 731 299 683 q 544 813 457 778 q 719 869 632 849 q 885 889 807 889 q 1008 871 950 889 q 1102 819 1065 853 q 1139 735 1139 785 q 1111 653 1139 693 q 1040 581 1083 613 q 945 529 996 549 q 847 510 894 510 q 718 646 721 510 q 742 715 715 715 q 760 656 765 715 q 856 542 746 542 q 936 556 893 542 q 1016 594 979 569 q 1076 650 1053 619 q 1100 714 1100 681 q 1070 781 1100 756 q 994 819 1040 807 q 894 832 947 832 q 668 797 782 832 q 449 698 554 761 q 257 551 343 635 q 58 194 58 357 q 131 40 58 97 q 322 -18 204 -18 q 515 18 417 -18 q 703 106 614 54 q 974 321 883 207 l 1014 381 q 944 376 996 381 q 803 365 892 372 q 656 352 710 358 q 589 343 603 346 q 556 339 572 339 q 510 361 510 339 q 632 422 510 396 q 765 437 675 432 q 993 442 856 442 q 1304 422 1224 442 q 1317 415 1317 421 q 1221 393 1317 401 l 1153 388 q 1099 383 1114 383 q 732 -192 957 199 q 707 -214 719 -214 m 818 1093 q 834 1079 825 1093 q 858 1044 843 1065 q 868 1028 865 1038 q 875 1011 871 1019 q 935 1042 899 1022 q 993 1072 971 1063 q 1023 1085 1004 1078 q 1051 1093 1042 1093 q 1065 1085 1065 1093 q 1056 1069 1065 1079 q 1039 1054 1047 1060 q 969 1019 1008 1040 q 899 983 931 999 q 857 967 867 967 q 828 983 840 967 q 806 1024 817 1000 q 800 1042 803 1033 q 797 1061 797 1051 q 818 1093 797 1093 z "},"Ĝ":{"ha":1150,"x_min":-21,"x_max":1317,"o":"m 707 -214 q 696 -196 696 -214 q 716 -124 696 -171 q 774 -8 736 -78 l 871 174 q 651 36 782 97 q 475 -29 568 -4 q 296 -54 382 -54 q 63 15 146 -54 q -21 199 -21 85 q 236 631 -21 411 q 378 731 299 683 q 544 813 457 778 q 719 869 632 849 q 885 889 807 889 q 1008 871 950 889 q 1102 819 1065 853 q 1139 735 1139 785 q 1111 653 1139 693 q 1040 581 1083 613 q 945 529 996 549 q 847 510 894 510 q 718 646 721 510 q 742 715 715 715 q 760 656 765 715 q 856 542 746 542 q 936 556 893 542 q 1016 594 979 569 q 1076 650 1053 619 q 1100 714 1100 681 q 1070 781 1100 756 q 994 819 1040 807 q 894 832 947 832 q 668 797 782 832 q 449 698 554 761 q 257 551 343 635 q 58 194 58 357 q 131 40 58 97 q 322 -18 204 -18 q 515 18 417 -18 q 703 106 614 54 q 974 321 883 207 l 1014 381 q 944 376 996 381 q 803 365 892 372 q 656 352 710 358 q 589 343 603 346 q 556 339 572 339 q 510 361 510 339 q 632 422 510 396 q 765 437 675 432 q 993 442 856 442 q 1304 422 1224 442 q 1317 415 1317 421 q 1221 393 1317 401 l 1153 388 q 1099 383 1114 383 q 732 -192 957 199 q 707 -214 719 -214 m 797 947 q 792 956 794 947 q 794 967 789 964 q 818 984 801 972 q 857 1011 835 996 q 909 1045 889 1031 q 943 1060 929 1060 q 964 1051 956 1060 q 982 1032 972 1043 q 1002 1012 993 1021 q 1021 993 1011 1003 q 1035 978 1028 986 q 1042 961 1042 969 q 1035 949 1042 956 q 1015 942 1029 943 q 997 949 1006 942 q 976 965 988 956 q 953 990 965 976 q 931 1015 940 1004 q 867 981 910 1004 q 826 957 843 967 q 797 947 808 947 z "},"Ģ":{"ha":1150,"x_min":-21,"x_max":1317,"o":"m 707 -214 q 696 -196 696 -214 q 716 -124 696 -171 q 774 -8 736 -78 l 871 174 q 651 36 782 97 q 475 -29 568 -4 q 296 -54 382 -54 q 63 15 146 -54 q -21 199 -21 85 q 236 631 -21 411 q 378 731 299 683 q 544 813 457 778 q 719 869 632 849 q 885 889 807 889 q 1008 871 950 889 q 1102 819 1065 853 q 1139 735 1139 785 q 1111 653 1139 693 q 1040 581 1083 613 q 945 529 996 549 q 847 510 894 510 q 718 646 721 510 q 742 715 715 715 q 760 656 765 715 q 856 542 746 542 q 936 556 893 542 q 1016 594 979 569 q 1076 650 1053 619 q 1100 714 1100 681 q 1070 781 1100 756 q 994 819 1040 807 q 894 832 947 832 q 668 797 782 832 q 449 698 554 761 q 257 551 343 635 q 58 194 58 357 q 131 40 58 97 q 322 -18 204 -18 q 515 18 417 -18 q 703 106 614 54 q 974 321 883 207 l 1014 381 q 944 376 996 381 q 803 365 892 372 q 656 352 710 358 q 589 343 603 346 q 556 339 572 339 q 510 361 510 339 q 632 422 510 396 q 765 437 675 432 q 993 442 856 442 q 1304 422 1224 442 q 1317 415 1317 421 q 1221 393 1317 401 l 1153 388 q 1099 383 1114 383 q 732 -192 957 199 q 707 -214 719 -214 m 183 -306 q 178 -301 178 -304 q 210 -264 178 -300 q 238 -200 242 -228 q 218 -173 236 -185 q 200 -149 200 -161 q 240 -107 200 -107 q 279 -120 260 -107 q 299 -154 299 -133 q 250 -265 299 -212 q 183 -306 206 -311 z "},"Ġ":{"ha":1150,"x_min":-21,"x_max":1317,"o":"m 707 -214 q 696 -196 696 -214 q 716 -124 696 -171 q 774 -8 736 -78 l 871 174 q 651 36 782 97 q 475 -29 568 -4 q 296 -54 382 -54 q 63 15 146 -54 q -21 199 -21 85 q 236 631 -21 411 q 378 731 299 683 q 544 813 457 778 q 719 869 632 849 q 885 889 807 889 q 1008 871 950 889 q 1102 819 1065 853 q 1139 735 1139 785 q 1111 653 1139 693 q 1040 581 1083 613 q 945 529 996 549 q 847 510 894 510 q 718 646 721 510 q 742 715 715 715 q 760 656 765 715 q 856 542 746 542 q 936 556 893 542 q 1016 594 979 569 q 1076 650 1053 619 q 1100 714 1100 681 q 1070 781 1100 756 q 994 819 1040 807 q 894 832 947 832 q 668 797 782 832 q 449 698 554 761 q 257 551 343 635 q 58 194 58 357 q 131 40 58 97 q 322 -18 204 -18 q 515 18 417 -18 q 703 106 614 54 q 974 321 883 207 l 1014 381 q 944 376 996 381 q 803 365 892 372 q 656 352 710 358 q 589 343 603 346 q 556 339 572 339 q 510 361 510 339 q 632 422 510 396 q 765 437 675 432 q 993 442 856 442 q 1304 422 1224 442 q 1317 415 1317 421 q 1221 393 1317 401 l 1153 388 q 1099 383 1114 383 q 732 -192 957 199 q 707 -214 719 -214 m 878 964 q 858 978 868 964 q 849 1004 849 993 q 890 1054 849 1025 q 954 1083 932 1083 q 958 1082 957 1083 q 939 1057 957 1082 l 915 1001 q 878 964 899 964 z "},"ẞ":{"ha":807,"x_min":-258,"x_max":836,"o":"m 829 786 q 788 697 825 735 q 698 631 751 660 q 589 575 644 603 q 528 546 561 563 q 471 505 494 529 q 447 443 447 481 q 538 365 447 390 q 643 341 607 351 q 697 324 679 331 q 724 308 714 317 q 759 264 750 288 q 765 217 768 240 q 726 131 758 169 q 644 60 693 92 q 538 7 594 29 q 429 -26 482 -15 q 336 -37 376 -37 q 269 -28 306 -37 q 203 3 233 -18 q 158 57 172 24 q 147 107 147 88 q 164 144 150 126 q 199 161 178 161 q 218 131 221 161 q 217 119 217 125 q 217 108 217 114 q 226 54 217 82 q 261 8 235 26 q 336 -10 288 -10 q 451 10 390 -10 q 566 61 513 29 q 653 131 619 93 q 688 207 688 169 q 672 244 688 226 q 624 271 657 263 l 476 308 q 410 347 435 319 q 386 408 386 374 q 416 490 386 456 q 490 550 446 524 q 572 599 533 576 q 652 649 611 621 q 723 710 693 678 q 756 775 753 743 q 735 864 761 836 q 667 892 710 892 q 597 869 635 892 q 523 808 560 846 q 456 728 486 771 q 331 535 396 643 q 192 294 265 428 q 88 106 139 197 q -18 -53 36 15 q -135 -154 -72 -121 q -183 -172 -160 -167 q -225 -178 -207 -178 q -258 -167 -258 -178 q -208 -137 -258 -153 q -117 -72 -162 -122 q -26 48 -71 -22 q 60 193 19 118 q 136 332 101 268 q 265 579 204 454 q 397 803 326 704 q 482 881 433 851 q 583 922 531 910 q 682 935 636 935 q 792 899 747 935 q 829 786 836 863 z "},"H":{"ha":1321,"x_min":26,"x_max":1754,"o":"m 1050 -92 q 990 -61 1011 -92 q 969 11 969 -31 q 1043 231 969 92 q 940 226 992 226 q 799 231 903 226 l 621 236 q 463 -47 524 81 q 414 -85 444 -85 q 393 -65 393 -85 q 401 -35 393 -51 q 463 85 425 17 q 553 238 501 153 q 401 228 439 238 q 308 165 339 213 q 290 149 297 150 q 282 156 282 147 q 288 168 282 163 q 394 267 340 239 q 588 292 450 296 q 825 675 674 421 q 882 849 882 782 q 736 957 882 957 q 406 864 558 957 q 254 738 325 814 q 140 577 183 663 q 97 410 97 492 q 218 281 97 281 q 314 306 272 281 q 388 372 356 332 q 450 526 450 450 q 428 597 450 569 q 425 604 425 600 q 436 614 425 614 q 444 610 443 614 q 472 524 472 574 q 403 350 472 439 q 315 273 360 297 q 211 249 269 249 q 75 303 124 249 q 26 444 26 358 q 97 665 26 561 q 274 844 167 769 q 744 986 485 993 q 849 966 800 985 q 927 912 897 947 q 957 824 957 876 q 945 754 957 792 q 906 675 933 717 l 654 289 q 726 284 682 288 q 832 274 771 281 q 918 266 883 268 q 971 264 953 264 q 1026 264 1003 264 q 1063 265 1049 264 l 1115 353 q 1260 572 1185 468 q 1418 767 1336 675 q 1736 1019 1604 972 q 1746 1021 1740 1021 q 1754 1010 1754 1021 q 1750 1003 1754 1006 q 1645 920 1707 979 q 1501 767 1583 861 q 1342 567 1415 667 q 1208 365 1268 467 l 1154 274 q 1246 306 1218 282 q 1256 301 1251 310 q 1254 288 1260 292 q 1136 242 1213 256 q 1039 -12 1039 61 q 1079 -60 1039 -60 q 1144 -41 1107 -60 q 1203 1 1181 -22 q 1207 4 1206 4 q 1211 -4 1211 4 q 1204 -19 1210 -14 q 1160 -53 1188 -36 q 1102 -81 1132 -69 q 1050 -92 1072 -92 z "},"Ħ":{"ha":1321,"x_min":26,"x_max":1754,"o":"m 1050 -92 q 990 -61 1011 -92 q 969 11 969 -31 q 1043 231 969 92 q 940 226 992 226 q 799 231 903 226 l 621 236 q 463 -47 524 81 q 414 -85 444 -85 q 393 -65 393 -85 q 401 -35 393 -51 q 463 85 425 17 q 553 238 501 153 q 401 228 439 238 q 308 165 339 213 q 290 149 297 150 q 282 156 282 147 q 288 168 282 163 q 394 267 340 239 q 588 292 450 296 q 825 675 674 421 q 882 849 882 782 q 736 957 882 957 q 406 864 558 957 q 254 738 325 814 q 140 577 183 663 q 97 410 97 492 q 218 281 97 281 q 314 306 272 281 q 388 372 356 332 q 450 526 450 450 q 428 597 450 569 q 425 604 425 600 q 436 614 425 614 q 444 610 443 614 q 472 524 472 574 q 403 350 472 439 q 315 273 360 297 q 211 249 269 249 q 75 303 124 249 q 26 444 26 358 q 97 665 26 561 q 274 844 167 769 q 744 986 485 993 q 849 966 800 985 q 927 912 897 947 q 957 824 957 876 q 945 754 957 792 q 906 675 933 717 l 654 289 q 726 284 682 288 q 832 274 771 281 q 918 266 883 268 q 971 264 953 264 q 1026 264 1003 264 q 1063 265 1049 264 l 1115 353 q 1260 572 1185 468 q 1418 767 1336 675 q 1736 1019 1604 972 q 1746 1021 1740 1021 q 1754 1010 1754 1021 q 1750 1003 1754 1006 q 1645 920 1707 979 q 1501 767 1583 861 q 1342 567 1415 667 q 1208 365 1268 467 l 1154 274 q 1246 306 1218 282 q 1256 301 1251 310 q 1254 288 1260 292 q 1136 242 1213 256 q 1039 -12 1039 61 q 1079 -60 1039 -60 q 1144 -41 1107 -60 q 1203 1 1181 -22 q 1207 4 1206 4 q 1211 -4 1211 4 q 1204 -19 1210 -14 q 1160 -53 1188 -36 q 1102 -81 1132 -69 q 1050 -92 1072 -92 m 899 586 q 838 584 874 583 q 760 588 803 585 q 658 617 658 596 q 688 641 658 632 q 738 650 717 650 q 748 650 740 650 q 769 651 756 650 l 851 651 q 1029 651 921 653 q 1308 651 1190 650 q 1500 654 1426 651 q 1253 610 1524 631 q 1076 599 1165 604 q 899 586 986 593 z "},"Ĥ":{"ha":1321,"x_min":26,"x_max":1754,"o":"m 1050 -92 q 990 -61 1011 -92 q 969 11 969 -31 q 1043 231 969 92 q 940 226 992 226 q 799 231 903 226 l 621 236 q 463 -47 524 81 q 414 -85 444 -85 q 393 -65 393 -85 q 401 -35 393 -51 q 463 85 425 17 q 553 238 501 153 q 401 228 439 238 q 308 165 339 213 q 290 149 297 150 q 282 156 282 147 q 288 168 282 163 q 394 267 340 239 q 588 292 450 296 q 825 675 674 421 q 882 849 882 782 q 736 957 882 957 q 406 864 558 957 q 254 738 325 814 q 140 577 183 663 q 97 410 97 492 q 218 281 97 281 q 314 306 272 281 q 388 372 356 332 q 450 526 450 450 q 428 597 450 569 q 425 604 425 600 q 436 614 425 614 q 444 610 443 614 q 472 524 472 574 q 403 350 472 439 q 315 273 360 297 q 211 249 269 249 q 75 303 124 249 q 26 444 26 358 q 97 665 26 561 q 274 844 167 769 q 744 986 485 993 q 849 966 800 985 q 927 912 897 947 q 957 824 957 876 q 945 754 957 792 q 906 675 933 717 l 654 289 q 726 284 682 288 q 832 274 771 281 q 918 266 883 268 q 971 264 953 264 q 1026 264 1003 264 q 1063 265 1049 264 l 1115 353 q 1260 572 1185 468 q 1418 767 1336 675 q 1736 1019 1604 972 q 1746 1021 1740 1021 q 1754 1010 1754 1021 q 1750 1003 1754 1006 q 1645 920 1707 979 q 1501 767 1583 861 q 1342 567 1415 667 q 1208 365 1268 467 l 1154 274 q 1246 306 1218 282 q 1256 301 1251 310 q 1254 288 1260 292 q 1136 242 1213 256 q 1039 -12 1039 61 q 1079 -60 1039 -60 q 1144 -41 1107 -60 q 1203 1 1181 -22 q 1207 4 1206 4 q 1211 -4 1211 4 q 1204 -19 1210 -14 q 1160 -53 1188 -36 q 1102 -81 1132 -69 q 1050 -92 1072 -92 m 1163 1014 q 1157 1022 1160 1014 q 1160 1033 1154 1031 q 1183 1051 1167 1039 q 1222 1078 1200 1063 q 1274 1112 1254 1097 q 1308 1126 1294 1126 q 1329 1118 1321 1126 q 1347 1099 1338 1110 q 1367 1078 1358 1088 q 1386 1060 1376 1069 q 1400 1044 1393 1053 q 1407 1028 1407 1036 q 1401 1016 1407 1022 q 1381 1008 1394 1010 q 1362 1015 1371 1008 q 1342 1032 1353 1022 q 1318 1057 1331 1043 q 1296 1082 1306 1071 q 1232 1047 1275 1071 q 1191 1024 1208 1033 q 1163 1014 1174 1014 z "},"I":{"ha":800,"x_min":29,"x_max":1217,"o":"m 246 -96 q 29 160 29 -96 q 142 500 29 371 q 358 611 236 611 q 466 575 426 611 q 506 471 506 539 q 422 251 506 363 q 247 136 336 136 q 172 167 196 136 q 147 240 147 197 q 158 301 147 268 q 190 342 174 342 q 203 329 203 342 q 190 293 203 322 q 181 250 181 272 q 199 203 181 221 q 249 186 218 186 q 403 290 331 186 q 471 483 471 388 q 447 560 471 533 q 381 588 422 588 q 183 451 282 588 q 88 131 82 306 q 130 -1 90 53 q 236 -56 169 -56 q 715 443 424 -56 q 563 624 563 489 q 611 787 563 714 q 744 910 660 860 q 969 976 860 976 q 1085 962 1029 976 q 1179 916 1142 947 q 1217 835 1217 885 q 1209 803 1217 818 q 1193 788 1201 788 q 1181 797 1194 788 q 1150 806 1167 806 q 826 454 1032 806 q 838 453 832 453 q 849 453 843 453 q 916 465 883 453 q 970 500 949 478 q 992 550 992 522 q 987 573 992 561 q 982 588 982 585 q 993 599 982 599 q 1004 594 999 599 q 1036 536 1036 571 q 1010 475 1036 501 q 942 434 983 449 q 860 419 901 419 q 813 424 836 419 q 579 99 717 247 q 246 -96 396 -96 m 739 478 q 925 715 815 603 q 1138 851 1057 851 q 1174 842 1158 851 q 1149 890 1172 868 q 1092 924 1125 911 q 1031 938 1060 936 q 836 896 939 942 q 692 778 749 857 q 636 597 636 700 q 739 478 636 497 z "},"Ĳ":{"ha":1908,"x_min":25,"x_max":2242,"o":"m 996 -181 q 800 -111 867 -181 q 742 40 742 -50 q 772 167 742 110 q 985 388 846 308 q 1186 447 1094 451 q 1326 399 1275 443 q 1376 286 1376 356 q 1372 250 1376 269 q 1321 150 1361 194 q 1265 111 1286 111 q 1260 117 1260 111 q 1264 129 1260 121 q 1314 271 1314 203 q 1278 369 1314 329 q 1185 413 1243 408 q 1017 357 1108 418 q 846 153 913 289 q 811 21 811 85 q 865 -107 811 -61 q 1032 -151 925 -157 q 1749 468 1376 -132 q 1985 921 1979 838 l 1903 925 q 1739 893 1836 926 q 1597 800 1628 853 q 1585 760 1585 779 q 1611 699 1585 729 q 1638 663 1638 668 q 1621 653 1638 656 q 1554 678 1586 647 q 1524 753 1524 708 q 1549 824 1524 790 q 1725 926 1601 896 q 1817 944 1769 938 q 1914 949 1865 950 q 1982 944 1926 949 q 1997 978 1979 963 q 2036 994 2014 994 q 2076 935 2078 994 q 2235 854 2226 908 q 2221 806 2242 806 q 2210 839 2204 806 q 2072 911 2175 890 q 1811 422 2047 799 q 1446 8 1654 175 q 996 -181 1207 -181 m 246 -96 q 29 169 25 -96 q 142 500 31 372 q 358 611 236 611 q 392 608 376 611 q 424 600 408 606 q 506 471 506 568 q 422 251 506 363 q 247 136 336 136 q 174 164 197 136 q 149 227 151 188 q 158 301 146 267 q 190 342 174 342 q 203 329 203 342 q 190 293 203 322 q 178 244 178 267 q 200 206 178 225 q 249 186 222 186 q 403 290 331 186 q 471 483 471 388 q 418 581 471 557 q 381 588 400 588 q 183 451 282 588 q 88 131 82 306 q 125 4 89 57 q 229 -56 165 -54 q 715 443 417 -65 q 563 624 563 489 q 611 787 563 714 q 744 910 660 860 q 976 976 864 979 q 1053 969 1017 975 q 1121 949 1089 963 q 1217 835 1217 911 q 1209 803 1217 818 q 1193 788 1201 788 q 1181 797 1194 788 q 1150 806 1167 806 q 826 454 1032 806 q 939 476 888 447 q 992 550 992 508 q 987 573 992 561 q 982 588 982 585 q 993 599 982 599 q 1004 594 999 599 q 1036 536 1036 571 q 988 457 1036 493 q 860 419 936 419 q 813 424 836 419 q 579 99 717 247 q 246 -96 396 -96 m 739 478 q 925 715 815 603 q 1138 851 1057 851 q 1174 842 1158 851 q 1119 910 1172 881 q 1075 930 1097 924 q 1031 938 1053 936 q 836 896 939 942 q 692 778 749 857 q 636 597 636 700 q 739 478 636 497 z "},"Í":{"ha":800,"x_min":29,"x_max":1267,"o":"m 246 -96 q 29 160 29 -96 q 142 500 29 371 q 358 611 236 611 q 466 575 426 611 q 506 471 506 539 q 422 251 506 363 q 247 136 336 136 q 172 167 196 136 q 147 240 147 197 q 158 301 147 268 q 190 342 174 342 q 203 329 203 342 q 190 293 203 322 q 181 250 181 272 q 199 203 181 221 q 249 186 218 186 q 403 290 331 186 q 471 483 471 388 q 447 560 471 533 q 381 588 422 588 q 183 451 282 588 q 88 131 82 306 q 130 -1 90 53 q 236 -56 169 -56 q 715 443 424 -56 q 563 624 563 489 q 611 787 563 714 q 744 910 660 860 q 969 976 860 976 q 1085 962 1029 976 q 1179 916 1142 947 q 1217 835 1217 885 q 1209 803 1217 818 q 1193 788 1201 788 q 1181 797 1194 788 q 1150 806 1167 806 q 826 454 1032 806 q 838 453 832 453 q 849 453 843 453 q 916 465 883 453 q 970 500 949 478 q 992 550 992 522 q 987 573 992 561 q 982 588 982 585 q 993 599 982 599 q 1004 594 999 599 q 1036 536 1036 571 q 1010 475 1036 501 q 942 434 983 449 q 860 419 901 419 q 813 424 836 419 q 579 99 717 247 q 246 -96 396 -96 m 739 478 q 925 715 815 603 q 1138 851 1057 851 q 1174 842 1158 851 q 1149 890 1172 868 q 1092 924 1125 911 q 1031 938 1060 936 q 836 896 939 942 q 692 778 749 857 q 636 597 636 700 q 739 478 636 497 m 1067 1038 q 1056 1046 1056 1038 q 1069 1058 1056 1053 q 1146 1092 1110 1075 q 1211 1122 1182 1108 q 1232 1131 1224 1129 q 1244 1132 1240 1132 q 1260 1120 1253 1132 q 1267 1097 1267 1108 q 1258 1082 1267 1088 q 1242 1074 1249 1076 q 1211 1063 1232 1069 q 1156 1049 1190 1056 q 1067 1038 1104 1038 z "},"Ĭ":{"ha":800,"x_min":29,"x_max":1254,"o":"m 246 -96 q 29 160 29 -96 q 142 500 29 371 q 358 611 236 611 q 466 575 426 611 q 506 471 506 539 q 422 251 506 363 q 247 136 336 136 q 172 167 196 136 q 147 240 147 197 q 158 301 147 268 q 190 342 174 342 q 203 329 203 342 q 190 293 203 322 q 181 250 181 272 q 199 203 181 221 q 249 186 218 186 q 403 290 331 186 q 471 483 471 388 q 447 560 471 533 q 381 588 422 588 q 183 451 282 588 q 88 131 82 306 q 130 -1 90 53 q 236 -56 169 -56 q 715 443 424 -56 q 563 624 563 489 q 611 787 563 714 q 744 910 660 860 q 969 976 860 976 q 1085 962 1029 976 q 1179 916 1142 947 q 1217 835 1217 885 q 1209 803 1217 818 q 1193 788 1201 788 q 1181 797 1194 788 q 1150 806 1167 806 q 826 454 1032 806 q 838 453 832 453 q 849 453 843 453 q 916 465 883 453 q 970 500 949 478 q 992 550 992 522 q 987 573 992 561 q 982 588 982 585 q 993 599 982 599 q 1004 594 999 599 q 1036 536 1036 571 q 1010 475 1036 501 q 942 434 983 449 q 860 419 901 419 q 813 424 836 419 q 579 99 717 247 q 246 -96 396 -96 m 739 478 q 925 715 815 603 q 1138 851 1057 851 q 1174 842 1158 851 q 1149 890 1172 868 q 1092 924 1125 911 q 1031 938 1060 936 q 836 896 939 942 q 692 778 749 857 q 636 597 636 700 q 739 478 636 497 m 1103 1042 q 1057 1056 1076 1042 q 1038 1107 1038 1071 q 1038 1119 1038 1108 q 1044 1141 1039 1131 q 1058 1151 1049 1151 q 1068 1144 1065 1151 q 1074 1125 1071 1136 q 1086 1102 1078 1108 q 1119 1096 1094 1096 q 1164 1103 1143 1096 q 1215 1135 1185 1110 q 1238 1153 1222 1142 q 1254 1153 1254 1164 q 1239 1117 1254 1138 q 1178 1064 1217 1086 q 1103 1042 1140 1042 z "},"Î":{"ha":800,"x_min":25,"x_max":1257,"o":"m 1244 985 q 1163 1050 1235 985 q 1107 1092 1138 1074 q 1063 1064 1092 1082 q 989 1017 1033 1046 q 944 993 956 994 q 917 994 926 988 q 928 1019 907 1001 q 992 1060 968 1044 q 1035 1090 1017 1076 q 1076 1121 1054 1104 q 1106 1142 1092 1132 q 1139 1136 1121 1151 q 1165 1113 1150 1126 q 1197 1079 1179 1100 q 1243 1027 1229 1044 q 1257 999 1257 1010 q 1244 985 1257 985 m 246 -96 q 29 169 25 -96 q 142 500 31 372 q 358 611 236 611 q 392 608 376 611 q 424 600 408 606 q 506 471 506 568 q 422 251 506 363 q 247 136 336 136 q 174 164 197 136 q 149 227 151 188 q 158 301 146 267 q 190 342 174 342 q 203 329 203 342 q 190 293 203 322 q 178 244 178 267 q 200 206 178 225 q 249 186 222 186 q 403 290 331 186 q 471 483 471 388 q 418 581 471 557 q 381 588 400 588 q 183 451 282 588 q 88 131 82 306 q 125 4 89 57 q 229 -56 165 -54 q 715 443 417 -65 q 563 624 563 489 q 611 787 563 714 q 744 910 660 860 q 976 976 864 979 q 1053 969 1017 975 q 1121 949 1089 963 q 1217 835 1217 911 q 1209 803 1217 818 q 1193 788 1201 788 q 1181 797 1194 788 q 1150 806 1167 806 q 826 454 1032 806 q 939 476 888 447 q 992 550 992 508 q 987 573 992 561 q 982 588 982 585 q 993 599 982 599 q 1004 594 999 599 q 1036 536 1036 571 q 988 457 1036 493 q 860 419 936 419 q 813 424 836 419 q 579 99 717 247 q 246 -96 396 -96 m 739 478 q 925 715 815 603 q 1138 851 1057 851 q 1174 842 1158 851 q 1119 910 1172 881 q 1075 930 1097 924 q 1031 938 1053 936 q 836 896 939 942 q 692 778 749 857 q 636 597 636 700 q 739 478 636 497 z "},"Ȉ":{"ha":800,"x_min":29,"x_max":1253,"o":"m 246 -96 q 29 160 29 -96 q 142 500 29 371 q 358 611 236 611 q 466 575 426 611 q 506 471 506 539 q 422 251 506 363 q 247 136 336 136 q 172 167 196 136 q 147 240 147 197 q 158 301 147 268 q 190 342 174 342 q 203 329 203 342 q 190 293 203 322 q 181 250 181 272 q 199 203 181 221 q 249 186 218 186 q 403 290 331 186 q 471 483 471 388 q 447 560 471 533 q 381 588 422 588 q 183 451 282 588 q 88 131 82 306 q 130 -1 90 53 q 236 -56 169 -56 q 715 443 424 -56 q 563 624 563 489 q 611 787 563 714 q 744 910 660 860 q 969 976 860 976 q 1085 962 1029 976 q 1179 916 1142 947 q 1217 835 1217 885 q 1209 803 1217 818 q 1193 788 1201 788 q 1181 797 1194 788 q 1150 806 1167 806 q 826 454 1032 806 q 838 453 832 453 q 849 453 843 453 q 916 465 883 453 q 970 500 949 478 q 992 550 992 522 q 987 573 992 561 q 982 588 982 585 q 993 599 982 599 q 1004 594 999 599 q 1036 536 1036 571 q 1010 475 1036 501 q 942 434 983 449 q 860 419 901 419 q 813 424 836 419 q 579 99 717 247 q 246 -96 396 -96 m 739 478 q 925 715 815 603 q 1138 851 1057 851 q 1174 842 1158 851 q 1149 890 1172 868 q 1092 924 1125 911 q 1031 938 1060 936 q 836 896 939 942 q 692 778 749 857 q 636 597 636 700 q 739 478 636 497 m 1242 1031 q 1215 1044 1233 1033 q 1161 1079 1196 1056 q 1117 1115 1133 1100 q 1094 1140 1101 1131 q 1085 1153 1090 1146 q 1082 1168 1081 1161 q 1096 1187 1083 1178 q 1114 1194 1108 1196 q 1135 1178 1122 1193 l 1249 1047 q 1253 1038 1253 1044 q 1242 1031 1250 1026 m 1103 1031 q 1074 1040 1094 1033 q 1015 1065 1053 1047 q 965 1093 985 1081 q 939 1113 946 1106 q 927 1124 933 1118 q 921 1139 921 1131 q 932 1159 921 1149 q 949 1169 943 1169 q 972 1157 958 1169 l 1107 1049 q 1113 1039 1113 1044 q 1103 1031 1113 1028 z "},"Ï":{"ha":800,"x_min":25,"x_max":1219,"o":"m 972 1026 q 953 1041 963 1026 q 943 1067 943 1056 q 983 1117 943 1088 q 1047 1146 1025 1146 q 1049 1145 1049 1146 q 1051 1144 1050 1144 q 1032 1119 1050 1144 l 1010 1064 q 972 1026 993 1026 m 1140 1026 q 1121 1041 1131 1026 q 1111 1067 1111 1056 q 1151 1117 1111 1088 q 1215 1146 1193 1146 q 1217 1145 1217 1146 q 1219 1144 1218 1144 q 1200 1119 1218 1144 l 1178 1064 q 1140 1026 1161 1026 m 246 -96 q 29 169 25 -96 q 142 500 31 372 q 358 611 236 611 q 392 608 376 611 q 424 600 408 606 q 506 471 506 568 q 422 251 506 363 q 247 136 336 136 q 174 164 197 136 q 149 227 151 188 q 158 301 146 267 q 190 342 174 342 q 203 329 203 342 q 190 293 203 322 q 178 244 178 267 q 200 206 178 225 q 249 186 222 186 q 403 290 331 186 q 471 483 471 388 q 418 581 471 557 q 381 588 400 588 q 183 451 282 588 q 88 131 82 306 q 125 4 89 57 q 229 -56 165 -54 q 715 443 417 -65 q 563 624 563 489 q 611 787 563 714 q 744 910 660 860 q 976 976 864 979 q 1053 969 1017 975 q 1121 949 1089 963 q 1217 835 1217 911 q 1209 803 1217 818 q 1193 788 1201 788 q 1181 797 1194 788 q 1150 806 1167 806 q 826 454 1032 806 q 939 476 888 447 q 992 550 992 508 q 987 573 992 561 q 982 588 982 585 q 993 599 982 599 q 1004 594 999 599 q 1036 536 1036 571 q 988 457 1036 493 q 860 419 936 419 q 813 424 836 419 q 579 99 717 247 q 246 -96 396 -96 m 739 478 q 925 715 815 603 q 1138 851 1057 851 q 1174 842 1158 851 q 1119 910 1172 881 q 1075 930 1097 924 q 1031 938 1053 936 q 836 896 939 942 q 692 778 749 857 q 636 597 636 700 q 739 478 636 497 z "},"İ":{"ha":800,"x_min":29,"x_max":1217,"o":"m 246 -96 q 29 160 29 -96 q 142 500 29 371 q 358 611 236 611 q 466 575 426 611 q 506 471 506 539 q 422 251 506 363 q 247 136 336 136 q 172 167 196 136 q 147 240 147 197 q 158 301 147 268 q 190 342 174 342 q 203 329 203 342 q 190 293 203 322 q 181 250 181 272 q 199 203 181 221 q 249 186 218 186 q 403 290 331 186 q 471 483 471 388 q 447 560 471 533 q 381 588 422 588 q 183 451 282 588 q 88 131 82 306 q 130 -1 90 53 q 236 -56 169 -56 q 715 443 424 -56 q 563 624 563 489 q 611 787 563 714 q 744 910 660 860 q 969 976 860 976 q 1085 962 1029 976 q 1179 916 1142 947 q 1217 835 1217 885 q 1209 803 1217 818 q 1193 788 1201 788 q 1181 797 1194 788 q 1150 806 1167 806 q 826 454 1032 806 q 838 453 832 453 q 849 453 843 453 q 916 465 883 453 q 970 500 949 478 q 992 550 992 522 q 987 573 992 561 q 982 588 982 585 q 993 599 982 599 q 1004 594 999 599 q 1036 536 1036 571 q 1010 475 1036 501 q 942 434 983 449 q 860 419 901 419 q 813 424 836 419 q 579 99 717 247 q 246 -96 396 -96 m 739 478 q 925 715 815 603 q 1138 851 1057 851 q 1174 842 1158 851 q 1149 890 1172 868 q 1092 924 1125 911 q 1031 938 1060 936 q 836 896 939 942 q 692 778 749 857 q 636 597 636 700 q 739 478 636 497 m 1097 1035 q 1078 1049 1088 1035 q 1068 1075 1068 1064 q 1110 1125 1068 1096 q 1174 1154 1151 1154 q 1178 1153 1176 1154 q 1158 1128 1176 1153 l 1135 1072 q 1097 1035 1118 1035 z "},"Ị":{"ha":800,"x_min":29,"x_max":1217,"o":"m 246 -96 q 29 160 29 -96 q 142 500 29 371 q 358 611 236 611 q 466 575 426 611 q 506 471 506 539 q 422 251 506 363 q 247 136 336 136 q 172 167 196 136 q 147 240 147 197 q 158 301 147 268 q 190 342 174 342 q 203 329 203 342 q 190 293 203 322 q 181 250 181 272 q 199 203 181 221 q 249 186 218 186 q 403 290 331 186 q 471 483 471 388 q 447 560 471 533 q 381 588 422 588 q 183 451 282 588 q 88 131 82 306 q 130 -1 90 53 q 236 -56 169 -56 q 715 443 424 -56 q 563 624 563 489 q 611 787 563 714 q 744 910 660 860 q 969 976 860 976 q 1085 962 1029 976 q 1179 916 1142 947 q 1217 835 1217 885 q 1209 803 1217 818 q 1193 788 1201 788 q 1181 797 1194 788 q 1150 806 1167 806 q 826 454 1032 806 q 838 453 832 453 q 849 453 843 453 q 916 465 883 453 q 970 500 949 478 q 992 550 992 522 q 987 573 992 561 q 982 588 982 585 q 993 599 982 599 q 1004 594 999 599 q 1036 536 1036 571 q 1010 475 1036 501 q 942 434 983 449 q 860 419 901 419 q 813 424 836 419 q 579 99 717 247 q 246 -96 396 -96 m 739 478 q 925 715 815 603 q 1138 851 1057 851 q 1174 842 1158 851 q 1149 890 1172 868 q 1092 924 1125 911 q 1031 938 1060 936 q 836 896 939 942 q 692 778 749 857 q 636 597 636 700 q 739 478 636 497 m 117 -315 q 97 -301 107 -315 q 88 -275 88 -286 q 128 -225 88 -254 q 169 -210 156 -208 q 176 -222 183 -211 l 154 -278 q 117 -315 138 -315 z "},"Ì":{"ha":800,"x_min":29,"x_max":1217,"o":"m 246 -96 q 29 160 29 -96 q 142 500 29 371 q 358 611 236 611 q 466 575 426 611 q 506 471 506 539 q 422 251 506 363 q 247 136 336 136 q 172 167 196 136 q 147 240 147 197 q 158 301 147 268 q 190 342 174 342 q 203 329 203 342 q 190 293 203 322 q 181 250 181 272 q 199 203 181 221 q 249 186 218 186 q 403 290 331 186 q 471 483 471 388 q 447 560 471 533 q 381 588 422 588 q 183 451 282 588 q 88 131 82 306 q 130 -1 90 53 q 236 -56 169 -56 q 715 443 424 -56 q 563 624 563 489 q 611 787 563 714 q 744 910 660 860 q 969 976 860 976 q 1085 962 1029 976 q 1179 916 1142 947 q 1217 835 1217 885 q 1209 803 1217 818 q 1193 788 1201 788 q 1181 797 1194 788 q 1150 806 1167 806 q 826 454 1032 806 q 838 453 832 453 q 849 453 843 453 q 916 465 883 453 q 970 500 949 478 q 992 550 992 522 q 987 573 992 561 q 982 588 982 585 q 993 599 982 599 q 1004 594 999 599 q 1036 536 1036 571 q 1010 475 1036 501 q 942 434 983 449 q 860 419 901 419 q 813 424 836 419 q 579 99 717 247 q 246 -96 396 -96 m 739 478 q 925 715 815 603 q 1138 851 1057 851 q 1174 842 1158 851 q 1149 890 1172 868 q 1092 924 1125 911 q 1031 938 1060 936 q 836 896 939 942 q 692 778 749 857 q 636 597 636 700 q 739 478 636 497 m 1196 1038 q 1107 1049 1158 1038 q 1051 1063 1072 1056 q 1021 1074 1031 1069 q 1005 1082 1014 1076 q 996 1097 996 1088 q 1003 1120 996 1108 q 1018 1132 1010 1132 q 1031 1131 1022 1132 q 1051 1122 1039 1129 q 1117 1092 1081 1108 q 1193 1058 1153 1075 q 1207 1046 1207 1053 q 1196 1038 1207 1038 z "},"Ỉ":{"ha":800,"x_min":29,"x_max":1217,"o":"m 246 -96 q 29 160 29 -96 q 142 500 29 371 q 358 611 236 611 q 466 575 426 611 q 506 471 506 539 q 422 251 506 363 q 247 136 336 136 q 172 167 196 136 q 147 240 147 197 q 158 301 147 268 q 190 342 174 342 q 203 329 203 342 q 190 293 203 322 q 181 250 181 272 q 199 203 181 221 q 249 186 218 186 q 403 290 331 186 q 471 483 471 388 q 447 560 471 533 q 381 588 422 588 q 183 451 282 588 q 88 131 82 306 q 130 -1 90 53 q 236 -56 169 -56 q 715 443 424 -56 q 563 624 563 489 q 611 787 563 714 q 744 910 660 860 q 969 976 860 976 q 1085 962 1029 976 q 1179 916 1142 947 q 1217 835 1217 885 q 1209 803 1217 818 q 1193 788 1201 788 q 1181 797 1194 788 q 1150 806 1167 806 q 826 454 1032 806 q 838 453 832 453 q 849 453 843 453 q 916 465 883 453 q 970 500 949 478 q 992 550 992 522 q 987 573 992 561 q 982 588 982 585 q 993 599 982 599 q 1004 594 999 599 q 1036 536 1036 571 q 1010 475 1036 501 q 942 434 983 449 q 860 419 901 419 q 813 424 836 419 q 579 99 717 247 q 246 -96 396 -96 m 739 478 q 925 715 815 603 q 1138 851 1057 851 q 1174 842 1158 851 q 1149 890 1172 868 q 1092 924 1125 911 q 1031 938 1060 936 q 836 896 939 942 q 692 778 749 857 q 636 597 636 700 q 739 478 636 497 m 1090 1035 q 1083 1039 1085 1035 q 1085 1044 1082 1043 q 1135 1080 1113 1064 q 1157 1118 1157 1096 q 1133 1139 1157 1139 q 1099 1131 1119 1139 q 1064 1107 1079 1122 q 1063 1106 1064 1107 q 1061 1106 1063 1106 q 1058 1108 1060 1106 q 1058 1114 1057 1111 q 1098 1163 1069 1146 q 1163 1176 1126 1179 q 1190 1162 1181 1175 q 1200 1133 1200 1149 q 1190 1097 1200 1113 q 1161 1071 1179 1082 q 1118 1044 1135 1054 q 1094 1035 1101 1035 l 1090 1035 z "},"Ȋ":{"ha":800,"x_min":29,"x_max":1286,"o":"m 246 -96 q 29 160 29 -96 q 142 500 29 371 q 358 611 236 611 q 466 575 426 611 q 506 471 506 539 q 422 251 506 363 q 247 136 336 136 q 172 167 196 136 q 147 240 147 197 q 158 301 147 268 q 190 342 174 342 q 203 329 203 342 q 190 293 203 322 q 181 250 181 272 q 199 203 181 221 q 249 186 218 186 q 403 290 331 186 q 471 483 471 388 q 447 560 471 533 q 381 588 422 588 q 183 451 282 588 q 88 131 82 306 q 130 -1 90 53 q 236 -56 169 -56 q 715 443 424 -56 q 563 624 563 489 q 611 787 563 714 q 744 910 660 860 q 969 976 860 976 q 1085 962 1029 976 q 1179 916 1142 947 q 1217 835 1217 885 q 1209 803 1217 818 q 1193 788 1201 788 q 1181 797 1194 788 q 1150 806 1167 806 q 826 454 1032 806 q 838 453 832 453 q 849 453 843 453 q 916 465 883 453 q 970 500 949 478 q 992 550 992 522 q 987 573 992 561 q 982 588 982 585 q 993 599 982 599 q 1004 594 999 599 q 1036 536 1036 571 q 1010 475 1036 501 q 942 434 983 449 q 860 419 901 419 q 813 424 836 419 q 579 99 717 247 q 246 -96 396 -96 m 739 478 q 925 715 815 603 q 1138 851 1057 851 q 1174 842 1158 851 q 1149 890 1172 868 q 1092 924 1125 911 q 1031 938 1060 936 q 836 896 939 942 q 692 778 749 857 q 636 597 636 700 q 739 478 636 497 m 1208 1197 q 1267 1174 1249 1197 q 1283 1113 1286 1151 q 1276 1078 1282 1096 q 1257 1061 1271 1061 q 1244 1070 1247 1061 q 1242 1088 1242 1079 q 1183 1143 1238 1143 q 1110 1128 1147 1143 q 1039 1085 1072 1113 q 1001 1061 1010 1061 q 994 1067 994 1061 q 1003 1080 994 1069 q 1033 1113 1011 1090 q 1113 1172 1067 1146 q 1208 1197 1160 1197 z "},"Ī":{"ha":800,"x_min":29,"x_max":1258,"o":"m 246 -96 q 29 160 29 -96 q 142 500 29 371 q 358 611 236 611 q 466 575 426 611 q 506 471 506 539 q 422 251 506 363 q 247 136 336 136 q 172 167 196 136 q 147 240 147 197 q 158 301 147 268 q 190 342 174 342 q 203 329 203 342 q 190 293 203 322 q 181 250 181 272 q 199 203 181 221 q 249 186 218 186 q 403 290 331 186 q 471 483 471 388 q 447 560 471 533 q 381 588 422 588 q 183 451 282 588 q 88 131 82 306 q 130 -1 90 53 q 236 -56 169 -56 q 715 443 424 -56 q 563 624 563 489 q 611 787 563 714 q 744 910 660 860 q 969 976 860 976 q 1085 962 1029 976 q 1179 916 1142 947 q 1217 835 1217 885 q 1209 803 1217 818 q 1193 788 1201 788 q 1181 797 1194 788 q 1150 806 1167 806 q 826 454 1032 806 q 838 453 832 453 q 849 453 843 453 q 916 465 883 453 q 970 500 949 478 q 992 550 992 522 q 987 573 992 561 q 982 588 982 585 q 993 599 982 599 q 1004 594 999 599 q 1036 536 1036 571 q 1010 475 1036 501 q 942 434 983 449 q 860 419 901 419 q 813 424 836 419 q 579 99 717 247 q 246 -96 396 -96 m 739 478 q 925 715 815 603 q 1138 851 1057 851 q 1174 842 1158 851 q 1149 890 1172 868 q 1092 924 1125 911 q 1031 938 1060 936 q 836 896 939 942 q 692 778 749 857 q 636 597 636 700 q 739 478 636 497 m 999 1044 q 981 1060 992 1044 q 969 1085 971 1076 l 972 1086 q 1020 1094 986 1093 q 1107 1096 1054 1096 q 1254 1079 1221 1096 q 1258 1075 1258 1078 q 1256 1067 1258 1072 q 1250 1061 1254 1061 q 1124 1053 1207 1061 q 999 1044 1040 1044 z "},"Į":{"ha":800,"x_min":29,"x_max":1217,"o":"m 246 -96 q 29 160 29 -96 q 142 500 29 371 q 358 611 236 611 q 466 575 426 611 q 506 471 506 539 q 422 251 506 363 q 247 136 336 136 q 172 167 196 136 q 147 240 147 197 q 158 301 147 268 q 190 342 174 342 q 203 329 203 342 q 190 293 203 322 q 181 250 181 272 q 199 203 181 221 q 249 186 218 186 q 403 290 331 186 q 471 483 471 388 q 447 560 471 533 q 381 588 422 588 q 183 451 282 588 q 88 131 82 306 q 130 -1 90 53 q 236 -56 169 -56 q 715 443 424 -56 q 563 624 563 489 q 611 787 563 714 q 744 910 660 860 q 969 976 860 976 q 1085 962 1029 976 q 1179 916 1142 947 q 1217 835 1217 885 q 1209 803 1217 818 q 1193 788 1201 788 q 1181 797 1194 788 q 1150 806 1167 806 q 826 454 1032 806 q 838 453 832 453 q 849 453 843 453 q 916 465 883 453 q 970 500 949 478 q 992 550 992 522 q 987 573 992 561 q 982 588 982 585 q 993 599 982 599 q 1004 594 999 599 q 1036 536 1036 571 q 1010 475 1036 501 q 942 434 983 449 q 860 419 901 419 q 813 424 836 419 q 579 99 717 247 q 246 -96 396 -96 m 739 478 q 925 715 815 603 q 1138 851 1057 851 q 1174 842 1158 851 q 1149 890 1172 868 q 1092 924 1125 911 q 1031 938 1060 936 q 836 896 939 942 q 692 778 749 857 q 636 597 636 700 q 739 478 636 497 m 310 -228 q 243 -290 310 -268 q 194 -303 215 -300 q 160 -306 174 -306 q 83 -247 83 -306 q 110 -151 83 -210 q 171 -83 140 -85 l 175 -87 q 128 -210 128 -153 q 190 -267 128 -267 q 259 -251 222 -267 q 310 -228 296 -236 z "},"Ĩ":{"ha":800,"x_min":29,"x_max":1281,"o":"m 246 -96 q 29 160 29 -96 q 142 500 29 371 q 358 611 236 611 q 466 575 426 611 q 506 471 506 539 q 422 251 506 363 q 247 136 336 136 q 172 167 196 136 q 147 240 147 197 q 158 301 147 268 q 190 342 174 342 q 203 329 203 342 q 190 293 203 322 q 181 250 181 272 q 199 203 181 221 q 249 186 218 186 q 403 290 331 186 q 471 483 471 388 q 447 560 471 533 q 381 588 422 588 q 183 451 282 588 q 88 131 82 306 q 130 -1 90 53 q 236 -56 169 -56 q 715 443 424 -56 q 563 624 563 489 q 611 787 563 714 q 744 910 660 860 q 969 976 860 976 q 1085 962 1029 976 q 1179 916 1142 947 q 1217 835 1217 885 q 1209 803 1217 818 q 1193 788 1201 788 q 1181 797 1194 788 q 1150 806 1167 806 q 826 454 1032 806 q 838 453 832 453 q 849 453 843 453 q 916 465 883 453 q 970 500 949 478 q 992 550 992 522 q 987 573 992 561 q 982 588 982 585 q 993 599 982 599 q 1004 594 999 599 q 1036 536 1036 571 q 1010 475 1036 501 q 942 434 983 449 q 860 419 901 419 q 813 424 836 419 q 579 99 717 247 q 246 -96 396 -96 m 739 478 q 925 715 815 603 q 1138 851 1057 851 q 1174 842 1158 851 q 1149 890 1172 868 q 1092 924 1125 911 q 1031 938 1060 936 q 836 896 939 942 q 692 778 749 857 q 636 597 636 700 q 739 478 636 497 m 1193 1042 q 1165 1047 1182 1042 q 1126 1061 1149 1051 q 1064 1082 1085 1082 q 1042 1078 1054 1082 q 1019 1063 1031 1074 q 992 1043 1000 1043 q 990 1046 990 1044 q 1047 1108 990 1069 q 1094 1124 1067 1124 q 1157 1107 1115 1124 q 1193 1095 1178 1099 q 1218 1092 1208 1092 q 1274 1124 1249 1092 q 1281 1118 1281 1124 q 1229 1054 1281 1093 q 1193 1042 1213 1042 z "},"J":{"ha":1142,"x_min":54,"x_max":1549,"o":"m 308 -181 q 124 -122 193 -181 q 54 40 54 -62 q 85 167 54 110 q 190 306 124 243 q 335 408 257 369 q 488 447 414 447 q 635 403 582 447 q 689 286 689 358 q 673 211 689 247 q 633 150 657 175 q 578 111 599 111 q 572 117 572 111 q 576 129 572 121 q 626 271 626 203 q 588 372 626 332 q 483 413 549 413 q 358 376 421 413 q 244 280 296 339 q 158 153 192 221 q 124 21 124 85 q 178 -108 124 -64 q 322 -151 233 -151 q 1061 468 676 -151 q 1297 921 1292 838 l 1215 925 q 1136 917 1182 926 q 1044 892 1090 908 q 962 851 999 875 q 910 800 925 828 q 897 760 897 779 q 924 699 897 729 q 950 663 950 668 q 933 653 950 656 q 922 651 929 651 q 867 678 893 651 q 836 751 836 708 q 861 824 836 790 q 958 899 896 871 q 1091 938 1019 926 q 1226 949 1163 950 q 1294 944 1239 949 q 1309 978 1292 963 q 1349 994 1326 994 q 1389 935 1390 994 q 1547 854 1539 908 q 1549 843 1549 849 q 1549 833 1549 838 q 1533 806 1549 806 q 1521 824 1521 806 q 1521 831 1521 826 q 1522 839 1521 835 q 1385 911 1488 890 q 1124 422 1360 799 q 957 199 1051 307 q 756 6 863 92 q 535 -131 649 -81 q 308 -181 421 -181 z "},"Ĵ":{"ha":1142,"x_min":54,"x_max":1549,"o":"m 308 -181 q 124 -122 193 -181 q 54 40 54 -62 q 85 167 54 110 q 190 306 124 243 q 335 408 257 369 q 488 447 414 447 q 635 403 582 447 q 689 286 689 358 q 673 211 689 247 q 633 150 657 175 q 578 111 599 111 q 572 117 572 111 q 576 129 572 121 q 626 271 626 203 q 588 372 626 332 q 483 413 549 413 q 358 376 421 413 q 244 280 296 339 q 158 153 192 221 q 124 21 124 85 q 178 -108 124 -64 q 322 -151 233 -151 q 1061 468 676 -151 q 1297 921 1292 838 l 1215 925 q 1136 917 1182 926 q 1044 892 1090 908 q 962 851 999 875 q 910 800 925 828 q 897 760 897 779 q 924 699 897 729 q 950 663 950 668 q 933 653 950 656 q 922 651 929 651 q 867 678 893 651 q 836 751 836 708 q 861 824 836 790 q 958 899 896 871 q 1091 938 1019 926 q 1226 949 1163 950 q 1294 944 1239 949 q 1309 978 1292 963 q 1349 994 1326 994 q 1389 935 1390 994 q 1547 854 1539 908 q 1549 843 1549 849 q 1549 833 1549 838 q 1533 806 1549 806 q 1521 824 1521 806 q 1521 831 1521 826 q 1522 839 1521 835 q 1385 911 1488 890 q 1124 422 1360 799 q 957 199 1051 307 q 756 6 863 92 q 535 -131 649 -81 q 308 -181 421 -181 m 1249 1036 q 1243 1044 1246 1036 q 1246 1056 1240 1053 q 1269 1073 1253 1061 q 1308 1100 1286 1085 q 1360 1134 1340 1119 q 1394 1149 1381 1149 q 1415 1140 1407 1149 q 1433 1121 1424 1132 q 1453 1101 1444 1110 q 1472 1082 1463 1092 q 1486 1067 1479 1075 q 1493 1050 1493 1058 q 1487 1038 1493 1044 q 1467 1031 1481 1032 q 1448 1038 1457 1031 q 1428 1054 1439 1044 q 1404 1079 1417 1065 q 1382 1104 1392 1093 q 1318 1069 1361 1093 q 1277 1046 1294 1056 q 1249 1036 1260 1036 z "},"K":{"ha":1300,"x_min":31,"x_max":2203,"o":"m 1435 -179 q 1339 -160 1381 -179 q 1221 -78 1279 -131 q 1110 39 1163 -26 q 1015 176 1057 104 q 946 317 974 249 q 819 268 869 272 q 721 154 781 218 q 588 31 661 90 q 433 -67 515 -29 q 265 -106 350 -106 q 94 -51 157 -106 q 31 122 31 4 q 63 251 31 188 q 149 367 94 315 q 267 444 203 418 q 432 479 346 479 q 510 453 481 479 q 539 388 539 428 q 533 364 539 369 q 529 363 532 363 q 518 374 525 363 q 474 431 496 417 q 411 444 451 444 q 292 415 350 444 q 188 335 235 385 q 114 223 142 285 q 86 99 86 161 q 256 -71 86 -51 q 424 -17 319 -76 q 756 289 579 72 q 724 372 724 318 q 764 481 724 432 q 882 533 808 533 q 921 529 903 533 q 993 658 958 593 q 1060 790 1028 724 q 1121 938 1121 917 q 1119 940 1121 940 q 1086 930 1115 943 q 1018 898 1057 917 q 946 861 979 879 q 900 835 913 843 q 806 757 853 804 q 744 663 744 696 q 758 638 744 647 q 844 617 788 617 q 851 611 851 614 q 807 597 851 604 q 738 593 763 590 q 703 633 703 601 q 763 750 703 682 q 893 857 822 818 q 1156 968 1100 968 q 1179 963 1169 968 q 1185 947 1185 958 q 951 463 1185 863 q 963 424 956 446 q 982 375 971 403 l 1396 690 q 1586 833 1500 769 q 1751 942 1672 897 q 1909 1010 1829 986 q 2082 1033 1989 1033 q 2176 1017 2133 1033 q 2203 978 2203 1007 q 2189 954 2203 954 q 2175 963 2182 954 q 2122 976 2163 976 q 2064 971 2100 976 q 1976 954 2028 965 q 1809 897 1897 936 q 1624 799 1721 858 q 1290 561 1501 722 q 1109 426 1183 479 q 994 346 1035 372 q 1069 214 1025 282 q 1164 83 1113 146 q 1272 -30 1215 19 q 1385 -104 1329 -79 q 1483 -129 1439 -129 q 1550 -78 1550 -129 q 1550 -71 1550 -75 q 1549 -64 1550 -67 q 1548 -59 1549 -61 q 1547 -56 1547 -57 q 1554 -31 1547 -42 q 1569 -21 1561 -21 q 1593 -64 1588 -21 q 1594 -71 1594 -67 q 1594 -78 1594 -75 q 1571 -134 1594 -111 q 1511 -168 1547 -157 q 1435 -179 1475 -179 m 800 346 l 810 360 q 840 403 821 376 q 882 465 858 429 q 853 472 865 472 q 804 447 824 472 q 785 392 785 422 q 800 346 785 365 m 861 322 q 879 324 875 322 q 935 346 897 326 q 924 376 929 363 q 917 401 919 390 q 893 366 907 386 q 861 322 879 346 z "},"Ķ":{"ha":1300,"x_min":31,"x_max":2203,"o":"m 1435 -179 q 1339 -160 1381 -179 q 1221 -78 1279 -131 q 1110 39 1163 -26 q 1015 176 1057 104 q 946 317 974 249 q 819 268 869 272 q 721 154 781 218 q 588 31 661 90 q 433 -67 515 -29 q 265 -106 350 -106 q 94 -51 157 -106 q 31 122 31 4 q 63 251 31 188 q 149 367 94 315 q 267 444 203 418 q 432 479 346 479 q 510 453 481 479 q 539 388 539 428 q 533 364 539 369 q 529 363 532 363 q 518 374 525 363 q 474 431 496 417 q 411 444 451 444 q 292 415 350 444 q 188 335 235 385 q 114 223 142 285 q 86 99 86 161 q 256 -71 86 -51 q 424 -17 319 -76 q 756 289 579 72 q 724 372 724 318 q 764 481 724 432 q 882 533 808 533 q 921 529 903 533 q 993 658 958 593 q 1060 790 1028 724 q 1121 938 1121 917 q 1119 940 1121 940 q 1086 930 1115 943 q 1018 898 1057 917 q 946 861 979 879 q 900 835 913 843 q 806 757 853 804 q 744 663 744 696 q 758 638 744 647 q 844 617 788 617 q 851 611 851 614 q 807 597 851 604 q 738 593 763 590 q 703 633 703 601 q 763 750 703 682 q 893 857 822 818 q 1156 968 1100 968 q 1179 963 1169 968 q 1185 947 1185 958 q 951 463 1185 863 q 963 424 956 446 q 982 375 971 403 l 1396 690 q 1586 833 1500 769 q 1751 942 1672 897 q 1909 1010 1829 986 q 2082 1033 1989 1033 q 2176 1017 2133 1033 q 2203 978 2203 1007 q 2189 954 2203 954 q 2175 963 2182 954 q 2122 976 2163 976 q 2064 971 2100 976 q 1976 954 2028 965 q 1809 897 1897 936 q 1624 799 1721 858 q 1290 561 1501 722 q 1109 426 1183 479 q 994 346 1035 372 q 1069 214 1025 282 q 1164 83 1113 146 q 1272 -30 1215 19 q 1385 -104 1329 -79 q 1483 -129 1439 -129 q 1550 -78 1550 -129 q 1550 -71 1550 -75 q 1549 -64 1550 -67 q 1548 -59 1549 -61 q 1547 -56 1547 -57 q 1554 -31 1547 -42 q 1569 -21 1561 -21 q 1593 -64 1588 -21 q 1594 -71 1594 -67 q 1594 -78 1594 -75 q 1571 -134 1594 -111 q 1511 -168 1547 -157 q 1435 -179 1475 -179 m 800 346 l 810 360 q 840 403 821 376 q 882 465 858 429 q 853 472 865 472 q 804 447 824 472 q 785 392 785 422 q 800 346 785 365 m 861 322 q 879 324 875 322 q 935 346 897 326 q 924 376 929 363 q 917 401 919 390 q 893 366 907 386 q 861 322 879 346 m 732 -282 q 726 -278 726 -281 q 758 -240 726 -276 q 786 -176 790 -204 q 767 -149 785 -161 q 749 -125 749 -137 q 789 -83 749 -83 q 828 -97 808 -83 q 847 -131 847 -110 q 799 -242 847 -189 q 732 -282 754 -287 z "},"L":{"ha":914,"x_min":4,"x_max":1193,"o":"m 757 -151 q 597 -128 679 -151 q 442 -61 515 -106 q 317 44 369 -17 q 106 -67 206 -67 q 29 -37 54 -67 q 4 40 4 -7 q 71 246 4 128 q 171 363 133 357 q 228 306 199 363 l 315 136 q 469 349 389 235 q 356 497 356 400 q 376 574 356 539 q 428 632 396 610 q 493 654 460 654 q 560 611 539 654 q 560 603 563 607 q 556 600 558 599 q 528 619 546 611 q 494 628 510 628 q 441 605 465 628 q 403 551 417 582 q 393 497 390 521 q 493 374 393 426 q 544 449 517 408 q 604 538 572 490 q 1064 943 881 943 q 1193 822 1193 943 q 1086 564 1193 713 q 953 432 1033 490 q 783 340 872 374 q 610 306 693 306 q 572 308 590 306 q 538 315 553 310 q 454 210 501 268 q 350 81 407 151 q 422 11 375 46 q 526 -51 468 -24 q 642 -94 585 -78 q 744 -111 699 -111 q 842 -99 797 -111 q 914 -62 886 -87 q 942 6 942 -36 q 942 17 942 11 q 940 28 942 22 q 940 32 940 31 q 939 35 939 33 q 947 49 939 49 q 969 27 961 49 q 978 -7 978 6 q 944 -83 978 -50 q 860 -133 911 -115 q 757 -151 810 -151 m 600 342 q 751 374 671 342 q 903 460 832 407 q 1019 576 975 514 q 1146 844 1146 753 q 1124 901 1146 883 q 1069 919 1101 919 q 897 803 1000 919 q 813 695 865 765 q 690 522 761 625 q 629 438 663 482 q 560 346 596 393 q 600 342 579 342 m 108 -29 q 167 -10 135 -29 q 231 36 200 8 q 281 90 261 64 q 239 157 261 118 q 190 247 217 196 q 142 307 158 314 q 88 218 117 303 q 58 60 58 133 q 108 -29 58 -29 z "},"Ǉ":{"ha":2056,"x_min":4,"x_max":2463,"o":"m 757 -151 q 597 -128 679 -151 q 442 -61 515 -106 q 317 44 369 -17 q 106 -67 206 -67 q 29 -37 54 -67 q 4 40 4 -7 q 71 246 4 128 q 171 363 133 357 q 228 306 199 363 l 315 136 q 469 349 389 235 q 356 497 356 400 q 376 574 356 539 q 428 632 396 610 q 493 654 460 654 q 560 611 539 654 q 560 603 563 607 q 556 600 558 599 q 528 619 546 611 q 494 628 510 628 q 441 605 465 628 q 403 551 417 582 q 393 497 390 521 q 493 374 393 426 q 544 449 517 408 q 604 538 572 490 q 1064 943 881 943 q 1193 822 1193 943 q 1086 564 1193 713 q 953 432 1033 490 q 783 340 872 374 q 610 306 693 306 q 572 308 590 306 q 538 315 553 310 q 454 210 501 268 q 350 81 407 151 q 422 11 375 46 q 526 -51 468 -24 q 642 -94 585 -78 q 744 -111 699 -111 q 842 -99 797 -111 q 914 -62 886 -87 q 942 6 942 -36 q 942 17 942 11 q 940 28 942 22 q 940 32 940 31 q 939 35 939 33 q 947 49 939 49 q 969 27 961 49 q 978 -7 978 6 q 944 -83 978 -50 q 860 -133 911 -115 q 757 -151 810 -151 m 600 342 q 751 374 671 342 q 903 460 832 407 q 1019 576 975 514 q 1146 844 1146 753 q 1124 901 1146 883 q 1069 919 1101 919 q 897 803 1000 919 q 813 695 865 765 q 690 522 761 625 q 629 438 663 482 q 560 346 596 393 q 600 342 579 342 m 108 -29 q 167 -10 135 -29 q 231 36 200 8 q 281 90 261 64 q 239 157 261 118 q 190 247 217 196 q 142 307 158 314 q 88 218 117 303 q 58 60 58 133 q 108 -29 58 -29 m 1222 -181 q 1038 -122 1107 -181 q 968 40 968 -62 q 999 167 968 110 q 1104 306 1038 243 q 1249 408 1171 369 q 1401 447 1328 447 q 1549 403 1496 447 q 1603 286 1603 358 q 1587 211 1603 247 q 1547 150 1571 175 q 1492 111 1513 111 q 1486 117 1486 111 q 1490 129 1486 121 q 1540 271 1540 203 q 1501 372 1540 332 q 1397 413 1463 413 q 1272 376 1335 413 q 1158 280 1210 339 q 1072 153 1106 221 q 1038 21 1038 85 q 1092 -108 1038 -64 q 1236 -151 1147 -151 q 1975 468 1590 -151 q 2211 921 2206 838 l 2129 925 q 2050 917 2096 926 q 1958 892 2004 908 q 1876 851 1913 875 q 1824 800 1839 828 q 1811 760 1811 779 q 1838 699 1811 729 q 1864 663 1864 668 q 1847 653 1864 656 q 1836 651 1843 651 q 1781 678 1807 651 q 1750 751 1750 708 q 1775 824 1750 790 q 1872 899 1810 871 q 2005 938 1933 926 q 2140 949 2076 950 q 2208 944 2153 949 q 2223 978 2206 963 q 2263 994 2240 994 q 2303 935 2304 994 q 2461 854 2453 908 q 2463 843 2463 849 q 2463 833 2463 838 q 2447 806 2463 806 q 2435 824 2435 806 q 2435 831 2435 826 q 2436 839 2435 835 q 2299 911 2401 890 q 2038 422 2274 799 q 1871 199 1965 307 q 1669 6 1776 92 q 1449 -131 1563 -81 q 1222 -181 1335 -181 z "},"Ĺ":{"ha":914,"x_min":4,"x_max":1290,"o":"m 757 -151 q 597 -128 679 -151 q 442 -61 515 -106 q 317 44 369 -17 q 106 -67 206 -67 q 29 -37 54 -67 q 4 40 4 -7 q 71 246 4 128 q 171 363 133 357 q 228 306 199 363 l 315 136 q 469 349 389 235 q 356 497 356 400 q 376 574 356 539 q 428 632 396 610 q 493 654 460 654 q 560 611 539 654 q 560 603 563 607 q 556 600 558 599 q 528 619 546 611 q 494 628 510 628 q 441 605 465 628 q 403 551 417 582 q 393 497 390 521 q 493 374 393 426 q 544 449 517 408 q 604 538 572 490 q 1064 943 881 943 q 1193 822 1193 943 q 1086 564 1193 713 q 953 432 1033 490 q 783 340 872 374 q 610 306 693 306 q 572 308 590 306 q 538 315 553 310 q 454 210 501 268 q 350 81 407 151 q 422 11 375 46 q 526 -51 468 -24 q 642 -94 585 -78 q 744 -111 699 -111 q 842 -99 797 -111 q 914 -62 886 -87 q 942 6 942 -36 q 942 17 942 11 q 940 28 942 22 q 940 32 940 31 q 939 35 939 33 q 947 49 939 49 q 969 27 961 49 q 978 -7 978 6 q 944 -83 978 -50 q 860 -133 911 -115 q 757 -151 810 -151 m 600 342 q 751 374 671 342 q 903 460 832 407 q 1019 576 975 514 q 1146 844 1146 753 q 1124 901 1146 883 q 1069 919 1101 919 q 897 803 1000 919 q 813 695 865 765 q 690 522 761 625 q 629 438 663 482 q 560 346 596 393 q 600 342 579 342 m 108 -29 q 167 -10 135 -29 q 231 36 200 8 q 281 90 261 64 q 239 157 261 118 q 190 247 217 196 q 142 307 158 314 q 88 218 117 303 q 58 60 58 133 q 108 -29 58 -29 m 1108 1033 q 1099 1042 1099 1031 q 1104 1051 1099 1047 l 1239 1160 q 1263 1172 1254 1172 q 1280 1163 1269 1172 q 1290 1144 1290 1154 q 1285 1128 1290 1135 q 1272 1117 1279 1122 q 1244 1099 1264 1111 q 1189 1069 1225 1088 q 1137 1045 1157 1054 q 1108 1033 1117 1036 z "},"Ľ":{"ha":914,"x_min":4,"x_max":1317,"o":"m 757 -151 q 597 -128 679 -151 q 442 -61 515 -106 q 317 44 369 -17 q 106 -67 206 -67 q 29 -37 54 -67 q 4 40 4 -7 q 71 246 4 128 q 171 363 133 357 q 228 306 199 363 l 315 136 q 469 349 389 235 q 356 497 356 400 q 376 574 356 539 q 428 632 396 610 q 493 654 460 654 q 560 611 539 654 q 560 603 563 607 q 556 600 558 599 q 528 619 546 611 q 494 628 510 628 q 441 605 465 628 q 403 551 417 582 q 393 497 390 521 q 493 374 393 426 q 544 449 517 408 q 604 538 572 490 q 1064 943 881 943 q 1193 822 1193 943 q 1086 564 1193 713 q 953 432 1033 490 q 783 340 872 374 q 610 306 693 306 q 572 308 590 306 q 538 315 553 310 q 454 210 501 268 q 350 81 407 151 q 422 11 375 46 q 526 -51 468 -24 q 642 -94 585 -78 q 744 -111 699 -111 q 842 -99 797 -111 q 914 -62 886 -87 q 942 6 942 -36 q 942 17 942 11 q 940 28 942 22 q 940 32 940 31 q 939 35 939 33 q 947 49 939 49 q 969 27 961 49 q 978 -7 978 6 q 944 -83 978 -50 q 860 -133 911 -115 q 757 -151 810 -151 m 600 342 q 751 374 671 342 q 903 460 832 407 q 1019 576 975 514 q 1146 844 1146 753 q 1124 901 1146 883 q 1069 919 1101 919 q 897 803 1000 919 q 813 695 865 765 q 690 522 761 625 q 629 438 663 482 q 560 346 596 393 q 600 342 579 342 m 108 -29 q 167 -10 135 -29 q 231 36 200 8 q 281 90 261 64 q 239 157 261 118 q 190 247 217 196 q 142 307 158 314 q 88 218 117 303 q 58 60 58 133 q 108 -29 58 -29 m 1069 1160 q 1085 1146 1076 1160 q 1110 1111 1094 1132 q 1119 1095 1117 1104 q 1126 1078 1122 1086 q 1186 1109 1150 1089 q 1244 1139 1222 1129 q 1274 1152 1256 1144 q 1303 1160 1293 1160 q 1317 1151 1317 1160 q 1308 1136 1317 1146 q 1290 1121 1299 1126 q 1221 1086 1260 1107 q 1150 1049 1182 1065 q 1108 1033 1118 1033 q 1080 1050 1092 1033 q 1057 1090 1068 1067 q 1051 1109 1054 1100 q 1049 1128 1049 1118 q 1069 1160 1049 1160 z "},"Ļ":{"ha":914,"x_min":4,"x_max":1193,"o":"m 757 -151 q 597 -128 679 -151 q 442 -61 515 -106 q 317 44 369 -17 q 106 -67 206 -67 q 29 -37 54 -67 q 4 40 4 -7 q 71 246 4 128 q 171 363 133 357 q 228 306 199 363 l 315 136 q 469 349 389 235 q 356 497 356 400 q 376 574 356 539 q 428 632 396 610 q 493 654 460 654 q 560 611 539 654 q 560 603 563 607 q 556 600 558 599 q 528 619 546 611 q 494 628 510 628 q 441 605 465 628 q 403 551 417 582 q 393 497 390 521 q 493 374 393 426 q 544 449 517 408 q 604 538 572 490 q 1064 943 881 943 q 1193 822 1193 943 q 1086 564 1193 713 q 953 432 1033 490 q 783 340 872 374 q 610 306 693 306 q 572 308 590 306 q 538 315 553 310 q 454 210 501 268 q 350 81 407 151 q 422 11 375 46 q 526 -51 468 -24 q 642 -94 585 -78 q 744 -111 699 -111 q 842 -99 797 -111 q 914 -62 886 -87 q 942 6 942 -36 q 942 17 942 11 q 940 28 942 22 q 940 32 940 31 q 939 35 939 33 q 947 49 939 49 q 969 27 961 49 q 978 -7 978 6 q 944 -83 978 -50 q 860 -133 911 -115 q 757 -151 810 -151 m 600 342 q 751 374 671 342 q 903 460 832 407 q 1019 576 975 514 q 1146 844 1146 753 q 1124 901 1146 883 q 1069 919 1101 919 q 897 803 1000 919 q 813 695 865 765 q 690 522 761 625 q 629 438 663 482 q 560 346 596 393 q 600 342 579 342 m 108 -29 q 167 -10 135 -29 q 231 36 200 8 q 281 90 261 64 q 239 157 261 118 q 190 247 217 196 q 142 307 158 314 q 88 218 117 303 q 58 60 58 133 q 108 -29 58 -29 m 215 -365 q 210 -361 210 -364 q 242 -324 210 -360 q 269 -260 274 -287 q 250 -233 268 -244 q 232 -208 232 -221 q 272 -167 232 -167 q 311 -180 292 -167 q 331 -214 331 -193 q 282 -325 331 -272 q 215 -365 238 -371 z "},"Ŀ":{"ha":914,"x_min":4,"x_max":1193,"o":"m 757 -151 q 597 -128 679 -151 q 442 -61 515 -106 q 317 44 369 -17 q 106 -67 206 -67 q 29 -37 54 -67 q 4 40 4 -7 q 71 246 4 128 q 171 363 133 357 q 228 306 199 363 l 315 136 q 469 349 389 235 q 356 497 356 400 q 376 574 356 539 q 428 632 396 610 q 493 654 460 654 q 560 611 539 654 q 560 603 563 607 q 556 600 558 599 q 528 619 546 611 q 494 628 510 628 q 441 605 465 628 q 403 551 417 582 q 393 497 390 521 q 493 374 393 426 q 544 449 517 408 q 604 538 572 490 q 1064 943 881 943 q 1193 822 1193 943 q 1086 564 1193 713 q 953 432 1033 490 q 783 340 872 374 q 610 306 693 306 q 572 308 590 306 q 538 315 553 310 q 454 210 501 268 q 350 81 407 151 q 422 11 375 46 q 526 -51 468 -24 q 642 -94 585 -78 q 744 -111 699 -111 q 842 -99 797 -111 q 914 -62 886 -87 q 942 6 942 -36 q 942 17 942 11 q 940 28 942 22 q 940 32 940 31 q 939 35 939 33 q 947 49 939 49 q 969 27 961 49 q 978 -7 978 6 q 944 -83 978 -50 q 860 -133 911 -115 q 757 -151 810 -151 m 600 342 q 751 374 671 342 q 903 460 832 407 q 1019 576 975 514 q 1146 844 1146 753 q 1124 901 1146 883 q 1069 919 1101 919 q 897 803 1000 919 q 813 695 865 765 q 690 522 761 625 q 629 438 663 482 q 560 346 596 393 q 600 342 579 342 m 108 -29 q 167 -10 135 -29 q 231 36 200 8 q 281 90 261 64 q 239 157 261 118 q 190 247 217 196 q 142 307 158 314 q 88 218 117 303 q 58 60 58 133 q 108 -29 58 -29 m 776 146 q 735 160 753 146 q 718 194 718 175 q 771 235 718 235 q 810 222 790 235 q 829 188 829 208 q 811 158 829 171 q 776 146 793 146 z "},"Ł":{"ha":914,"x_min":4,"x_max":1193,"o":"m 757 -151 q 597 -128 679 -151 q 442 -61 515 -106 q 317 44 369 -17 q 106 -67 206 -67 q 53 -56 75 -67 q 4 40 4 -28 q 71 246 4 128 q 171 363 133 357 q 228 306 196 363 l 315 136 l 379 222 q 374 223 376 222 q 368 224 371 224 q 285 243 285 231 q 294 260 285 254 q 308 265 303 265 q 317 265 307 265 q 344 267 326 265 l 411 267 q 440 307 426 286 q 469 349 454 328 q 356 497 356 400 q 369 561 356 529 q 421 627 385 600 q 493 654 457 654 q 560 611 539 654 q 560 603 563 607 q 556 600 558 599 q 528 619 546 611 q 496 628 511 628 q 442 606 467 629 q 403 552 417 583 q 393 497 390 521 q 493 374 393 426 q 544 449 517 408 q 604 538 572 490 q 1064 943 881 943 q 1193 822 1193 943 q 1086 564 1193 713 q 858 374 1003 447 q 610 306 726 306 q 572 308 590 306 q 538 315 553 310 l 500 267 l 501 267 q 585 266 550 265 q 642 268 619 267 q 568 239 649 253 l 464 222 l 350 81 q 422 11 375 46 q 526 -51 468 -24 q 642 -94 585 -78 q 744 -111 699 -111 q 815 -106 778 -111 q 881 -86 853 -101 q 927 -45 913 -69 q 942 6 942 -21 q 942 17 942 11 q 940 28 942 22 q 942 44 939 39 q 947 49 944 49 q 969 27 961 49 q 978 -7 978 6 q 926 -99 978 -56 q 757 -151 861 -151 m 600 342 q 817 406 697 342 q 1019 576 947 475 q 1146 844 1146 753 q 1097 915 1146 900 q 1069 919 1085 919 q 897 803 1000 919 q 813 695 865 765 q 690 522 761 625 q 629 438 663 482 q 560 346 596 393 q 600 342 579 342 m 108 -29 q 197 10 144 -29 q 281 90 246 46 q 239 157 261 118 q 190 247 217 196 q 142 307 158 314 q 88 218 117 303 q 58 60 58 133 q 108 -29 58 -29 z "},"M":{"ha":1578,"x_min":22,"x_max":1803,"o":"m 1313 -93 q 1279 -81 1288 -93 q 1254 7 1254 -44 q 1382 350 1254 126 q 1635 728 1464 490 q 1478 590 1563 668 q 1296 418 1393 513 q 1090 201 1169 294 q 975 46 1010 107 q 888 -19 939 -19 q 864 -3 864 -19 q 868 8 864 3 q 929 108 892 46 q 1018 256 967 169 q 1233 671 1168 517 q 1257 756 1257 729 q 1242 778 1257 778 q 1176 740 1221 778 q 831 381 1022 611 q 690 203 750 285 q 588 57 629 122 q 554 -17 554 6 q 560 -28 554 -25 q 567 -32 567 -32 q 542 -53 567 -33 q 492 -64 519 -64 q 443 -37 435 -64 q 572 189 463 25 q 758 479 715 401 q 851 747 851 647 q 815 846 851 817 q 706 875 779 875 q 369 735 543 875 q 229 597 294 674 q 124 436 164 519 q 83 272 83 353 q 219 128 83 128 q 467 243 379 128 q 500 329 500 289 q 486 361 500 353 q 485 365 485 363 q 493 371 485 371 q 529 324 529 371 q 504 250 529 294 q 408 156 472 194 q 231 106 328 106 q 79 165 136 106 q 22 322 22 225 q 308 771 22 542 q 434 842 361 813 q 585 888 507 872 q 728 904 663 904 q 872 873 822 904 q 921 764 921 842 q 842 501 921 667 q 729 314 817 450 l 836 450 q 944 575 876 503 q 1106 739 1013 647 q 1197 806 1146 778 q 1285 833 1249 833 q 1335 781 1335 833 q 1297 656 1335 735 q 1172 410 1247 550 q 1140 336 1149 367 q 1129 301 1132 306 q 1156 334 1135 308 q 1217 404 1178 360 q 1329 520 1264 457 q 1479 656 1394 583 l 1701 839 q 1749 861 1728 861 q 1777 838 1768 861 q 1796 779 1786 815 q 1729 681 1803 756 q 1429 283 1556 503 q 1314 -10 1314 81 q 1340 -50 1314 -50 q 1424 -21 1357 -50 q 1500 10 1482 6 q 1507 3 1507 7 q 1433 -56 1507 -18 q 1313 -93 1361 -93 z "},"N":{"ha":1285,"x_min":3,"x_max":1536,"o":"m 1046 -133 q 999 -100 1011 -133 q 988 -33 988 -67 q 1115 310 988 86 q 1368 688 1197 450 q 890 396 1183 671 q 558 17 657 175 q 525 -57 525 -35 q 531 -69 525 -67 q 538 -72 538 -72 q 511 -93 538 -75 q 463 -104 492 -104 q 413 -78 404 -104 q 542 147 432 -17 q 728 438 685 360 q 822 706 822 607 q 788 801 822 775 q 693 828 754 828 q 342 676 528 828 q 200 538 265 614 q 94 382 135 463 q 54 224 54 301 q 178 88 54 90 q 438 203 350 83 q 471 289 471 249 q 456 321 471 313 q 454 325 454 322 q 463 331 454 331 q 499 283 499 331 q 475 210 499 254 q 360 104 436 143 q 201 65 283 65 q 57 119 111 65 q 3 265 3 174 q 300 721 3 482 q 422 793 350 761 q 572 843 494 825 q 714 861 649 861 q 844 830 796 861 q 892 722 892 799 q 811 461 892 624 q 765 378 793 425 q 700 274 738 331 q 840 411 743 328 q 1164 653 1015 558 q 1435 793 1313 749 q 1463 799 1447 799 q 1529 739 1515 799 q 1463 640 1536 715 q 1163 243 1289 463 q 1047 -51 1047 40 q 1074 -90 1047 -90 q 1157 -61 1090 -90 q 1233 -31 1215 -35 q 1240 -37 1240 -33 q 1167 -96 1240 -58 q 1046 -133 1094 -133 z "},"Ǌ":{"ha":2426,"x_min":3,"x_max":2833,"o":"m 1046 -133 q 999 -100 1011 -133 q 988 -33 988 -67 q 1115 310 988 86 q 1368 688 1197 450 q 890 396 1183 671 q 558 17 657 175 q 525 -57 525 -35 q 531 -69 525 -67 q 538 -72 538 -72 q 511 -93 538 -75 q 463 -104 492 -104 q 413 -78 404 -104 q 542 147 432 -17 q 728 438 685 360 q 822 706 822 607 q 788 801 822 775 q 693 828 754 828 q 342 676 528 828 q 200 538 265 614 q 94 382 135 463 q 54 224 54 301 q 178 88 54 90 q 438 203 350 83 q 471 289 471 249 q 456 321 471 313 q 454 325 454 322 q 463 331 454 331 q 499 283 499 331 q 475 210 499 254 q 360 104 436 143 q 201 65 283 65 q 57 119 111 65 q 3 265 3 174 q 300 721 3 482 q 422 793 350 761 q 572 843 494 825 q 714 861 649 861 q 844 830 796 861 q 892 722 892 799 q 811 461 892 624 q 765 378 793 425 q 700 274 738 331 q 840 411 743 328 q 1164 653 1015 558 q 1435 793 1313 749 q 1463 799 1447 799 q 1529 739 1515 799 q 1463 640 1536 715 q 1163 243 1289 463 q 1047 -51 1047 40 q 1074 -90 1047 -90 q 1157 -61 1090 -90 q 1233 -31 1215 -35 q 1240 -37 1240 -33 q 1167 -96 1240 -58 q 1046 -133 1094 -133 m 1593 -181 q 1408 -122 1478 -181 q 1339 40 1339 -62 q 1369 167 1339 110 q 1475 306 1408 243 q 1620 408 1542 369 q 1772 447 1699 447 q 1920 403 1867 447 q 1974 286 1974 358 q 1958 211 1974 247 q 1918 150 1942 175 q 1863 111 1883 111 q 1857 117 1857 111 q 1861 129 1857 121 q 1911 271 1911 203 q 1872 372 1911 332 q 1768 413 1833 413 q 1643 376 1706 413 q 1528 280 1581 339 q 1443 153 1476 221 q 1408 21 1408 85 q 1463 -108 1408 -64 q 1607 -151 1518 -151 q 2346 468 1961 -151 q 2582 921 2576 838 l 2500 925 q 2421 917 2467 926 q 2329 892 2375 908 q 2247 851 2283 875 q 2194 800 2210 828 q 2182 760 2182 779 q 2208 699 2182 729 q 2235 663 2235 668 q 2218 653 2235 656 q 2207 651 2214 651 q 2151 678 2178 651 q 2121 751 2121 708 q 2146 824 2121 790 q 2242 899 2181 871 q 2376 938 2304 926 q 2511 949 2447 950 q 2579 944 2524 949 q 2594 978 2576 963 q 2633 994 2611 994 q 2674 935 2675 994 q 2832 854 2824 908 q 2833 843 2833 849 q 2833 833 2833 838 q 2818 806 2833 806 q 2806 824 2806 806 q 2806 831 2806 826 q 2807 839 2806 835 q 2669 911 2772 890 q 2408 422 2644 799 q 2242 199 2336 307 q 2040 6 2147 92 q 1819 -131 1933 -81 q 1593 -181 1706 -181 z "},"Ń":{"ha":1285,"x_min":3,"x_max":1536,"o":"m 1046 -133 q 999 -100 1011 -133 q 988 -33 988 -67 q 1115 310 988 86 q 1368 688 1197 450 q 890 396 1183 671 q 558 17 657 175 q 525 -57 525 -35 q 531 -69 525 -67 q 538 -72 538 -72 q 511 -93 538 -75 q 463 -104 492 -104 q 413 -78 404 -104 q 542 147 432 -17 q 728 438 685 360 q 822 706 822 607 q 788 801 822 775 q 693 828 754 828 q 342 676 528 828 q 200 538 265 614 q 94 382 135 463 q 54 224 54 301 q 178 88 54 90 q 438 203 350 83 q 471 289 471 249 q 456 321 471 313 q 454 325 454 322 q 463 331 454 331 q 499 283 499 331 q 475 210 499 254 q 360 104 436 143 q 201 65 283 65 q 57 119 111 65 q 3 265 3 174 q 300 721 3 482 q 422 793 350 761 q 572 843 494 825 q 714 861 649 861 q 844 830 796 861 q 892 722 892 799 q 811 461 892 624 q 765 378 793 425 q 700 274 738 331 q 840 411 743 328 q 1164 653 1015 558 q 1435 793 1313 749 q 1463 799 1447 799 q 1529 739 1515 799 q 1463 640 1536 715 q 1163 243 1289 463 q 1047 -51 1047 40 q 1074 -90 1047 -90 q 1157 -61 1090 -90 q 1233 -31 1215 -35 q 1240 -37 1240 -33 q 1167 -96 1240 -58 q 1046 -133 1094 -133 m 1086 926 q 1076 935 1076 924 q 1082 944 1076 940 l 1217 1053 q 1240 1065 1232 1065 q 1258 1056 1247 1065 q 1268 1038 1268 1047 q 1263 1022 1268 1028 q 1250 1010 1257 1015 q 1222 992 1242 1004 q 1167 963 1203 981 q 1115 938 1135 947 q 1086 926 1094 929 z "},"Ň":{"ha":1285,"x_min":3,"x_max":1536,"o":"m 1046 -133 q 999 -100 1011 -133 q 988 -33 988 -67 q 1115 310 988 86 q 1368 688 1197 450 q 890 396 1183 671 q 558 17 657 175 q 525 -57 525 -35 q 531 -69 525 -67 q 538 -72 538 -72 q 511 -93 538 -75 q 463 -104 492 -104 q 413 -78 404 -104 q 542 147 432 -17 q 728 438 685 360 q 822 706 822 607 q 788 801 822 775 q 693 828 754 828 q 342 676 528 828 q 200 538 265 614 q 94 382 135 463 q 54 224 54 301 q 178 88 54 90 q 438 203 350 83 q 471 289 471 249 q 456 321 471 313 q 454 325 454 322 q 463 331 454 331 q 499 283 499 331 q 475 210 499 254 q 360 104 436 143 q 201 65 283 65 q 57 119 111 65 q 3 265 3 174 q 300 721 3 482 q 422 793 350 761 q 572 843 494 825 q 714 861 649 861 q 844 830 796 861 q 892 722 892 799 q 811 461 892 624 q 765 378 793 425 q 700 274 738 331 q 840 411 743 328 q 1164 653 1015 558 q 1435 793 1313 749 q 1463 799 1447 799 q 1529 739 1515 799 q 1463 640 1536 715 q 1163 243 1289 463 q 1047 -51 1047 40 q 1074 -90 1047 -90 q 1157 -61 1090 -90 q 1233 -31 1215 -35 q 1240 -37 1240 -33 q 1167 -96 1240 -58 q 1046 -133 1094 -133 m 1047 1053 q 1063 1039 1054 1053 q 1088 1004 1072 1025 q 1097 988 1094 997 q 1104 971 1100 979 q 1164 1002 1128 982 q 1222 1032 1200 1022 q 1252 1045 1233 1038 q 1281 1053 1271 1053 q 1294 1044 1294 1053 q 1285 1029 1294 1039 q 1268 1014 1276 1019 q 1199 979 1238 1000 q 1128 942 1160 958 q 1086 926 1096 926 q 1058 943 1069 926 q 1035 983 1046 960 q 1029 1002 1032 993 q 1026 1021 1026 1011 q 1047 1053 1026 1053 z "},"Ņ":{"ha":1285,"x_min":3,"x_max":1536,"o":"m 1046 -133 q 999 -100 1011 -133 q 988 -33 988 -67 q 1115 310 988 86 q 1368 688 1197 450 q 890 396 1183 671 q 558 17 657 175 q 525 -57 525 -35 q 531 -69 525 -67 q 538 -72 538 -72 q 511 -93 538 -75 q 463 -104 492 -104 q 413 -78 404 -104 q 542 147 432 -17 q 728 438 685 360 q 822 706 822 607 q 788 801 822 775 q 693 828 754 828 q 342 676 528 828 q 200 538 265 614 q 94 382 135 463 q 54 224 54 301 q 178 88 54 90 q 438 203 350 83 q 471 289 471 249 q 456 321 471 313 q 454 325 454 322 q 463 331 454 331 q 499 283 499 331 q 475 210 499 254 q 360 104 436 143 q 201 65 283 65 q 57 119 111 65 q 3 265 3 174 q 300 721 3 482 q 422 793 350 761 q 572 843 494 825 q 714 861 649 861 q 844 830 796 861 q 892 722 892 799 q 811 461 892 624 q 765 378 793 425 q 700 274 738 331 q 840 411 743 328 q 1164 653 1015 558 q 1435 793 1313 749 q 1463 799 1447 799 q 1529 739 1515 799 q 1463 640 1536 715 q 1163 243 1289 463 q 1047 -51 1047 40 q 1074 -90 1047 -90 q 1157 -61 1090 -90 q 1233 -31 1215 -35 q 1240 -37 1240 -33 q 1167 -96 1240 -58 q 1046 -133 1094 -133 m 658 -282 q 653 -278 653 -281 q 685 -240 653 -276 q 713 -176 717 -204 q 693 -149 711 -161 q 675 -125 675 -137 q 715 -83 675 -83 q 754 -97 735 -83 q 774 -131 774 -110 q 725 -242 774 -189 q 658 -282 681 -287 z "},"Ñ":{"ha":1285,"x_min":3,"x_max":1536,"o":"m 1046 -133 q 999 -100 1011 -133 q 988 -33 988 -67 q 1115 310 988 86 q 1368 688 1197 450 q 890 396 1183 671 q 558 17 657 175 q 525 -57 525 -35 q 531 -69 525 -67 q 538 -72 538 -72 q 511 -93 538 -75 q 463 -104 492 -104 q 413 -78 404 -104 q 542 147 432 -17 q 728 438 685 360 q 822 706 822 607 q 788 801 822 775 q 693 828 754 828 q 342 676 528 828 q 200 538 265 614 q 94 382 135 463 q 54 224 54 301 q 178 88 54 90 q 438 203 350 83 q 471 289 471 249 q 456 321 471 313 q 454 325 454 322 q 463 331 454 331 q 499 283 499 331 q 475 210 499 254 q 360 104 436 143 q 201 65 283 65 q 57 119 111 65 q 3 265 3 174 q 300 721 3 482 q 422 793 350 761 q 572 843 494 825 q 714 861 649 861 q 844 830 796 861 q 892 722 892 799 q 811 461 892 624 q 765 378 793 425 q 700 274 738 331 q 840 411 743 328 q 1164 653 1015 558 q 1435 793 1313 749 q 1463 799 1447 799 q 1529 739 1515 799 q 1463 640 1536 715 q 1163 243 1289 463 q 1047 -51 1047 40 q 1074 -90 1047 -90 q 1157 -61 1090 -90 q 1233 -31 1215 -35 q 1240 -37 1240 -33 q 1167 -96 1240 -58 q 1046 -133 1094 -133 m 1203 931 q 1175 935 1192 931 q 1136 950 1158 940 q 1074 971 1094 971 q 1052 967 1064 971 q 1029 951 1040 963 q 1001 932 1010 932 q 1000 935 1000 933 q 1057 997 1000 958 q 1104 1013 1076 1013 q 1167 996 1125 1013 q 1203 984 1188 988 q 1228 981 1218 981 q 1283 1013 1258 981 q 1290 1007 1290 1013 q 1239 943 1290 982 q 1203 931 1222 931 z "},"O":{"ha":1089,"x_min":33,"x_max":1156,"o":"m 340 -82 q 310 -82 325 -82 q 279 -81 294 -82 q 101 -8 169 -75 q 33 174 33 58 q 90 400 33 274 q 363 703 163 560 q 608 834 478 785 q 872 883 739 883 q 1015 863 950 883 q 1117 800 1079 842 q 1156 694 1156 758 q 1150 648 1156 672 q 1132 600 1144 624 l 1117 571 q 1128 494 1128 533 q 950 163 1128 321 q 340 -82 678 -82 m 332 -54 q 853 167 606 -54 q 1044 468 1031 325 q 794 279 972 389 l 783 276 q 819 315 772 276 l 897 379 q 983 457 947 421 q 1043 522 1019 493 q 968 656 1033 600 q 835 728 913 704 q 707 740 796 738 q 633 747 633 743 q 636 751 633 749 q 761 772 701 772 q 822 768 789 772 q 894 754 856 764 q 1099 613 1040 719 q 1113 681 1113 646 q 1080 776 1113 738 q 992 835 1047 815 q 871 854 938 854 q 468 719 661 854 q 185 397 289 594 q 108 140 108 254 q 293 -53 108 -43 q 313 -54 303 -54 q 332 -54 322 -54 z "},"Œ":{"ha":1839,"x_min":33,"x_max":1960,"o":"m 1286 -110 q 978 -51 1086 -119 q 883 107 883 10 q 338 -82 633 -82 q 309 -82 324 -82 q 279 -81 294 -82 q 101 -8 169 -75 q 33 174 33 58 q 90 400 33 274 q 363 703 163 560 q 817 881 583 861 q 844 883 831 882 q 872 883 858 883 q 1085 828 1011 883 q 1156 694 1156 776 q 1132 600 1156 650 l 1117 571 q 1128 494 1128 533 q 1125 453 1128 474 q 1118 414 1122 433 q 1356 522 1218 479 q 1310 642 1310 575 q 1339 735 1310 696 q 1511 864 1396 813 q 1742 921 1624 913 q 1906 898 1851 928 q 1957 810 1960 868 q 1917 726 1954 761 q 1835 690 1878 690 q 1792 711 1792 690 q 1810 724 1792 724 q 1824 722 1815 724 q 1838 719 1833 719 q 1889 750 1867 719 q 1911 811 1911 781 q 1857 881 1911 858 q 1749 893 1814 897 q 1515 810 1631 888 q 1382 613 1382 722 q 1410 538 1382 572 q 1507 560 1461 553 q 1593 565 1553 567 q 1715 514 1715 564 q 1707 489 1715 504 q 1586 438 1674 438 q 1467 458 1529 438 q 1379 500 1411 478 q 1215 429 1290 474 q 1083 326 1140 385 q 1000 211 1051 267 q 999 209 999 210 q 999 208 999 208 q 972 106 972 156 q 1033 -18 972 28 q 1226 -69 1101 -69 q 1299 -65 1261 -69 q 1650 76 1519 -42 q 1760 281 1760 174 q 1678 365 1760 365 q 1451 260 1579 365 q 1397 193 1419 233 q 1375 119 1375 153 q 1414 65 1375 75 q 1428 51 1428 60 q 1400 40 1428 38 q 1333 122 1333 43 q 1421 289 1333 214 q 1674 392 1540 392 q 1800 329 1774 392 q 1811 271 1811 300 q 1668 28 1811 142 q 1286 -110 1513 -99 m 293 -53 q 853 167 588 -69 q 1044 468 1031 325 q 794 279 972 389 l 783 276 q 819 315 772 276 l 897 379 q 983 458 946 422 q 1043 522 1019 493 q 968 656 1033 600 q 835 728 913 704 q 707 740 796 738 q 633 747 633 743 q 636 751 633 749 q 761 772 701 772 q 822 768 789 772 q 894 754 856 764 q 1099 613 1040 719 q 1113 681 1113 646 q 1082 771 1113 728 q 871 854 1022 854 q 468 719 661 854 q 185 397 289 594 q 108 140 108 254 q 293 -53 108 -43 m 1574 468 q 1649 511 1649 468 q 1574 531 1649 531 q 1505 526 1540 531 q 1433 515 1469 522 q 1490 483 1461 493 q 1574 468 1532 468 z "},"Ó":{"ha":1089,"x_min":33,"x_max":1156,"o":"m 340 -82 q 310 -82 325 -82 q 279 -81 294 -82 q 101 -8 169 -75 q 33 174 33 58 q 90 400 33 274 q 363 703 163 560 q 608 834 478 785 q 872 883 739 883 q 1015 863 950 883 q 1117 800 1079 842 q 1156 694 1156 758 q 1150 648 1156 672 q 1132 600 1144 624 l 1117 571 q 1128 494 1128 533 q 950 163 1128 321 q 340 -82 678 -82 m 332 -54 q 853 167 606 -54 q 1044 468 1031 325 q 794 279 972 389 l 783 276 q 819 315 772 276 l 897 379 q 983 457 947 421 q 1043 522 1019 493 q 968 656 1033 600 q 835 728 913 704 q 707 740 796 738 q 633 747 633 743 q 636 751 633 749 q 761 772 701 772 q 822 768 789 772 q 894 754 856 764 q 1099 613 1040 719 q 1113 681 1113 646 q 1080 776 1113 738 q 992 835 1047 815 q 871 854 938 854 q 468 719 661 854 q 185 397 289 594 q 108 140 108 254 q 293 -53 108 -43 q 313 -54 303 -54 q 332 -54 322 -54 m 838 944 q 826 953 826 944 q 840 965 826 960 q 917 999 881 982 q 982 1029 953 1015 q 1003 1038 994 1036 q 1015 1039 1011 1039 q 1031 1027 1024 1039 q 1038 1004 1038 1015 q 1028 989 1038 994 q 1013 981 1019 983 q 982 969 1003 976 q 926 956 961 963 q 838 944 875 944 z "},"Ŏ":{"ha":1089,"x_min":33,"x_max":1156,"o":"m 340 -82 q 310 -82 325 -82 q 279 -81 294 -82 q 101 -8 169 -75 q 33 174 33 58 q 90 400 33 274 q 363 703 163 560 q 608 834 478 785 q 872 883 739 883 q 1015 863 950 883 q 1117 800 1079 842 q 1156 694 1156 758 q 1150 648 1156 672 q 1132 600 1144 624 l 1117 571 q 1128 494 1128 533 q 950 163 1128 321 q 340 -82 678 -82 m 332 -54 q 853 167 606 -54 q 1044 468 1031 325 q 794 279 972 389 l 783 276 q 819 315 772 276 l 897 379 q 983 457 947 421 q 1043 522 1019 493 q 968 656 1033 600 q 835 728 913 704 q 707 740 796 738 q 633 747 633 743 q 636 751 633 749 q 761 772 701 772 q 822 768 789 772 q 894 754 856 764 q 1099 613 1040 719 q 1113 681 1113 646 q 1080 776 1113 738 q 992 835 1047 815 q 871 854 938 854 q 468 719 661 854 q 185 397 289 594 q 108 140 108 254 q 293 -53 108 -43 q 313 -54 303 -54 q 332 -54 322 -54 m 874 949 q 828 963 847 949 q 808 1014 808 978 q 809 1026 808 1015 q 815 1048 810 1038 q 829 1058 819 1058 q 839 1051 836 1058 q 844 1032 842 1043 q 857 1009 849 1015 q 890 1003 865 1003 q 935 1010 914 1003 q 986 1042 956 1017 q 1009 1060 993 1049 q 1025 1060 1025 1071 q 1010 1024 1025 1044 q 949 971 988 993 q 874 949 911 949 z "},"Ô":{"ha":1089,"x_min":33,"x_max":1156,"o":"m 340 -82 q 310 -82 325 -82 q 279 -81 294 -82 q 101 -8 169 -75 q 33 174 33 58 q 90 400 33 274 q 363 703 163 560 q 608 834 478 785 q 872 883 739 883 q 1015 863 950 883 q 1117 800 1079 842 q 1156 694 1156 758 q 1150 648 1156 672 q 1132 600 1144 624 l 1117 571 q 1128 494 1128 533 q 950 163 1128 321 q 340 -82 678 -82 m 332 -54 q 853 167 606 -54 q 1044 468 1031 325 q 794 279 972 389 l 783 276 q 819 315 772 276 l 897 379 q 983 457 947 421 q 1043 522 1019 493 q 968 656 1033 600 q 835 728 913 704 q 707 740 796 738 q 633 747 633 743 q 636 751 633 749 q 761 772 701 772 q 822 768 789 772 q 894 754 856 764 q 1099 613 1040 719 q 1113 681 1113 646 q 1080 776 1113 738 q 992 835 1047 815 q 871 854 938 854 q 468 719 661 854 q 185 397 289 594 q 108 140 108 254 q 293 -53 108 -43 q 313 -54 303 -54 q 332 -54 322 -54 m 788 925 q 782 933 785 925 q 785 944 779 942 q 808 962 792 950 q 847 989 825 974 q 899 1023 879 1008 q 933 1038 919 1038 q 954 1029 946 1038 q 972 1010 963 1021 q 992 990 983 999 q 1011 971 1001 981 q 1025 956 1018 964 q 1032 939 1032 947 q 1026 927 1032 933 q 1006 919 1019 921 q 987 926 996 919 q 967 943 978 933 q 943 968 956 954 q 921 993 931 982 q 857 958 900 982 q 816 935 833 944 q 788 925 799 925 z "},"Ố":{"ha":1089,"x_min":33,"x_max":1156,"o":"m 340 -82 q 310 -82 325 -82 q 279 -81 294 -82 q 101 -8 169 -75 q 33 174 33 58 q 90 400 33 274 q 363 703 163 560 q 608 834 478 785 q 872 883 739 883 q 1015 863 950 883 q 1117 800 1079 842 q 1156 694 1156 758 q 1150 648 1156 672 q 1132 600 1144 624 l 1117 571 q 1128 494 1128 533 q 950 163 1128 321 q 340 -82 678 -82 m 332 -54 q 853 167 606 -54 q 1044 468 1031 325 q 794 279 972 389 l 783 276 q 819 315 772 276 l 897 379 q 983 457 947 421 q 1043 522 1019 493 q 968 656 1033 600 q 835 728 913 704 q 707 740 796 738 q 633 747 633 743 q 636 751 633 749 q 761 772 701 772 q 822 768 789 772 q 894 754 856 764 q 1099 613 1040 719 q 1113 681 1113 646 q 1080 776 1113 738 q 992 835 1047 815 q 871 854 938 854 q 468 719 661 854 q 185 397 289 594 q 108 140 108 254 q 293 -53 108 -43 q 313 -54 303 -54 q 332 -54 322 -54 m 788 925 q 782 933 785 925 q 785 944 779 942 q 808 962 792 950 q 847 989 825 974 q 899 1023 879 1008 q 933 1038 919 1038 q 954 1029 946 1038 q 972 1010 963 1021 q 992 990 983 999 q 1011 971 1001 981 q 1025 956 1018 964 q 1032 939 1032 947 q 1026 927 1032 933 q 1006 919 1019 921 q 987 926 996 919 q 967 943 978 933 q 943 968 956 954 q 921 993 931 982 q 857 958 900 982 q 816 935 833 944 q 788 925 799 925 m 846 1065 q 835 1074 835 1065 q 849 1086 835 1081 q 925 1119 889 1103 q 990 1150 961 1136 q 1011 1158 1003 1157 q 1024 1160 1019 1160 q 1039 1148 1032 1160 q 1046 1125 1046 1136 q 1037 1110 1046 1115 q 1021 1101 1028 1104 q 990 1090 1011 1097 q 935 1076 969 1083 q 846 1065 883 1065 z "},"Ộ":{"ha":1089,"x_min":33,"x_max":1156,"o":"m 340 -82 q 310 -82 325 -82 q 279 -81 294 -82 q 101 -8 169 -75 q 33 174 33 58 q 90 400 33 274 q 363 703 163 560 q 608 834 478 785 q 872 883 739 883 q 1015 863 950 883 q 1117 800 1079 842 q 1156 694 1156 758 q 1150 648 1156 672 q 1132 600 1144 624 l 1117 571 q 1128 494 1128 533 q 950 163 1128 321 q 340 -82 678 -82 m 332 -54 q 853 167 606 -54 q 1044 468 1031 325 q 794 279 972 389 l 783 276 q 819 315 772 276 l 897 379 q 983 457 947 421 q 1043 522 1019 493 q 968 656 1033 600 q 835 728 913 704 q 707 740 796 738 q 633 747 633 743 q 636 751 633 749 q 761 772 701 772 q 822 768 789 772 q 894 754 856 764 q 1099 613 1040 719 q 1113 681 1113 646 q 1080 776 1113 738 q 992 835 1047 815 q 871 854 938 854 q 468 719 661 854 q 185 397 289 594 q 108 140 108 254 q 293 -53 108 -43 q 313 -54 303 -54 q 332 -54 322 -54 m 167 -267 q 147 -252 157 -267 q 138 -226 138 -237 q 178 -176 138 -206 q 219 -161 206 -160 q 226 -174 233 -162 l 204 -229 q 167 -267 188 -267 m 788 925 q 782 933 785 925 q 785 944 779 942 q 808 962 792 950 q 847 989 825 974 q 899 1023 879 1008 q 933 1038 919 1038 q 954 1029 946 1038 q 972 1010 963 1021 q 992 990 983 999 q 1011 971 1001 981 q 1025 956 1018 964 q 1032 939 1032 947 q 1026 927 1032 933 q 1006 919 1019 921 q 987 926 996 919 q 967 943 978 933 q 943 968 956 954 q 921 993 931 982 q 857 958 900 982 q 816 935 833 944 q 788 925 799 925 z "},"Ồ":{"ha":1089,"x_min":33,"x_max":1156,"o":"m 340 -82 q 310 -82 325 -82 q 279 -81 294 -82 q 101 -8 169 -75 q 33 174 33 58 q 90 400 33 274 q 363 703 163 560 q 608 834 478 785 q 872 883 739 883 q 1015 863 950 883 q 1117 800 1079 842 q 1156 694 1156 758 q 1150 648 1156 672 q 1132 600 1144 624 l 1117 571 q 1128 494 1128 533 q 950 163 1128 321 q 340 -82 678 -82 m 332 -54 q 853 167 606 -54 q 1044 468 1031 325 q 794 279 972 389 l 783 276 q 819 315 772 276 l 897 379 q 983 457 947 421 q 1043 522 1019 493 q 968 656 1033 600 q 835 728 913 704 q 707 740 796 738 q 633 747 633 743 q 636 751 633 749 q 761 772 701 772 q 822 768 789 772 q 894 754 856 764 q 1099 613 1040 719 q 1113 681 1113 646 q 1080 776 1113 738 q 992 835 1047 815 q 871 854 938 854 q 468 719 661 854 q 185 397 289 594 q 108 140 108 254 q 293 -53 108 -43 q 313 -54 303 -54 q 332 -54 322 -54 m 788 925 q 782 933 785 925 q 785 944 779 942 q 808 962 792 950 q 847 989 825 974 q 899 1023 879 1008 q 933 1038 919 1038 q 954 1029 946 1038 q 972 1010 963 1021 q 992 990 983 999 q 1011 971 1001 981 q 1025 956 1018 964 q 1032 939 1032 947 q 1026 927 1032 933 q 1006 919 1019 921 q 987 926 996 919 q 967 943 978 933 q 943 968 956 954 q 921 993 931 982 q 857 958 900 982 q 816 935 833 944 q 788 925 799 925 m 1051 1076 q 963 1088 1014 1076 q 907 1101 928 1094 q 876 1113 886 1108 q 860 1121 869 1115 q 851 1136 851 1126 q 858 1159 851 1147 q 874 1171 865 1171 q 886 1169 878 1171 q 907 1161 894 1168 q 972 1131 936 1147 q 1049 1097 1008 1114 q 1063 1085 1063 1092 q 1051 1076 1063 1076 z "},"Ổ":{"ha":1089,"x_min":33,"x_max":1213,"o":"m 340 -82 q 310 -82 325 -82 q 279 -81 294 -82 q 101 -8 169 -75 q 33 174 33 58 q 90 400 33 274 q 363 703 163 560 q 608 834 478 785 q 872 883 739 883 q 1015 863 950 883 q 1117 800 1079 842 q 1156 694 1156 758 q 1150 648 1156 672 q 1132 600 1144 624 l 1117 571 q 1128 494 1128 533 q 950 163 1128 321 q 340 -82 678 -82 m 332 -54 q 853 167 606 -54 q 1044 468 1031 325 q 794 279 972 389 l 783 276 q 819 315 772 276 l 897 379 q 983 457 947 421 q 1043 522 1019 493 q 968 656 1033 600 q 835 728 913 704 q 707 740 796 738 q 633 747 633 743 q 636 751 633 749 q 761 772 701 772 q 822 768 789 772 q 894 754 856 764 q 1099 613 1040 719 q 1113 681 1113 646 q 1080 776 1113 738 q 992 835 1047 815 q 871 854 938 854 q 468 719 661 854 q 185 397 289 594 q 108 140 108 254 q 293 -53 108 -43 q 313 -54 303 -54 q 332 -54 322 -54 m 788 925 q 782 933 785 925 q 785 944 779 942 q 808 962 792 950 q 847 989 825 974 q 899 1023 879 1008 q 933 1038 919 1038 q 954 1029 946 1038 q 972 1010 963 1021 q 992 990 983 999 q 1011 971 1001 981 q 1025 956 1018 964 q 1032 939 1032 947 q 1026 927 1032 933 q 1006 919 1019 921 q 987 926 996 919 q 967 943 978 933 q 943 968 956 954 q 921 993 931 982 q 857 958 900 982 q 816 935 833 944 q 788 925 799 925 m 1103 1024 q 1096 1028 1097 1024 q 1097 1033 1094 1032 q 1147 1069 1125 1053 q 1169 1107 1169 1085 q 1146 1128 1169 1128 q 1112 1119 1132 1128 q 1076 1096 1092 1111 q 1076 1095 1076 1096 q 1074 1094 1075 1094 q 1071 1097 1072 1094 q 1071 1103 1069 1100 q 1110 1151 1082 1135 q 1175 1165 1139 1168 q 1203 1151 1193 1164 q 1213 1122 1213 1138 q 1202 1086 1213 1101 q 1174 1060 1192 1071 q 1131 1033 1147 1043 q 1107 1024 1114 1024 l 1103 1024 z "},"Ỗ":{"ha":1089,"x_min":33,"x_max":1156,"o":"m 340 -82 q 310 -82 325 -82 q 279 -81 294 -82 q 101 -8 169 -75 q 33 174 33 58 q 90 400 33 274 q 363 703 163 560 q 608 834 478 785 q 872 883 739 883 q 1015 863 950 883 q 1117 800 1079 842 q 1156 694 1156 758 q 1150 648 1156 672 q 1132 600 1144 624 l 1117 571 q 1128 494 1128 533 q 950 163 1128 321 q 340 -82 678 -82 m 332 -54 q 853 167 606 -54 q 1044 468 1031 325 q 794 279 972 389 l 783 276 q 819 315 772 276 l 897 379 q 983 457 947 421 q 1043 522 1019 493 q 968 656 1033 600 q 835 728 913 704 q 707 740 796 738 q 633 747 633 743 q 636 751 633 749 q 761 772 701 772 q 822 768 789 772 q 894 754 856 764 q 1099 613 1040 719 q 1113 681 1113 646 q 1080 776 1113 738 q 992 835 1047 815 q 871 854 938 854 q 468 719 661 854 q 185 397 289 594 q 108 140 108 254 q 293 -53 108 -43 q 313 -54 303 -54 q 332 -54 322 -54 m 788 925 q 782 933 785 925 q 785 944 779 942 q 808 962 792 950 q 847 989 825 974 q 899 1023 879 1008 q 933 1038 919 1038 q 954 1029 946 1038 q 972 1010 963 1021 q 992 990 983 999 q 1011 971 1001 981 q 1025 956 1018 964 q 1032 939 1032 947 q 1026 927 1032 933 q 1006 919 1019 921 q 987 926 996 919 q 967 943 978 933 q 943 968 956 954 q 921 993 931 982 q 857 958 900 982 q 816 935 833 944 q 788 925 799 925 m 1017 1068 q 989 1073 1006 1068 q 950 1088 972 1078 q 888 1108 908 1108 q 866 1104 878 1108 q 843 1089 854 1100 q 815 1069 824 1069 q 814 1072 814 1071 q 871 1135 814 1096 q 918 1150 890 1150 q 981 1133 939 1150 q 1017 1122 1001 1125 q 1042 1118 1032 1118 q 1097 1150 1072 1118 q 1104 1144 1104 1150 q 1053 1081 1104 1119 q 1017 1068 1036 1068 z "},"Ȍ":{"ha":1089,"x_min":33,"x_max":1156,"o":"m 340 -82 q 310 -82 325 -82 q 279 -81 294 -82 q 101 -8 169 -75 q 33 174 33 58 q 90 400 33 274 q 363 703 163 560 q 608 834 478 785 q 872 883 739 883 q 1015 863 950 883 q 1117 800 1079 842 q 1156 694 1156 758 q 1150 648 1156 672 q 1132 600 1144 624 l 1117 571 q 1128 494 1128 533 q 950 163 1128 321 q 340 -82 678 -82 m 332 -54 q 853 167 606 -54 q 1044 468 1031 325 q 794 279 972 389 l 783 276 q 819 315 772 276 l 897 379 q 983 457 947 421 q 1043 522 1019 493 q 968 656 1033 600 q 835 728 913 704 q 707 740 796 738 q 633 747 633 743 q 636 751 633 749 q 761 772 701 772 q 822 768 789 772 q 894 754 856 764 q 1099 613 1040 719 q 1113 681 1113 646 q 1080 776 1113 738 q 992 835 1047 815 q 871 854 938 854 q 468 719 661 854 q 185 397 289 594 q 108 140 108 254 q 293 -53 108 -43 q 313 -54 303 -54 q 332 -54 322 -54 m 1013 938 q 985 951 1004 940 q 932 986 967 963 q 888 1022 904 1007 q 865 1047 872 1038 q 856 1060 861 1053 q 853 1075 851 1068 q 867 1094 854 1085 q 885 1101 879 1103 q 906 1085 893 1100 l 1019 954 q 1024 944 1024 951 q 1013 938 1021 933 m 874 938 q 844 947 865 940 q 786 972 824 954 q 736 1000 756 988 q 710 1019 717 1013 q 698 1031 704 1025 q 692 1046 692 1038 q 703 1066 692 1056 q 719 1076 714 1076 q 743 1064 729 1076 l 878 956 q 883 946 883 951 q 874 938 883 935 z "},"Ö":{"ha":1089,"x_min":33,"x_max":1156,"o":"m 340 -82 q 310 -82 325 -82 q 279 -81 294 -82 q 101 -8 169 -75 q 33 174 33 58 q 90 400 33 274 q 363 703 163 560 q 608 834 478 785 q 872 883 739 883 q 1015 863 950 883 q 1117 800 1079 842 q 1156 694 1156 758 q 1150 648 1156 672 q 1132 600 1144 624 l 1117 571 q 1128 494 1128 533 q 950 163 1128 321 q 340 -82 678 -82 m 332 -54 q 853 167 606 -54 q 1044 468 1031 325 q 794 279 972 389 l 783 276 q 819 315 772 276 l 897 379 q 983 457 947 421 q 1043 522 1019 493 q 968 656 1033 600 q 835 728 913 704 q 707 740 796 738 q 633 747 633 743 q 636 751 633 749 q 761 772 701 772 q 822 768 789 772 q 894 754 856 764 q 1099 613 1040 719 q 1113 681 1113 646 q 1080 776 1113 738 q 992 835 1047 815 q 871 854 938 854 q 468 719 661 854 q 185 397 289 594 q 108 140 108 254 q 293 -53 108 -43 q 313 -54 303 -54 q 332 -54 322 -54 m 996 940 q 976 955 986 940 q 967 981 967 969 q 1007 1031 967 1001 q 1045 1048 1026 1047 q 1056 1033 1064 1049 l 1033 978 q 996 940 1019 940 m 828 940 q 808 955 818 940 q 799 981 799 969 q 839 1031 799 1001 q 881 1046 867 1047 q 888 1033 894 1044 l 865 978 q 828 940 851 940 z "},"Ȫ":{"ha":1089,"x_min":33,"x_max":1156,"o":"m 340 -82 q 310 -82 325 -82 q 279 -81 294 -82 q 101 -8 169 -75 q 33 174 33 58 q 90 400 33 274 q 363 703 163 560 q 608 834 478 785 q 872 883 739 883 q 1015 863 950 883 q 1117 800 1079 842 q 1156 694 1156 758 q 1150 648 1156 672 q 1132 600 1144 624 l 1117 571 q 1128 494 1128 533 q 950 163 1128 321 q 340 -82 678 -82 m 332 -54 q 853 167 606 -54 q 1044 468 1031 325 q 794 279 972 389 l 783 276 q 819 315 772 276 l 897 379 q 983 457 947 421 q 1043 522 1019 493 q 968 656 1033 600 q 835 728 913 704 q 707 740 796 738 q 633 747 633 743 q 636 751 633 749 q 761 772 701 772 q 822 768 789 772 q 894 754 856 764 q 1099 613 1040 719 q 1113 681 1113 646 q 1080 776 1113 738 q 992 835 1047 815 q 871 854 938 854 q 468 719 661 854 q 185 397 289 594 q 108 140 108 254 q 293 -53 108 -43 q 313 -54 303 -54 q 332 -54 322 -54 m 996 940 q 976 955 986 940 q 967 981 967 969 q 1007 1031 967 1001 q 1045 1048 1026 1047 q 1056 1033 1064 1049 l 1033 978 q 996 940 1019 940 m 828 940 q 808 955 818 940 q 799 981 799 969 q 839 1031 799 1001 q 881 1046 867 1047 q 888 1033 894 1044 l 865 978 q 828 940 851 940 m 839 1090 q 822 1106 832 1090 q 810 1131 811 1122 l 813 1132 q 860 1140 826 1139 q 947 1142 894 1142 q 1094 1125 1061 1142 q 1099 1121 1099 1124 q 1097 1113 1099 1118 q 1090 1107 1094 1107 q 964 1099 1047 1107 q 839 1090 881 1090 z "},"Ȱ":{"ha":1089,"x_min":33,"x_max":1156,"o":"m 340 -82 q 310 -82 325 -82 q 279 -81 294 -82 q 101 -8 169 -75 q 33 174 33 58 q 90 400 33 274 q 363 703 163 560 q 608 834 478 785 q 872 883 739 883 q 1015 863 950 883 q 1117 800 1079 842 q 1156 694 1156 758 q 1150 648 1156 672 q 1132 600 1144 624 l 1117 571 q 1128 494 1128 533 q 950 163 1128 321 q 340 -82 678 -82 m 332 -54 q 853 167 606 -54 q 1044 468 1031 325 q 794 279 972 389 l 783 276 q 819 315 772 276 l 897 379 q 983 457 947 421 q 1043 522 1019 493 q 968 656 1033 600 q 835 728 913 704 q 707 740 796 738 q 633 747 633 743 q 636 751 633 749 q 761 772 701 772 q 822 768 789 772 q 894 754 856 764 q 1099 613 1040 719 q 1113 681 1113 646 q 1080 776 1113 738 q 992 835 1047 815 q 871 854 938 854 q 468 719 661 854 q 185 397 289 594 q 108 140 108 254 q 293 -53 108 -43 q 313 -54 303 -54 q 332 -54 322 -54 m 868 942 q 849 956 858 942 q 839 982 839 971 q 881 1032 839 1003 q 944 1061 922 1061 q 949 1060 947 1061 q 929 1035 947 1060 l 906 979 q 868 942 889 942 m 806 1103 q 788 1119 799 1103 q 776 1143 778 1135 l 779 1144 q 827 1153 793 1151 q 914 1154 861 1154 q 1061 1138 1028 1154 q 1065 1133 1065 1136 q 1063 1125 1065 1131 q 1057 1119 1061 1119 q 931 1111 1014 1119 q 806 1103 847 1103 z "},"Ọ":{"ha":1089,"x_min":33,"x_max":1156,"o":"m 340 -82 q 310 -82 325 -82 q 279 -81 294 -82 q 101 -8 169 -75 q 33 174 33 58 q 90 400 33 274 q 363 703 163 560 q 608 834 478 785 q 872 883 739 883 q 1015 863 950 883 q 1117 800 1079 842 q 1156 694 1156 758 q 1150 648 1156 672 q 1132 600 1144 624 l 1117 571 q 1128 494 1128 533 q 950 163 1128 321 q 340 -82 678 -82 m 332 -54 q 853 167 606 -54 q 1044 468 1031 325 q 794 279 972 389 l 783 276 q 819 315 772 276 l 897 379 q 983 457 947 421 q 1043 522 1019 493 q 968 656 1033 600 q 835 728 913 704 q 707 740 796 738 q 633 747 633 743 q 636 751 633 749 q 761 772 701 772 q 822 768 789 772 q 894 754 856 764 q 1099 613 1040 719 q 1113 681 1113 646 q 1080 776 1113 738 q 992 835 1047 815 q 871 854 938 854 q 468 719 661 854 q 185 397 289 594 q 108 140 108 254 q 293 -53 108 -43 q 313 -54 303 -54 q 332 -54 322 -54 m 167 -267 q 147 -252 157 -267 q 138 -226 138 -237 q 178 -176 138 -206 q 219 -161 206 -160 q 226 -174 233 -162 l 204 -229 q 167 -267 188 -267 z "},"Ò":{"ha":1089,"x_min":33,"x_max":1156,"o":"m 340 -82 q 310 -82 325 -82 q 279 -81 294 -82 q 101 -8 169 -75 q 33 174 33 58 q 90 400 33 274 q 363 703 163 560 q 608 834 478 785 q 872 883 739 883 q 1015 863 950 883 q 1117 800 1079 842 q 1156 694 1156 758 q 1150 648 1156 672 q 1132 600 1144 624 l 1117 571 q 1128 494 1128 533 q 950 163 1128 321 q 340 -82 678 -82 m 332 -54 q 853 167 606 -54 q 1044 468 1031 325 q 794 279 972 389 l 783 276 q 819 315 772 276 l 897 379 q 983 457 947 421 q 1043 522 1019 493 q 968 656 1033 600 q 835 728 913 704 q 707 740 796 738 q 633 747 633 743 q 636 751 633 749 q 761 772 701 772 q 822 768 789 772 q 894 754 856 764 q 1099 613 1040 719 q 1113 681 1113 646 q 1080 776 1113 738 q 992 835 1047 815 q 871 854 938 854 q 468 719 661 854 q 185 397 289 594 q 108 140 108 254 q 293 -53 108 -43 q 313 -54 303 -54 q 332 -54 322 -54 m 967 944 q 878 956 929 944 q 822 969 843 963 q 792 981 801 976 q 776 989 785 983 q 767 1004 767 994 q 774 1027 767 1015 q 789 1039 781 1039 q 801 1038 793 1039 q 822 1029 810 1036 q 888 999 851 1015 q 964 965 924 982 q 978 953 978 960 q 967 944 978 944 z "},"Ỏ":{"ha":1089,"x_min":33,"x_max":1156,"o":"m 340 -82 q 310 -82 325 -82 q 279 -81 294 -82 q 101 -8 169 -75 q 33 174 33 58 q 90 400 33 274 q 363 703 163 560 q 608 834 478 785 q 872 883 739 883 q 1015 863 950 883 q 1117 800 1079 842 q 1156 694 1156 758 q 1150 648 1156 672 q 1132 600 1144 624 l 1117 571 q 1128 494 1128 533 q 950 163 1128 321 q 340 -82 678 -82 m 332 -54 q 853 167 606 -54 q 1044 468 1031 325 q 794 279 972 389 l 783 276 q 819 315 772 276 l 897 379 q 983 457 947 421 q 1043 522 1019 493 q 968 656 1033 600 q 835 728 913 704 q 707 740 796 738 q 633 747 633 743 q 636 751 633 749 q 761 772 701 772 q 822 768 789 772 q 894 754 856 764 q 1099 613 1040 719 q 1113 681 1113 646 q 1080 776 1113 738 q 992 835 1047 815 q 871 854 938 854 q 468 719 661 854 q 185 397 289 594 q 108 140 108 254 q 293 -53 108 -43 q 313 -54 303 -54 q 332 -54 322 -54 m 861 942 q 854 946 856 942 q 856 951 853 950 q 906 987 883 971 q 928 1025 928 1003 q 904 1046 928 1046 q 870 1038 890 1046 q 835 1014 850 1029 q 834 1013 835 1014 q 832 1013 833 1013 q 829 1015 831 1013 q 829 1021 828 1018 q 869 1069 840 1053 q 933 1083 897 1086 q 961 1069 951 1082 q 971 1040 971 1056 q 960 1004 971 1019 q 932 978 950 989 q 889 951 906 961 q 865 942 872 942 l 861 942 z "}}}
